# Blender v2.75 (sub 0) OBJ File: 'corkboard.blend'
# www.blender.org
mtllib corkboard.mtl
o Memo1.002_平面.002
v 0.002750 0.093922 -0.064429
v 0.002750 0.048984 -0.066784
v 0.002750 0.096016 -0.104374
v 0.002750 0.051078 -0.106729
vt 0.999906 0.000094
vt 0.999906 0.888816
vt 0.000094 0.888816
vt 0.000094 0.000094
vn 1.000000 0.000000 0.000000
usemtl Memo3
s off
f 2/1/1 4/2/1 3/3/1
f 1/4/1 2/1/1 3/3/1
o Memo1.001_平面.001
v 0.003000 0.106340 -0.036618
v 0.003000 0.061450 -0.033479
v 0.003000 0.103550 -0.076521
v 0.003000 0.058660 -0.073382
vt 0.999906 0.000094
vt 0.999906 0.888816
vt 0.000094 0.888816
vt 0.000094 0.000094
vn 1.000000 0.000000 -0.000000
usemtl Memo2
s off
f 6/5/2 8/6/2 7/7/2
f 5/8/2 6/5/2 7/7/2
o Memo1_平面
v 0.003000 0.085000 0.100000
v 0.003000 -0.005000 0.100000
v 0.003000 0.085000 0.020000
v 0.003000 -0.005000 0.020000
vt 0.999906 0.000094
vt 0.999906 0.888816
vt 0.000094 0.888816
vt 0.000094 0.000094
vn 1.000000 -0.000000 0.000000
usemtl Memo1
s off
f 10/9/3 12/10/3 11/11/3
f 9/12/3 10/9/3 11/11/3
o Cork_立方体.001
v 0.000000 -0.034000 0.158000
v 0.000000 0.164000 0.158000
v 0.000000 -0.034000 -0.158000
v 0.000000 0.164000 -0.158000
v 0.002500 -0.034000 0.158000
v 0.002500 0.164000 0.158000
v 0.002500 -0.034000 -0.158000
v 0.002500 0.164000 -0.158000
vn -1.000000 0.000000 0.000000
vn 0.000000 0.000000 -1.000000
vn 1.000000 0.000000 0.000000
vn 0.000000 0.000000 1.000000
vn 0.000000 -1.000000 0.000000
vn 0.000000 1.000000 0.000000
usemtl Cork
s off
f 16//4 15//4 13//4
f 20//5 19//5 15//5
f 18//6 17//6 19//6
f 14//7 13//7 17//7
f 15//8 19//8 17//8
f 20//9 16//9 14//9
f 14//4 16//4 13//4
f 16//5 20//5 15//5
f 20//6 18//6 19//6
f 18//7 14//7 17//7
f 13//8 15//8 17//8
f 18//9 20//9 14//9
o Frame_立方体
v -0.005000 -0.045000 0.175000
v -0.005000 0.175000 0.175000
v -0.005000 -0.045000 -0.175000
v -0.005000 0.175000 -0.175000
v 0.005000 -0.045000 0.175000
v 0.005000 0.175000 0.175000
v 0.005000 -0.045000 -0.175000
v 0.005000 0.175000 -0.175000
v 0.005000 0.164000 -0.157500
v 0.005000 -0.034000 -0.157500
v 0.005000 0.164000 0.157500
v 0.005000 -0.034000 0.157500
v -0.000250 0.164000 -0.157500
v -0.000250 -0.034000 -0.157500
v -0.000250 0.164000 0.157500
v -0.000250 -0.034000 0.157500
vn -1.000000 0.000000 0.000000
vn 0.000000 0.000000 -1.000000
vn 1.000000 0.000000 0.000000
vn 0.000000 0.000000 1.000000
vn 0.000000 -1.000000 0.000000
vn 0.000000 1.000000 0.000000
usemtl Frame
s off
f 24//10 23//10 21//10
f 28//11 27//11 23//11
f 27//12 30//12 32//12
f 22//13 21//13 25//13
f 23//14 27//14 25//14
f 28//15 24//15 22//15
f 30//15 34//15 36//15
f 26//12 31//12 29//12
f 28//12 29//12 30//12
f 25//12 32//12 31//12
f 35//12 36//12 34//12
f 31//14 35//14 33//14
f 32//11 36//11 35//11
f 29//13 33//13 34//13
f 22//10 24//10 21//10
f 24//11 28//11 23//11
f 25//12 27//12 32//12
f 26//13 22//13 25//13
f 21//14 23//14 25//14
f 26//15 28//15 22//15
f 32//15 30//15 36//15
f 28//12 26//12 29//12
f 27//12 28//12 30//12
f 26//12 25//12 31//12
f 33//12 35//12 34//12
f 29//14 31//14 33//14
f 31//11 32//11 35//11
f 30//13 29//13 34//13
