# Blender v2.75 (sub 0) OBJ File: 'blacklowtable.blend'
# www.blender.org
mtllib blacklowtable.mtl
o Table_立方体
v -0.350000 0.000000 0.600000
v -0.350000 0.060000 0.500000
v -0.350000 0.060000 -0.500000
v -0.350000 0.265000 -0.500000
v -0.350000 0.325000 -0.600000
v -0.350000 0.000000 -0.600000
v -0.350000 0.325000 0.600000
v -0.350000 0.265000 0.500000
v 0.350000 0.325000 0.600000
v 0.350000 0.000000 0.600000
v 0.350000 0.325000 -0.600000
v 0.350000 0.000000 -0.600000
v 0.350000 0.060000 0.500000
v 0.350000 0.265000 0.500000
v 0.350000 0.265000 -0.500000
v 0.350000 0.060000 -0.500000
vn -1.000000 -0.000000 0.000000
vn 0.000000 0.000000 1.000000
vn 0.000000 1.000000 0.000000
vn 0.000000 0.000000 -1.000000
vn 0.000000 -1.000000 0.000000
vn 1.000000 0.000000 0.000000
usemtl Table
s off
f 2//1 3//1 6//1
f 7//1 5//1 8//1
f 7//2 1//2 10//2
f 11//3 5//3 7//3
f 11//4 12//4 6//4
f 6//5 12//5 10//5
f 13//6 14//6 9//6
f 12//6 11//6 16//6
f 3//2 16//2 15//2
f 14//5 8//5 4//5
f 2//3 13//3 16//3
f 13//4 2//4 8//4
f 4//1 5//1 6//1
f 6//1 1//1 2//1
f 3//1 4//1 6//1
f 8//1 2//1 1//1
f 5//1 4//1 8//1
f 8//1 1//1 7//1
f 9//2 7//2 10//2
f 9//3 11//3 7//3
f 5//4 11//4 6//4
f 1//5 6//5 10//5
f 15//6 11//6 9//6
f 9//6 10//6 13//6
f 14//6 15//6 9//6
f 16//6 13//6 10//6
f 11//6 15//6 16//6
f 16//6 10//6 12//6
f 4//2 3//2 15//2
f 15//5 14//5 4//5
f 3//3 2//3 16//3
f 14//4 13//4 8//4
