# Blender v2.75 (sub 0) OBJ File: 'eraser.blend'
# www.blender.org
mtllib eraser.mtl
o 立方体
v -0.008500 -0.005500 0.021500
v -0.008500 0.005500 0.021500
v -0.008500 -0.005500 -0.021500
v -0.008500 0.005500 -0.021500
v 0.008500 -0.005500 0.021500
v 0.008500 0.005500 0.021500
v 0.008500 -0.005500 -0.021500
v 0.008500 0.005500 -0.021500
vn -1.000000 0.000000 0.000000
vn 0.000000 0.000000 -1.000000
vn 1.000000 0.000000 0.000000
vn 0.000000 0.000000 1.000000
vn 0.000000 -1.000000 0.000000
vn 0.000000 1.000000 0.000000
usemtl Gom
s off
f 4//1 3//1 1//1
f 8//2 7//2 3//2
f 6//3 5//3 7//3
f 2//4 1//4 5//4
f 3//5 7//5 5//5
f 8//6 4//6 2//6
f 2//1 4//1 1//1
f 4//2 8//2 3//2
f 8//3 6//3 7//3
f 6//4 2//4 5//4
f 1//5 3//5 5//5
f 6//6 8//6 2//6
o Cover_立方体.001
v -0.008510 0.005510 0.011500
v -0.008510 0.005510 -0.021000
v -0.008510 -0.005510 -0.021000
v -0.008510 -0.005510 0.011500
v -0.008500 -0.005500 0.011500
v -0.008500 0.005500 0.011500
v 0.008500 0.005500 0.011500
v 0.008510 0.005510 0.011500
v 0.008510 -0.005510 0.011500
v 0.008500 -0.005500 0.011500
v 0.008510 0.005510 -0.021000
v -0.008500 -0.005500 -0.021000
v 0.008500 -0.005500 -0.021000
v 0.008500 0.005500 -0.021000
v 0.008510 -0.005510 -0.021000
v -0.008500 0.005500 -0.021000
vt 0.999724 0.524186
vt 0.999724 0.693537
vt 0.500275 0.693537
vt 0.500592 0.205468
vt 0.531489 0.221371
vt 0.531741 0.222207
vt 0.548520 0.187825
vt 0.579904 0.204392
vt 0.548778 0.188661
vt 0.499724 0.262384
vt 0.499724 0.523942
vt 0.000276 0.523942
vt 0.500590 0.244789
vt 0.531352 0.260995
vt 0.531596 0.261833
vt 0.548406 0.169871
vt 0.579636 0.186747
vt 0.548657 0.170710
vt 0.499724 0.000276
vt 0.499724 0.261833
vt 0.000276 0.261833
vt 0.000276 0.955646
vt 0.000276 0.786294
vt 0.499724 0.786294
vt 0.500275 0.786294
vt 0.999724 0.786294
vt 0.999724 0.955338
vt 0.500275 0.262384
vt 0.999724 0.262384
vt 0.999724 0.523634
vt 0.000276 0.524493
vt 0.499724 0.524493
vt 0.499724 0.785743
vt 0.999725 0.169320
vt 0.500275 0.169320
vt 0.500275 0.000276
vt 0.500275 0.524186
vt 0.578838 0.205468
vt 0.579962 0.206026
vt 0.500275 0.205999
vt 0.501405 0.204916
vt 0.500275 0.204363
vt 0.579595 0.204916
vt 0.000276 0.262384
vt 0.578577 0.244789
vt 0.579703 0.245340
vt 0.500275 0.245321
vt 0.501409 0.187274
vt 0.500275 0.186729
vt 0.579330 0.187274
vt 0.000276 0.000276
vt 0.499724 0.955646
vt 0.500275 0.955339
vt 0.500276 0.523634
vt 0.000276 0.785743
vt 0.999725 0.000276
vn -1.000000 0.000000 0.000000
vn 0.000200 0.000000 1.000000
vn 0.000000 0.000000 1.000000
vn 0.000000 1.000000 0.000000
vn 0.000000 0.000000 -1.000000
vn 0.000000 -1.000000 0.000000
vn 1.000000 0.000000 0.000000
vn -0.000100 0.000000 1.000000
vn -0.000300 0.000000 1.000000
vn 0.000300 0.000000 -1.000000
vn 0.000100 0.000000 -1.000000
vn -0.000300 0.000000 -1.000000
usemtl マテリアル
s off
f 10/1/7 11/2/7 12/3/7
f 13/4/8 14/5/8 9/6/8
f 17/7/9 16/8/9 18/9/9
f 19/10/10 10/11/10 9/12/10
f 20/13/11 21/14/11 23/15/11
f 10/16/11 19/17/11 24/18/11
f 11/19/12 23/20/12 17/21/12
f 16/22/13 17/23/13 23/24/13
f 13/25/13 20/26/13 24/27/13
f 14/28/12 24/29/12 22/30/12
f 18/31/10 21/32/10 20/33/10
f 21/34/7 18/35/7 15/36/7
f 9/37/7 10/1/7 12/3/7
f 15/38/9 16/39/9 9/6/9
f 9/6/14 12/40/14 13/4/14
f 14/5/9 15/38/9 9/6/9
f 17/7/9 13/41/9 12/42/9
f 16/8/15 15/43/15 18/9/15
f 18/9/9 13/41/9 17/7/9
f 16/44/10 19/10/10 9/12/10
f 22/45/16 19/46/16 23/15/16
f 23/15/11 11/47/11 20/13/11
f 21/14/11 22/45/11 23/15/11
f 24/18/17 20/48/17 11/49/17
f 19/17/11 22/50/11 24/18/11
f 24/18/18 11/49/18 10/16/18
f 12/51/12 11/19/12 17/21/12
f 19/52/13 16/22/13 23/24/13
f 14/53/13 13/25/13 24/27/13
f 15/54/12 14/28/12 22/30/12
f 13/55/10 18/31/10 20/33/10
f 22/56/7 21/34/7 15/36/7
