# Blender v2.75 (sub 0) OBJ File: 'cardboard-box.blend'
# www.blender.org
mtllib cardboard-box.mtl
o Tape_立方体.001
v -0.037500 0.310000 0.250000
v -0.037500 0.310200 0.250000
v -0.037500 0.310000 -0.250000
v -0.037500 0.310200 -0.250000
v 0.037500 0.310000 0.250000
v 0.037500 0.310200 0.250000
v 0.037500 0.310000 -0.250000
v 0.037500 0.310200 -0.250000
v -0.037500 0.310000 0.250200
v -0.037500 0.310100 0.250200
v 0.037500 0.310100 0.250200
v 0.037500 0.310000 0.250200
v -0.037500 0.260000 0.250000
v 0.037500 0.260000 0.250000
v -0.037500 0.260000 0.250200
v 0.037500 0.260000 0.250200
v -0.037500 0.310100 -0.250200
v -0.037500 0.310000 -0.250200
v 0.037500 0.310100 -0.250200
v 0.037500 0.310000 -0.250200
v 0.037500 0.260000 -0.250000
v -0.037500 0.260000 -0.250000
v 0.037500 0.260000 -0.250200
v -0.037500 0.260000 -0.250200
vn -1.000000 0.000000 0.000000
vn 1.000000 0.000000 0.000000
vn 0.000000 0.894400 0.447300
vn 0.000000 -1.000000 0.000000
vn 0.000000 1.000000 0.000000
vn 0.000000 0.000000 1.000000
vn 0.000000 0.000000 -1.000000
vn 0.000000 0.894400 -0.447300
vn 0.000000 0.894500 0.447200
vn 0.000000 0.894500 -0.447200
usemtl Tape
s off
f 4//1 3//1 1//1
f 8//2 7//2 20//2
f 6//2 5//2 7//2
f 2//3 10//3 11//3
f 3//4 7//4 5//4
f 8//5 4//5 2//5
f 10//6 9//6 12//6
f 5//2 6//2 11//2
f 2//1 1//1 9//1
f 12//2 16//2 14//2
f 14//4 16//4 15//4
f 1//1 13//1 15//1
f 9//6 15//6 16//6
f 5//7 14//7 13//7
f 19//7 20//7 18//7
f 20//7 23//7 24//7
f 8//8 19//8 17//8
f 3//1 4//1 17//1
f 22//4 24//4 23//4
f 18//1 24//1 22//1
f 7//2 21//2 23//2
f 3//6 22//6 21//6
f 2//1 4//1 1//1
f 19//2 8//2 20//2
f 8//2 6//2 7//2
f 6//9 2//9 11//9
f 1//4 3//4 5//4
f 6//5 8//5 2//5
f 11//6 10//6 12//6
f 12//2 5//2 11//2
f 10//1 2//1 9//1
f 5//2 12//2 14//2
f 13//4 14//4 15//4
f 9//1 1//1 15//1
f 12//6 9//6 16//6
f 1//7 5//7 13//7
f 17//7 19//7 18//7
f 18//7 20//7 24//7
f 4//10 8//10 17//10
f 18//1 3//1 17//1
f 21//4 22//4 23//4
f 3//1 18//1 22//1
f 20//2 7//2 23//2
f 7//6 3//6 21//6
o Box_立方体
v -0.190000 0.000000 0.250000
v -0.190000 0.310000 0.250000
v -0.190000 0.000000 -0.250000
v -0.190000 0.310000 -0.250000
v 0.190000 0.000000 0.250000
v 0.190000 0.310000 0.250000
v 0.190000 0.000000 -0.250000
v 0.190000 0.310000 -0.250000
vn -1.000000 0.000000 0.000000
vn 0.000000 0.000000 -1.000000
vn 1.000000 0.000000 0.000000
vn 0.000000 0.000000 1.000000
vn 0.000000 -1.000000 0.000000
vn 0.000000 1.000000 0.000000
usemtl Box
s off
f 28//11 27//11 25//11
f 32//12 31//12 27//12
f 30//13 29//13 31//13
f 26//14 25//14 29//14
f 27//15 31//15 29//15
f 32//16 28//16 26//16
f 26//11 28//11 25//11
f 28//12 32//12 27//12
f 32//13 30//13 31//13
f 30//14 26//14 29//14
f 25//15 27//15 29//15
f 30//16 32//16 26//16
