# Blender v2.75 (sub 0) OBJ File: 'facial tissue.blend'
# www.blender.org
mtllib facial tissue.mtl
o グリッド
v 0.000000 0.090000 0.080000
v -0.000000 0.050000 0.080000
v -0.003791 0.090000 0.062222
v -0.003791 0.050000 0.062222
v 0.000000 0.090000 0.044444
v -0.000000 0.050000 0.044444
v -0.002304 0.090000 0.026667
v -0.002304 0.050000 0.026667
v 0.000000 0.090000 0.008889
v -0.000000 0.050000 0.008889
v -0.005698 0.090000 -0.008889
v -0.005698 0.050000 -0.008889
v 0.000000 0.090000 -0.026667
v -0.000000 0.050000 -0.026667
v 0.003807 0.090000 -0.044444
v 0.003807 0.050000 -0.044444
v -0.001182 0.090000 -0.062222
v -0.001182 0.050000 -0.062222
v 0.000987 0.090000 -0.080000
v 0.000987 0.050000 -0.080000
v -0.000489 0.090000 0.080104
v -0.000489 0.050000 0.080104
v -0.004291 0.090000 0.062222
v -0.004291 0.050000 0.062222
v -0.000500 0.090000 0.044424
v -0.000500 0.050000 0.044424
v -0.002804 0.090000 0.026667
v -0.002804 0.050000 0.026667
v -0.000498 0.090000 0.008934
v -0.000498 0.050000 0.008934
v -0.006198 0.090000 -0.008889
v -0.006198 0.050000 -0.008889
v -0.000483 0.090000 -0.026795
v -0.000483 0.050000 -0.026795
v 0.003307 0.090000 -0.044429
v 0.003307 0.050000 -0.044429
v -0.001680 0.090000 -0.062184
v -0.001680 0.050000 -0.062184
v 0.000491 0.090000 -0.080061
v 0.000491 0.050000 -0.080061
vn 0.978000 -0.000000 -0.208500
vn 0.978000 -0.000000 0.208500
vn 0.991700 -0.000000 -0.128600
vn 0.991700 -0.000000 0.128600
vn 0.952300 -0.000000 -0.305200
vn 0.952300 -0.000000 0.305200
vn 0.977800 -0.000000 0.209400
vn 0.962800 -0.000000 -0.270200
vn 0.992600 -0.000000 0.121100
vn -0.978100 0.000000 0.208000
vn -0.978100 0.000000 -0.208300
vn -0.991700 0.000000 0.128700
vn -0.991600 0.000000 -0.129000
vn -0.952500 0.000000 0.304600
vn -0.952700 0.000000 -0.304000
vn -0.977700 0.000000 -0.210100
vn -0.962700 0.000000 0.270400
vn -0.992700 0.000000 -0.120600
vn 0.000000 1.000000 0.000000
vn 0.208500 -0.000000 0.978000
vn 0.000000 -1.000000 -0.000000
vn 0.121100 -0.000000 -0.992600
usemtl Paper
s off
f 1//1 2//1 4//1 3//1
f 3//2 4//2 6//2 5//2
f 5//3 6//3 8//3 7//3
f 7//4 8//4 10//4 9//4
f 9//5 10//5 12//5 11//5
f 11//6 12//6 14//6 13//6
f 13//7 14//7 16//7 15//7
f 15//8 16//8 18//8 17//8
f 17//9 18//9 20//9 19//9
f 23//10 24//10 22//10 21//10
f 25//11 26//11 24//11 23//11
f 27//12 28//12 26//12 25//12
f 29//13 30//13 28//13 27//13
f 31//14 32//14 30//14 29//14
f 33//15 34//15 32//15 31//15
f 35//16 36//16 34//16 33//16
f 37//17 38//17 36//17 35//17
f 39//18 40//18 38//18 37//18
f 1//19 3//19 23//19 21//19
f 2//20 1//20 21//20 22//20
f 4//21 2//21 22//21 24//21
f 3//19 5//19 25//19 23//19
f 6//21 4//21 24//21 26//21
f 5//19 7//19 27//19 25//19
f 8//21 6//21 26//21 28//21
f 7//19 9//19 29//19 27//19
f 10//21 8//21 28//21 30//21
f 9//19 11//19 31//19 29//19
f 12//21 10//21 30//21 32//21
f 11//19 13//19 33//19 31//19
f 14//21 12//21 32//21 34//21
f 13//19 15//19 35//19 33//19
f 16//21 14//21 34//21 36//21
f 15//19 17//19 37//19 35//19
f 18//21 16//21 36//21 38//21
f 17//19 19//19 39//19 37//19
f 20//21 18//21 38//21 40//21
f 19//22 20//22 40//22 39//22
o Box_立方体
v -0.057500 -0.000000 0.115000
v -0.057500 0.055000 0.115000
v -0.057500 -0.000000 -0.115000
v -0.057500 0.055000 -0.115000
v 0.057500 -0.000000 0.115000
v 0.057500 0.055000 0.115000
v 0.057500 -0.000000 -0.115000
v 0.057500 0.055000 -0.115000
vt 0.161832 0.000100
vt 0.838167 0.000100
vt 0.838167 0.161832
vt 0.161832 0.161833
vt 0.999900 0.161832
vt 0.999900 0.500000
vt 0.838167 0.500000
vt 0.838167 0.661732
vt 0.161832 0.661732
vt 0.161832 0.500000
vt 0.000100 0.500000
vt 0.000100 0.161833
vt 0.838167 0.999900
vt 0.161832 0.999900
vn -1.000000 0.000000 0.000000
vn 0.000000 0.000000 -1.000000
vn 1.000000 0.000000 0.000000
vn 0.000000 0.000000 1.000000
vn 0.000000 -1.000000 0.000000
vn 0.000000 1.000000 0.000000
usemtl Box
s off
f 42/1/23 44/2/23 43/3/23 41/4/23
f 44/5/24 48/6/24 47/7/24 43/3/24
f 48/8/25 46/9/25 45/10/25 47/7/25
f 46/11/26 42/12/26 41/4/26 45/10/26
f 41/4/27 43/3/27 47/7/27 45/10/27
f 46/9/28 48/8/28 44/13/28 42/14/28
