<?xml version="1.0" encoding="utf-8"?>
<!-- Generator: Adobe Illustrator 16.0.3, SVG Export Plug-In . SVG Version: 6.00 Build 0)  -->
<!DOCTYPE svg PUBLIC "-//W3C//DTD SVG 1.1//EN" "http://www.w3.org/Graphics/SVG/1.1/DTD/svg11.dtd">
<svg version="1.1" id="レイヤー_1" xmlns="http://www.w3.org/2000/svg" xmlns:xlink="http://www.w3.org/1999/xlink" x="0px"
	 y="0px" width="336px" height="432px" viewBox="0 0 336 432" enable-background="new 0 0 336 432" xml:space="preserve">
<linearGradient id="SVGID_1_" gradientUnits="userSpaceOnUse" x1="0" y1="24" x2="48" y2="24">
	<stop  offset="0" style="stop-color:#FFFFFF"/>
	<stop  offset="1" style="stop-color:#E6E6E6"/>
</linearGradient>
<rect fill="url(#SVGID_1_)" width="48" height="48"/>
<linearGradient id="SVGID_2_" gradientUnits="userSpaceOnUse" x1="72" y1="48" x2="72" y2="0">
	<stop  offset="0" style="stop-color:#FFFFFF"/>
	<stop  offset="1" style="stop-color:#E6E6E6"/>
</linearGradient>
<rect x="48" fill="url(#SVGID_2_)" width="48" height="48"/>
<linearGradient id="SVGID_3_" gradientUnits="userSpaceOnUse" x1="24" y1="48" x2="24" y2="96">
	<stop  offset="0" style="stop-color:#FFFFFF"/>
	<stop  offset="1" style="stop-color:#E6E6E6"/>
</linearGradient>
<rect y="48" fill="url(#SVGID_3_)" width="48" height="48"/>
<linearGradient id="SVGID_4_" gradientUnits="userSpaceOnUse" x1="48" y1="120" x2="0" y2="120">
	<stop  offset="0" style="stop-color:#FFFFFF"/>
	<stop  offset="1" style="stop-color:#E6E6E6"/>
</linearGradient>
<rect y="96" fill="url(#SVGID_4_)" width="48" height="48"/>
<linearGradient id="SVGID_5_" gradientUnits="userSpaceOnUse" x1="72" y1="144" x2="72" y2="96">
	<stop  offset="0" style="stop-color:#FFFFFF"/>
	<stop  offset="1" style="stop-color:#E6E6E6"/>
</linearGradient>
<rect x="48" y="96" fill="url(#SVGID_5_)" width="48" height="48"/>
<linearGradient id="SVGID_6_" gradientUnits="userSpaceOnUse" x1="96" y1="72" x2="48" y2="72">
	<stop  offset="0" style="stop-color:#FFFFFF"/>
	<stop  offset="1" style="stop-color:#E6E6E6"/>
</linearGradient>
<rect x="48" y="48" fill="url(#SVGID_6_)" width="48" height="48"/>
<linearGradient id="SVGID_7_" gradientUnits="userSpaceOnUse" x1="96" y1="120" x2="144" y2="120">
	<stop  offset="0" style="stop-color:#FFFFFF"/>
	<stop  offset="1" style="stop-color:#E6E6E6"/>
</linearGradient>
<rect x="96" y="96" fill="url(#SVGID_7_)" width="48" height="48"/>
<linearGradient id="SVGID_8_" gradientUnits="userSpaceOnUse" x1="144" y1="24" x2="96" y2="24">
	<stop  offset="0" style="stop-color:#FFFFFF"/>
	<stop  offset="1" style="stop-color:#E6E6E6"/>
</linearGradient>
<rect x="96" fill="url(#SVGID_8_)" width="48" height="48"/>
<linearGradient id="SVGID_9_" gradientUnits="userSpaceOnUse" x1="120" y1="48" x2="120" y2="96">
	<stop  offset="0" style="stop-color:#FFFFFF"/>
	<stop  offset="1" style="stop-color:#E6E6E6"/>
</linearGradient>
<rect x="96" y="48" fill="url(#SVGID_9_)" width="48" height="48"/>
<linearGradient id="SVGID_10_" gradientUnits="userSpaceOnUse" x1="120" y1="144" x2="120" y2="192">
	<stop  offset="0" style="stop-color:#FFFFFF"/>
	<stop  offset="1" style="stop-color:#E6E6E6"/>
</linearGradient>
<rect x="96" y="144" fill="url(#SVGID_10_)" width="48" height="48"/>
<linearGradient id="SVGID_11_" gradientUnits="userSpaceOnUse" x1="168.0005" y1="48" x2="168.0005" y2="0">
	<stop  offset="0" style="stop-color:#FFFFFF"/>
	<stop  offset="1" style="stop-color:#E6E6E6"/>
</linearGradient>
<rect x="144" fill="url(#SVGID_11_)" width="48" height="48"/>
<linearGradient id="SVGID_12_" gradientUnits="userSpaceOnUse" x1="192" y1="72" x2="144.0005" y2="72">
	<stop  offset="0" style="stop-color:#FFFFFF"/>
	<stop  offset="1" style="stop-color:#E6E6E6"/>
</linearGradient>
<rect x="144" y="48" fill="url(#SVGID_12_)" width="48" height="48"/>
<linearGradient id="SVGID_13_" gradientUnits="userSpaceOnUse" x1="0" y1="168" x2="48" y2="168">
	<stop  offset="0" style="stop-color:#FFFFFF"/>
	<stop  offset="1" style="stop-color:#E6E6E6"/>
</linearGradient>
<rect y="144" fill="url(#SVGID_13_)" width="48" height="48"/>
<linearGradient id="SVGID_14_" gradientUnits="userSpaceOnUse" x1="72" y1="192" x2="72" y2="144">
	<stop  offset="0" style="stop-color:#FFFFFF"/>
	<stop  offset="1" style="stop-color:#E6E6E6"/>
</linearGradient>
<rect x="48" y="144" fill="url(#SVGID_14_)" width="48" height="48"/>
<linearGradient id="SVGID_15_" gradientUnits="userSpaceOnUse" x1="144" y1="168" x2="192" y2="168">
	<stop  offset="0" style="stop-color:#FFFFFF"/>
	<stop  offset="1" style="stop-color:#E6E6E6"/>
</linearGradient>
<rect x="144" y="144" fill="url(#SVGID_15_)" width="48" height="48"/>
<linearGradient id="SVGID_16_" gradientUnits="userSpaceOnUse" x1="192" y1="120" x2="144.0005" y2="120">
	<stop  offset="0" style="stop-color:#FFFFFF"/>
	<stop  offset="1" style="stop-color:#E6E6E6"/>
</linearGradient>
<rect x="144" y="96" fill="url(#SVGID_16_)" width="48" height="48"/>
<linearGradient id="SVGID_17_" gradientUnits="userSpaceOnUse" x1="24" y1="240" x2="24" y2="192.0005">
	<stop  offset="0" style="stop-color:#FFFFFF"/>
	<stop  offset="1" style="stop-color:#E6E6E6"/>
</linearGradient>
<rect y="192" fill="url(#SVGID_17_)" width="48" height="48"/>
<linearGradient id="SVGID_18_" gradientUnits="userSpaceOnUse" x1="96" y1="216.0005" x2="48" y2="216.0005">
	<stop  offset="0" style="stop-color:#FFFFFF"/>
	<stop  offset="1" style="stop-color:#E6E6E6"/>
</linearGradient>
<rect x="48" y="192" fill="url(#SVGID_18_)" width="48" height="48"/>
<linearGradient id="SVGID_19_" gradientUnits="userSpaceOnUse" x1="96" y1="216" x2="144" y2="216">
	<stop  offset="0" style="stop-color:#FFFFFF"/>
	<stop  offset="1" style="stop-color:#E6E6E6"/>
</linearGradient>
<rect x="96" y="192" fill="url(#SVGID_19_)" width="48" height="48"/>
<linearGradient id="SVGID_20_" gradientUnits="userSpaceOnUse" x1="168.0005" y1="240" x2="168.0005" y2="192.0005">
	<stop  offset="0" style="stop-color:#FFFFFF"/>
	<stop  offset="1" style="stop-color:#E6E6E6"/>
</linearGradient>
<rect x="144" y="192" fill="url(#SVGID_20_)" width="48" height="48"/>
<linearGradient id="SVGID_21_" gradientUnits="userSpaceOnUse" x1="216" y1="192" x2="216" y2="240.0005">
	<stop  offset="0" style="stop-color:#FFFFFF"/>
	<stop  offset="1" style="stop-color:#E6E6E6"/>
</linearGradient>
<rect x="192" y="192" fill="url(#SVGID_21_)" width="48" height="48"/>
<linearGradient id="SVGID_22_" gradientUnits="userSpaceOnUse" x1="216" y1="240" x2="216" y2="288">
	<stop  offset="0" style="stop-color:#FFFFFF"/>
	<stop  offset="1" style="stop-color:#E6E6E6"/>
</linearGradient>
<rect x="192" y="240" fill="url(#SVGID_22_)" width="48" height="48"/>
<linearGradient id="SVGID_23_" gradientUnits="userSpaceOnUse" x1="144" y1="264" x2="192" y2="264">
	<stop  offset="0" style="stop-color:#FFFFFF"/>
	<stop  offset="1" style="stop-color:#E6E6E6"/>
</linearGradient>
<rect x="144" y="240" fill="url(#SVGID_23_)" width="48" height="48"/>
<linearGradient id="SVGID_24_" gradientUnits="userSpaceOnUse" x1="192" y1="168" x2="240" y2="168">
	<stop  offset="0" style="stop-color:#FFFFFF"/>
	<stop  offset="1" style="stop-color:#E6E6E6"/>
</linearGradient>
<rect x="192" y="144" fill="url(#SVGID_24_)" width="48" height="48"/>
<linearGradient id="SVGID_25_" gradientUnits="userSpaceOnUse" x1="216" y1="144" x2="216" y2="96">
	<stop  offset="0" style="stop-color:#FFFFFF"/>
	<stop  offset="1" style="stop-color:#E6E6E6"/>
</linearGradient>
<rect x="192" y="96" fill="url(#SVGID_25_)" width="48" height="48"/>
<linearGradient id="SVGID_26_" gradientUnits="userSpaceOnUse" x1="240" y1="72" x2="192" y2="72">
	<stop  offset="0" style="stop-color:#FFFFFF"/>
	<stop  offset="1" style="stop-color:#E6E6E6"/>
</linearGradient>
<rect x="192" y="48" fill="url(#SVGID_26_)" width="48" height="48"/>
<linearGradient id="SVGID_27_" gradientUnits="userSpaceOnUse" x1="192" y1="24" x2="240" y2="24">
	<stop  offset="0" style="stop-color:#FFFFFF"/>
	<stop  offset="1" style="stop-color:#E6E6E6"/>
</linearGradient>
<rect x="192" fill="url(#SVGID_27_)" width="48" height="48"/>
<linearGradient id="SVGID_28_" gradientUnits="userSpaceOnUse" x1="264" y1="0" x2="264" y2="48">
	<stop  offset="0" style="stop-color:#FFFFFF"/>
	<stop  offset="1" style="stop-color:#E6E6E6"/>
</linearGradient>
<rect x="240" fill="url(#SVGID_28_)" width="48" height="48"/>
<linearGradient id="SVGID_29_" gradientUnits="userSpaceOnUse" x1="312" y1="0" x2="312" y2="48">
	<stop  offset="0" style="stop-color:#FFFFFF"/>
	<stop  offset="1" style="stop-color:#E6E6E6"/>
</linearGradient>
<rect x="288" fill="url(#SVGID_29_)" width="48" height="48"/>
<linearGradient id="SVGID_30_" gradientUnits="userSpaceOnUse" x1="288" y1="72" x2="240" y2="72">
	<stop  offset="0" style="stop-color:#FFFFFF"/>
	<stop  offset="1" style="stop-color:#E6E6E6"/>
</linearGradient>
<rect x="240" y="48" fill="url(#SVGID_30_)" width="48" height="48"/>
<linearGradient id="SVGID_31_" gradientUnits="userSpaceOnUse" x1="288" y1="120" x2="336" y2="120">
	<stop  offset="0" style="stop-color:#FFFFFF"/>
	<stop  offset="1" style="stop-color:#E6E6E6"/>
</linearGradient>
<rect x="288" y="96" fill="url(#SVGID_31_)" width="48" height="48"/>
<linearGradient id="SVGID_32_" gradientUnits="userSpaceOnUse" x1="312" y1="48" x2="312" y2="96">
	<stop  offset="0" style="stop-color:#FFFFFF"/>
	<stop  offset="1" style="stop-color:#E6E6E6"/>
</linearGradient>
<rect x="288" y="48" fill="url(#SVGID_32_)" width="48" height="48"/>
<linearGradient id="SVGID_33_" gradientUnits="userSpaceOnUse" x1="264" y1="144" x2="264" y2="96">
	<stop  offset="0" style="stop-color:#FFFFFF"/>
	<stop  offset="1" style="stop-color:#E6E6E6"/>
</linearGradient>
<rect x="240" y="96" fill="url(#SVGID_33_)" width="48" height="48"/>
<linearGradient id="SVGID_34_" gradientUnits="userSpaceOnUse" x1="96" y1="264" x2="48" y2="264">
	<stop  offset="0" style="stop-color:#FFFFFF"/>
	<stop  offset="1" style="stop-color:#E6E6E6"/>
</linearGradient>
<rect x="48" y="240" fill="url(#SVGID_34_)" width="48" height="48"/>
<linearGradient id="SVGID_35_" gradientUnits="userSpaceOnUse" x1="120" y1="288" x2="120" y2="240">
	<stop  offset="0" style="stop-color:#FFFFFF"/>
	<stop  offset="1" style="stop-color:#E6E6E6"/>
</linearGradient>
<rect x="96" y="240" fill="url(#SVGID_35_)" width="48" height="48"/>
<linearGradient id="SVGID_36_" gradientUnits="userSpaceOnUse" x1="264" y1="144" x2="264" y2="192">
	<stop  offset="0" style="stop-color:#FFFFFF"/>
	<stop  offset="1" style="stop-color:#E6E6E6"/>
</linearGradient>
<rect x="240" y="144" fill="url(#SVGID_36_)" width="48" height="48"/>
<linearGradient id="SVGID_37_" gradientUnits="userSpaceOnUse" x1="336" y1="168" x2="288" y2="168">
	<stop  offset="0" style="stop-color:#FFFFFF"/>
	<stop  offset="1" style="stop-color:#E6E6E6"/>
</linearGradient>
<rect x="288" y="144" fill="url(#SVGID_37_)" width="48" height="48"/>
<linearGradient id="SVGID_38_" gradientUnits="userSpaceOnUse" x1="48" y1="264" x2="0" y2="264">
	<stop  offset="0" style="stop-color:#FFFFFF"/>
	<stop  offset="1" style="stop-color:#E6E6E6"/>
</linearGradient>
<rect y="240" fill="url(#SVGID_38_)" width="48" height="48"/>
<linearGradient id="SVGID_39_" gradientUnits="userSpaceOnUse" x1="24" y1="288" x2="24" y2="336">
	<stop  offset="0" style="stop-color:#FFFFFF"/>
	<stop  offset="1" style="stop-color:#E6E6E6"/>
</linearGradient>
<rect y="288" fill="url(#SVGID_39_)" width="48" height="48"/>
<linearGradient id="SVGID_40_" gradientUnits="userSpaceOnUse" x1="48" y1="312" x2="96" y2="312">
	<stop  offset="0" style="stop-color:#FFFFFF"/>
	<stop  offset="1" style="stop-color:#E6E6E6"/>
</linearGradient>
<rect x="48" y="288" fill="url(#SVGID_40_)" width="48" height="48"/>
<linearGradient id="SVGID_41_" gradientUnits="userSpaceOnUse" x1="96" y1="312" x2="144" y2="312">
	<stop  offset="0" style="stop-color:#FFFFFF"/>
	<stop  offset="1" style="stop-color:#E6E6E6"/>
</linearGradient>
<rect x="96" y="288" fill="url(#SVGID_41_)" width="48" height="48"/>
<linearGradient id="SVGID_42_" gradientUnits="userSpaceOnUse" x1="167.9995" y1="288" x2="167.9995" y2="336">
	<stop  offset="0" style="stop-color:#FFFFFF"/>
	<stop  offset="1" style="stop-color:#E6E6E6"/>
</linearGradient>
<rect x="144" y="288" fill="url(#SVGID_42_)" width="48" height="48"/>
<linearGradient id="SVGID_43_" gradientUnits="userSpaceOnUse" x1="216" y1="336" x2="216" y2="288">
	<stop  offset="0" style="stop-color:#FFFFFF"/>
	<stop  offset="1" style="stop-color:#E6E6E6"/>
</linearGradient>
<rect x="192" y="288" fill="url(#SVGID_43_)" width="48" height="48"/>
<linearGradient id="SVGID_44_" gradientUnits="userSpaceOnUse" x1="264" y1="336" x2="264" y2="288">
	<stop  offset="0" style="stop-color:#FFFFFF"/>
	<stop  offset="1" style="stop-color:#E6E6E6"/>
</linearGradient>
<rect x="240" y="288" fill="url(#SVGID_44_)" width="48" height="48"/>
<linearGradient id="SVGID_45_" gradientUnits="userSpaceOnUse" x1="240" y1="264" x2="288" y2="264">
	<stop  offset="0" style="stop-color:#FFFFFF"/>
	<stop  offset="1" style="stop-color:#E6E6E6"/>
</linearGradient>
<rect x="240" y="240" fill="url(#SVGID_45_)" width="48" height="48"/>
<linearGradient id="SVGID_46_" gradientUnits="userSpaceOnUse" x1="288" y1="216.0005" x2="240" y2="216.0005">
	<stop  offset="0" style="stop-color:#FFFFFF"/>
	<stop  offset="1" style="stop-color:#E6E6E6"/>
</linearGradient>
<rect x="240" y="192" fill="url(#SVGID_46_)" width="48" height="48"/>
<linearGradient id="SVGID_47_" gradientUnits="userSpaceOnUse" x1="312" y1="240" x2="312" y2="192.0005">
	<stop  offset="0" style="stop-color:#FFFFFF"/>
	<stop  offset="1" style="stop-color:#E6E6E6"/>
</linearGradient>
<rect x="288" y="192" fill="url(#SVGID_47_)" width="48" height="48"/>
<linearGradient id="SVGID_48_" gradientUnits="userSpaceOnUse" x1="312" y1="240" x2="312" y2="288">
	<stop  offset="0" style="stop-color:#FFFFFF"/>
	<stop  offset="1" style="stop-color:#E6E6E6"/>
</linearGradient>
<rect x="288" y="240" fill="url(#SVGID_48_)" width="48" height="48"/>
<linearGradient id="SVGID_49_" gradientUnits="userSpaceOnUse" x1="288" y1="312" x2="336" y2="312">
	<stop  offset="0" style="stop-color:#FFFFFF"/>
	<stop  offset="1" style="stop-color:#E6E6E6"/>
</linearGradient>
<rect x="288" y="288" fill="url(#SVGID_49_)" width="48" height="48"/>
<linearGradient id="SVGID_50_" gradientUnits="userSpaceOnUse" x1="24" y1="384" x2="24" y2="336">
	<stop  offset="0" style="stop-color:#FFFFFF"/>
	<stop  offset="1" style="stop-color:#E6E6E6"/>
</linearGradient>
<rect y="336" fill="url(#SVGID_50_)" width="48" height="48"/>
<linearGradient id="SVGID_51_" gradientUnits="userSpaceOnUse" x1="72" y1="384" x2="72" y2="336">
	<stop  offset="0" style="stop-color:#FFFFFF"/>
	<stop  offset="1" style="stop-color:#E6E6E6"/>
</linearGradient>
<rect x="48" y="336" fill="url(#SVGID_51_)" width="48" height="48"/>
<linearGradient id="SVGID_52_" gradientUnits="userSpaceOnUse" x1="48.0005" y1="408" x2="0" y2="408">
	<stop  offset="0" style="stop-color:#FFFFFF"/>
	<stop  offset="1" style="stop-color:#E6E6E6"/>
</linearGradient>
<rect y="384" fill="url(#SVGID_52_)" width="48" height="48"/>
<linearGradient id="SVGID_53_" gradientUnits="userSpaceOnUse" x1="72" y1="432" x2="72" y2="384">
	<stop  offset="0" style="stop-color:#FFFFFF"/>
	<stop  offset="1" style="stop-color:#E6E6E6"/>
</linearGradient>
<rect x="48" y="384" fill="url(#SVGID_53_)" width="48" height="48"/>
<linearGradient id="SVGID_54_" gradientUnits="userSpaceOnUse" x1="96" y1="360" x2="144" y2="360">
	<stop  offset="0" style="stop-color:#FFFFFF"/>
	<stop  offset="1" style="stop-color:#E6E6E6"/>
</linearGradient>
<rect x="96" y="336" fill="url(#SVGID_54_)" width="48" height="48"/>
<linearGradient id="SVGID_55_" gradientUnits="userSpaceOnUse" x1="144" y1="360" x2="192" y2="360">
	<stop  offset="0" style="stop-color:#FFFFFF"/>
	<stop  offset="1" style="stop-color:#E6E6E6"/>
</linearGradient>
<rect x="144" y="336" fill="url(#SVGID_55_)" width="48" height="48"/>
<linearGradient id="SVGID_56_" gradientUnits="userSpaceOnUse" x1="216" y1="384" x2="216" y2="336">
	<stop  offset="0" style="stop-color:#FFFFFF"/>
	<stop  offset="1" style="stop-color:#E6E6E6"/>
</linearGradient>
<rect x="192" y="336" fill="url(#SVGID_56_)" width="48" height="48"/>
<linearGradient id="SVGID_57_" gradientUnits="userSpaceOnUse" x1="240" y1="408" x2="192" y2="408">
	<stop  offset="0" style="stop-color:#FFFFFF"/>
	<stop  offset="1" style="stop-color:#E6E6E6"/>
</linearGradient>
<rect x="192" y="384" fill="url(#SVGID_57_)" width="48" height="48"/>
<linearGradient id="SVGID_58_" gradientUnits="userSpaceOnUse" x1="264" y1="384" x2="264" y2="432">
	<stop  offset="0" style="stop-color:#FFFFFF"/>
	<stop  offset="1" style="stop-color:#E6E6E6"/>
</linearGradient>
<rect x="240" y="384" fill="url(#SVGID_58_)" width="48" height="48"/>
<linearGradient id="SVGID_59_" gradientUnits="userSpaceOnUse" x1="288" y1="360" x2="240" y2="360">
	<stop  offset="0" style="stop-color:#FFFFFF"/>
	<stop  offset="1" style="stop-color:#E6E6E6"/>
</linearGradient>
<rect x="240" y="336" fill="url(#SVGID_59_)" width="48" height="48"/>
<linearGradient id="SVGID_60_" gradientUnits="userSpaceOnUse" x1="167.9995" y1="384" x2="167.9995" y2="432">
	<stop  offset="0" style="stop-color:#FFFFFF"/>
	<stop  offset="1" style="stop-color:#E6E6E6"/>
</linearGradient>
<rect x="144" y="384" fill="url(#SVGID_60_)" width="48" height="48"/>
<linearGradient id="SVGID_61_" gradientUnits="userSpaceOnUse" x1="144.0005" y1="408" x2="96" y2="408">
	<stop  offset="0" style="stop-color:#FFFFFF"/>
	<stop  offset="1" style="stop-color:#E6E6E6"/>
</linearGradient>
<rect x="96" y="384" fill="url(#SVGID_61_)" width="48" height="48"/>
<linearGradient id="SVGID_62_" gradientUnits="userSpaceOnUse" x1="288" y1="408" x2="336" y2="408">
	<stop  offset="0" style="stop-color:#FFFFFF"/>
	<stop  offset="1" style="stop-color:#E6E6E6"/>
</linearGradient>
<rect x="288" y="384" fill="url(#SVGID_62_)" width="48" height="48"/>
<linearGradient id="SVGID_63_" gradientUnits="userSpaceOnUse" x1="312" y1="384" x2="312" y2="336">
	<stop  offset="0" style="stop-color:#FFFFFF"/>
	<stop  offset="1" style="stop-color:#E6E6E6"/>
</linearGradient>
<rect x="288" y="336" fill="url(#SVGID_63_)" width="48" height="48"/>
<g>
</g>
<g>
</g>
<g>
</g>
<g>
</g>
<g>
</g>
<g>
</g>
</svg>
