<?xml version="1.0" encoding="utf-8"?>
<!-- Generator: Adobe Illustrator 16.0.3, SVG Export Plug-In . SVG Version: 6.00 Build 0)  -->
<!DOCTYPE svg PUBLIC "-//W3C//DTD SVG 1.1//EN" "http://www.w3.org/Graphics/SVG/1.1/DTD/svg11.dtd">
<svg version="1.1" id="レイヤー_1" xmlns="http://www.w3.org/2000/svg" xmlns:xlink="http://www.w3.org/1999/xlink" x="0px"
	 y="0px" width="512px" height="512px" viewBox="0 0 512 512" enable-background="new 0 0 512 512" xml:space="preserve">
<polygon fill="#C9CACA" points="65.575,133.625 76.346,140.124 452.232,90.353 445.825,86.175 "/>
<polygon fill="#C9CACA" points="63.625,135.574 76.625,143.375 84.642,347.259 76.408,337.292 "/>
<polygon fill="#C9CACA" points="81.175,142.074 451.675,92.675 444.524,103.074 93.524,151.175 "/>
<polygon fill="#C9CACA" points="78.575,143.158 90.274,153.774 96.342,337.292 87.675,345.959 "/>
<polygon fill="#C9CACA" points="97.425,339.024 88.325,350.074 450.375,287.024 445.609,279.225 "/>
<polygon fill="#C9CACA" points="452.325,98.524 447.774,105.675 447.342,277.925 452.542,286.159 "/>
<polygon fill="#C9CACA" points="259.274,325.159 241.942,366.759 295.242,353.759 306.075,318.225 "/>
<polygon fill="#C9CACA" points="202.942,364.159 240.642,357.225 237.608,371.959 299.575,359.824 306.509,347.259 338.575,343.358 
	360.675,370.225 206.842,409.659 "/>
<polygon fill="#EFEFEF" points="225.909,147.059 322.976,133.191 322.542,296.559 227.642,312.592 "/>
<polygon fill="#EFEFEF" points="327.309,133.191 367.609,127.559 368.909,160.059 327.742,167.425 "/>
<polygon fill="#EFEFEF" points="327.742,173.059 368.042,166.125 368.042,175.225 327.742,183.458 "/>
<polygon fill="#EFEFEF" points="328.175,186.492 366.742,182.158 367.609,188.658 329.042,195.158 "/>
<polygon fill="#EFEFEF" points="368.042,192.992 329.475,201.225 329.475,208.158 368.475,205.992 "/>
<circle fill="#EFEFEF" cx="199.042" cy="176.092" r="20.8"/>
<polygon fill="#EFEFEF" points="180.842,218.992 221.142,212.059 221.142,221.158 180.842,229.393 "/>
<polygon fill="#EFEFEF" points="181.274,232.425 219.842,228.093 220.709,234.593 182.142,241.093 "/>
<circle fill="#FFFFFF" cx="243.458" cy="162.008" r="9.75"/>
<polygon fill="#FFFFFF" points="225.042,180.858 324.709,165.691 324.274,168.292 225.042,183.458 "/>
<circle fill="#FFFFFF" cx="245.192" cy="200.143" r="9.75"/>
<circle fill="#FFFFFF" cx="246.925" cy="240.875" r="9.75"/>
<circle fill="#FFFFFF" cx="247.359" cy="284.209" r="9.75"/>
<polygon fill="#FFFFFF" points="262.309,199.059 306.941,191.691 306.941,194.725 262.309,201.225 "/>
<polygon fill="#FFFFFF" points="284.625,200.899 306.075,197.649 306.725,200.25 285.274,203.175 "/>
<polygon fill="#FFFFFF" points="257.759,191.366 262.634,190.391 262.309,195.266 259.709,195.591 "/>
<polygon fill="#FFFFFF" points="265.559,190.175 266.209,194.074 269.026,193.425 268.809,189.524 "/>
<polygon fill="#FFFFFF" points="271.191,189.308 270.976,193.641 274.876,192.558 273.576,188.875 "/>
<polygon fill="#FFFFFF" points="276.176,188.875 279.859,187.574 280.076,191.475 277.691,192.125 "/>
<polygon fill="#FFFFFF" points="263.394,240.225 308.024,232.858 308.024,235.891 263.394,242.391 "/>
<polygon fill="#FFFFFF" points="262.959,244.883 284.409,241.633 285.059,244.232 263.609,247.157 "/>
<polygon fill="#FFFFFF" points="277.478,229.5 282.353,228.524 282.027,233.399 279.428,233.725 "/>
<polygon fill="#FFFFFF" points="266.644,231.341 267.293,235.241 270.109,234.591 269.894,230.691 "/>
<polygon fill="#FFFFFF" points="261.875,232.641 261.659,236.974 265.559,235.891 264.259,232.208 "/>
<polygon fill="#FFFFFF" points="263.822,251.102 294.157,246.725 294.157,249.542 264.728,253.382 "/>
<polygon fill="#FFFFFF" points="263.825,285.508 308.459,278.141 308.459,281.175 263.825,287.675 "/>
<polygon fill="#FFFFFF" points="279.641,288 301.091,284.75 301.74,287.35 280.291,290.274 "/>
<polygon fill="#FFFFFF" points="259.274,277.815 264.149,276.841 263.825,281.716 261.225,282.04 "/>
<polygon fill="#FFFFFF" points="267.075,276.625 267.725,280.524 270.543,279.875 270.325,275.975 "/>
<polygon fill="#FFFFFF" points="272.709,275.756 272.493,280.091 276.394,279.006 275.093,275.324 "/>
<circle fill="#EFEFEF" cx="335.812" cy="227.387" r="6.337"/>
<polygon fill="#EFEFEF" points="341.5,267.85 330.45,269.149 330.45,258.425 341.5,257.125 "/>
<polygon fill="#EFEFEF" points="329.084,251.274 335.975,238.925 341.5,249.649 "/>
<g>
</g>
<g>
</g>
<g>
</g>
<g>
</g>
<g>
</g>
<g>
</g>
</svg>
