<?xml version="1.0" encoding="utf-8"?>
<!-- Generator: Adobe Illustrator 16.0.3, SVG Export Plug-In . SVG Version: 6.00 Build 0)  -->
<!DOCTYPE svg PUBLIC "-//W3C//DTD SVG 1.1//EN" "http://www.w3.org/Graphics/SVG/1.1/DTD/svg11.dtd">
<svg version="1.1" id="レイヤー_1" xmlns="http://www.w3.org/2000/svg" xmlns:xlink="http://www.w3.org/1999/xlink" x="0px"
	 y="0px" width="502px" height="391px" viewBox="0 0 502 391" enable-background="new 0 0 502 391" xml:space="preserve">
<polygon fill="#C9CACA" points="55.575,84.625 66.346,91.124 442.232,41.353 435.825,37.175 "/>
<polygon fill="#C9CACA" points="53.625,86.574 66.625,94.375 74.642,298.259 66.408,288.292 "/>
<polygon fill="#C9CACA" points="71.175,93.074 441.675,43.675 434.524,54.074 83.524,102.175 "/>
<polygon fill="#C9CACA" points="68.575,94.158 80.274,104.774 86.342,288.292 77.675,296.959 "/>
<polygon fill="#C9CACA" points="87.425,290.024 78.325,301.074 440.375,238.024 435.609,230.225 "/>
<polygon fill="#C9CACA" points="442.325,49.524 437.774,56.675 437.342,228.925 442.542,237.159 "/>
<polygon fill="#C9CACA" points="249.274,276.159 231.942,317.759 285.242,304.759 296.075,269.225 "/>
<polygon fill="#C9CACA" points="192.942,315.159 230.642,308.225 227.608,322.959 289.575,310.824 296.509,298.259 328.575,294.358 
	350.675,321.225 196.842,360.659 "/>
<polygon fill="#EFEFEF" points="215.909,98.059 312.976,84.191 312.542,247.559 217.642,263.592 "/>
<polygon fill="#EFEFEF" points="317.309,84.191 357.609,78.559 358.909,111.059 317.742,118.425 "/>
<polygon fill="#EFEFEF" points="317.742,124.059 358.042,117.125 358.042,126.225 317.742,134.458 "/>
<polygon fill="#EFEFEF" points="318.175,137.492 356.742,133.158 357.609,139.658 319.042,146.158 "/>
<polygon fill="#EFEFEF" points="358.042,143.992 319.475,152.225 319.475,159.158 358.475,156.992 "/>
<circle fill="#EFEFEF" cx="189.042" cy="127.092" r="20.8"/>
<polygon fill="#EFEFEF" points="170.842,169.992 211.142,163.059 211.142,172.158 170.842,180.393 "/>
<polygon fill="#EFEFEF" points="171.274,183.425 209.842,179.093 210.709,185.593 172.142,192.093 "/>
<circle fill="#FFFFFF" cx="233.458" cy="113.008" r="9.75"/>
<polygon fill="#FFFFFF" points="215.042,131.858 314.709,116.691 314.274,119.292 215.042,134.458 "/>
<circle fill="#FFFFFF" cx="235.192" cy="151.143" r="9.75"/>
<circle fill="#FFFFFF" cx="236.925" cy="191.875" r="9.75"/>
<circle fill="#FFFFFF" cx="237.359" cy="235.209" r="9.75"/>
<polygon fill="#FFFFFF" points="252.309,150.059 296.941,142.691 296.941,145.725 252.309,152.225 "/>
<polygon fill="#FFFFFF" points="274.625,151.899 296.075,148.649 296.725,151.25 275.274,154.175 "/>
<polygon fill="#FFFFFF" points="247.759,142.366 252.634,141.391 252.309,146.266 249.709,146.591 "/>
<polygon fill="#FFFFFF" points="255.559,141.175 256.209,145.074 259.026,144.425 258.809,140.524 "/>
<polygon fill="#FFFFFF" points="261.191,140.308 260.976,144.641 264.876,143.558 263.576,139.875 "/>
<polygon fill="#FFFFFF" points="266.176,139.875 269.859,138.574 270.076,142.475 267.691,143.125 "/>
<polygon fill="#FFFFFF" points="253.394,191.225 298.024,183.858 298.024,186.891 253.394,193.391 "/>
<polygon fill="#FFFFFF" points="252.959,195.883 274.409,192.633 275.059,195.232 253.609,198.157 "/>
<polygon fill="#FFFFFF" points="267.478,180.5 272.353,179.524 272.027,184.399 269.428,184.725 "/>
<polygon fill="#FFFFFF" points="256.644,182.341 257.293,186.241 260.109,185.591 259.894,181.691 "/>
<polygon fill="#FFFFFF" points="251.875,183.641 251.659,187.974 255.559,186.891 254.259,183.208 "/>
<polygon fill="#FFFFFF" points="253.822,202.102 284.157,197.725 284.157,200.542 254.728,204.382 "/>
<polygon fill="#FFFFFF" points="253.825,236.508 298.459,229.141 298.459,232.175 253.825,238.675 "/>
<polygon fill="#FFFFFF" points="269.641,239 291.091,235.75 291.74,238.35 270.291,241.274 "/>
<polygon fill="#FFFFFF" points="249.274,228.815 254.149,227.841 253.825,232.716 251.225,233.04 "/>
<polygon fill="#FFFFFF" points="257.075,227.625 257.725,231.524 260.543,230.875 260.325,226.975 "/>
<polygon fill="#FFFFFF" points="262.709,226.756 262.493,231.091 266.394,230.006 265.093,226.324 "/>
<circle fill="#EFEFEF" cx="325.812" cy="178.387" r="6.337"/>
<polygon fill="#EFEFEF" points="331.5,218.85 320.45,220.149 320.45,209.425 331.5,208.125 "/>
<polygon fill="#EFEFEF" points="319.084,202.274 325.975,189.925 331.5,200.649 "/>
<g>
</g>
<g>
</g>
<g>
</g>
<g>
</g>
<g>
</g>
<g>
</g>
</svg>
