<?xml version="1.0" encoding="utf-8"?>
<!-- Generator: Adobe Illustrator 16.0.3, SVG Export Plug-In . SVG Version: 6.00 Build 0)  -->
<!DOCTYPE svg PUBLIC "-//W3C//DTD SVG 1.1//EN" "http://www.w3.org/Graphics/SVG/1.1/DTD/svg11.dtd">
<svg version="1.1" xmlns="http://www.w3.org/2000/svg" xmlns:xlink="http://www.w3.org/1999/xlink" x="0px" y="0px" width="512px"
	 height="64px" viewBox="0 0 512 64" enable-background="new 0 0 512 64" xml:space="preserve">
<g id="レイヤー_1" display="none">
	<rect display="inline" fill="#E6207D" width="512" height="64"/>
</g>
<g id="レイヤー_2" opacity="0.3">
	<g>
		<path fill-rule="evenodd" clip-rule="evenodd" fill="#FFFFFF" d="M49.909,50.975c-0.405-0.853-0.661-1.379-0.661-1.379
			l-5.601-13.648c2.516-0.686,7.989-0.821,9.29,5.744C53.258,43.308,53.896,48.068,49.909,50.975z M45.147,52.912
			c-3.692,0.731-12.89-0.199-14.656-9.111c-0.812-4.093,0.837-10.091,4.813-15.72c0.626-0.912,1.463-1.998,2.366-3.255
			c0.415,1.01,1.51,3.698,2.794,6.839c-3.147,1.854-5.554,6.637-4.799,10.444c0.892,4.496,3.857,6.829,7.741,7.061
			c0,0-9.302-5.754-0.974-12.657c1.773,4.368,3.418,8.452,3.74,9.356c0.316,0.88,1.392,3.315,2.537,5.844
			C47.738,52.221,46.562,52.63,45.147,52.912z M33.478,7.362c-0.748-3.774,1.908-8.332,3.516-8.65
			c3.051-0.604,3.285,3.52,3.601,5.961c1.273,6.421-3.163,9.303-4.789,12.044C34.688,13.603,33.972,10.267,33.478,7.362z
			 M55.812,40.619c-1.543-7.787-5.406-11.275-13.595-9.653c-0.184,0.036-0.367,0.096-0.549,0.153l-3.105-7.575
			c2.993-4.43,6.155-10.695,4.519-18.95C42.095-0.381,37.887-8.558,34.918-7.97l-0.451,0.256c0,0-5.031,5.336-3.329,13.928
			c1.002,5.057,2.661,10.483,3.462,11.996c-2.898,4.328-9.911,11.894-7.381,24.656c1.129,5.701,5.827,9.19,8.729,10.369
			c2.905,1.176,6.001,2.063,9.532,1.363c0.991-0.197,2.361-0.77,3.78-1.663c1.408,3.082,2.747,5.962,2.747,5.962
			c0.831,2.087,3.992,11.305-3.394,12.768c-2.328,0.461-4.594,1.245-5.12-1.403c1.399-0.11,4.242-2.176,3.685-4.987
			c-0.493-2.485-1.647-4.093-5.178-3.394c-2.328,0.461-3.955,4.035-3.509,6.285c0.478,2.408,3.44,6.41,9.458,5.218
			c3.456-0.685,8.128-3.614,6.711-10.76c-0.715-2.781-2.848-7.574-4.216-10.507C53.719,49.671,56.803,45.622,55.812,40.619z"/>
	</g>
	<g>
		<line opacity="0.3" fill="none" stroke="#FFFFFF" stroke-miterlimit="10" x1="64.284" y1="26.894" x2="538.363" y2="8.806"/>
		<line opacity="0.3" fill="none" stroke="#FFFFFF" stroke-miterlimit="10" x1="64.619" y1="35.675" x2="538.699" y2="17.585"/>
		<line opacity="0.3" fill="none" stroke="#FFFFFF" stroke-miterlimit="10" x1="64.954" y1="44.453" x2="539.033" y2="26.363"/>
		<line opacity="0.3" fill="none" stroke="#FFFFFF" stroke-miterlimit="10" x1="65.289" y1="53.232" x2="539.369" y2="35.143"/>
		<line opacity="0.3" fill="none" stroke="#FFFFFF" stroke-miterlimit="10" x1="65.624" y1="62.012" x2="539.703" y2="43.922"/>
		<g>
			<path fill-rule="evenodd" clip-rule="evenodd" fill="#FFFFFF" d="M97.026,27.126c0.855,1.631,1.723,2.582,4.024,4.422
				c4.057,3.249,4.643,3.756,5.916,5.483c1.156,1.543,1.78,3.033,1.835,4.467c0.063,1.662-0.621,3.578-1.876,5.327
				c-0.897,1.28-1.991,2.307-4.011,3.895l-0.593-0.695c0.215-0.272,0.398-0.469,0.507-0.585c2.103-2.311,2.537-2.858,3.062-3.975
				c0.597-1.232,0.82-2.261,0.779-3.356c-0.096-2.49-2.644-4.889-8.631-8.177l0.745,19.517c0.083,2.19,0.057,2.418-0.435,3.418
				c-1.085,2.272-3.777,4.041-6.383,4.141c-1.472,0.056-2.621-0.316-3.33-1.12c-0.63-0.62-1.005-1.552-1.038-2.419
				c-0.064-1.661,0.934-3.249,2.708-4.301c0.999-0.566,2.419-1.039,3.286-1.072c0.566-0.021,1.325,0.028,2.16,0.147
				c0.533,0.055,0.684,0.087,1.263,0.367l-0.971-25.445L97.026,27.126z"/>
		</g>
		<g>
			<path fill-rule="evenodd" clip-rule="evenodd" fill="#FFFFFF" d="M135.316,27.405l0.129,3.391l23.334-6.727l-0.129-3.393
				L135.316,27.405z M158.997,29.755l-23.334,6.73l0.607,15.911c-0.116,3.161-0.504,4.276-2.074,5.82
				c-1.661,1.597-3.776,2.584-5.737,2.658c-1.72,0.066-3.075-0.359-3.923-1.237c-0.65-0.739-1.121-1.822-1.16-2.827
				c-0.082-2.149,1.467-4.171,4.056-5.321c1.035-0.471,1.984-0.698,2.891-0.733c1.481-0.056,2.828,0.131,3.801,0.525l-1.108-29.054
				l27.504-7.797l1.153,30.201c0.091,2.389-0.649,4.333-2.171,5.874c-1.658,1.594-3.777,2.584-5.831,2.662
				c-1.72,0.065-3.028-0.363-3.875-1.24c-0.652-0.741-1.123-1.823-1.161-2.824c-0.071-1.867,1.103-3.681,3.117-4.858
				c1.077-0.615,2.776-1.207,3.684-1.242c1.481-0.057,2.924,0.128,4.088,0.563L158.997,29.755z"/>
		</g>
		<g>
			<path fill-rule="evenodd" clip-rule="evenodd" fill="#FFFFFF" d="M195.638,13.091l1.509,39.559
				c0.104,2.722-0.03,3.636-0.658,5.078c-1.512,3.406-5.61,6.117-9.521,6.266c-3.74,0.144-6.49-2.023-6.616-5.309
				c-0.157-4.14,4.297-7.886,9.625-8.089c1.813-0.07,3.01,0.112,4.513,0.794l-1.458-38.2L195.638,13.091z"/>
		</g>
		<g>
			<path fill-rule="evenodd" clip-rule="evenodd" fill="#FFFFFF" d="M231.274,51.167c0.049,1.271-0.24,3.067-0.61,3.998
				c-1.075,2.587-4.704,4.917-7.707,5.03c-1.831,0.07-3.276-0.383-4.175-1.316c-0.696-0.788-1.2-1.94-1.241-3.011
				c-0.087-2.287,1.566-4.439,4.323-5.667c1.099-0.5,2.112-0.742,3.076-0.778c1.577-0.061,3.012,0.14,4.048,0.56l-1.181-30.934
				l29.284-8.303l1.228,32.155c0.097,2.544-0.69,4.614-2.31,6.254c-1.769,1.698-4.021,2.752-6.209,2.835
				c-1.83,0.069-3.223-0.388-4.128-1.32c-0.689-0.788-1.192-1.941-1.233-3.01c-0.075-1.985,1.175-3.917,3.32-5.171
				c1.145-0.655,2.954-1.283,3.923-1.32c1.577-0.062,3.113,0.135,4.353,0.597l-0.861-22.588l-24.845,7.214L231.274,51.167z"/>
		</g>
		<g>
			<path fill-rule="evenodd" clip-rule="evenodd" fill="#FFFFFF" d="M295.968,18.054c1.079,2.057,2.173,3.256,5.073,5.576
				c5.114,4.095,5.854,4.735,7.46,6.913c1.459,1.946,2.244,3.826,2.313,5.633c0.081,2.097-0.783,4.513-2.365,6.718
				c-1.131,1.615-2.51,2.91-5.057,4.911l-0.748-0.878c0.272-0.344,0.501-0.59,0.64-0.734c2.649-2.916,3.198-3.607,3.86-5.014
				c0.753-1.555,1.035-2.851,0.982-4.232c-0.119-3.141-3.335-6.165-10.884-10.31l0.939,24.61c0.105,2.763,0.071,3.049-0.549,4.31
				c-1.368,2.868-4.763,5.096-8.05,5.222c-1.856,0.071-3.303-0.399-4.2-1.413c-0.792-0.78-1.266-1.957-1.309-3.051
				c-0.079-2.094,1.179-4.096,3.415-5.423c1.262-0.713,3.051-1.309,4.144-1.351c0.717-0.027,1.672,0.033,2.727,0.185
				c0.67,0.071,0.859,0.109,1.591,0.462l-1.225-32.085L295.968,18.054z"/>
		</g>
		<g>
			<path fill-rule="evenodd" clip-rule="evenodd" fill="#FFFFFF" d="M336.776,25.29l0.779,20.431
				c0.053,1.405-0.017,1.877-0.34,2.622c-0.782,1.759-2.896,3.158-4.919,3.235c-1.93,0.073-3.351-1.045-3.414-2.742
				c-0.082-2.136,2.218-4.071,4.97-4.177c0.936-0.036,1.556,0.059,2.331,0.41l-0.752-19.729L336.776,25.29z"/>
		</g>
		<g>
			<path fill-rule="evenodd" clip-rule="evenodd" fill="#FFFFFF" d="M359.717,30.435l5.271-0.968l-0.266-6.929l-5.271,0.944
				L359.717,30.435z M358.239,16.904l0.959-0.037l0.191,5.01l5.271-0.969l-0.209-5.466l1.006-0.039l0.203,5.322l4.171-0.759
				l0.062,1.606l-4.171,0.758l0.264,6.953l4.173-0.761l0.062,1.607l-4.172,0.758l0.197,5.18l-1.006,0.039l-0.19-5.011l-5.272,0.97
				l0.208,5.417l-0.959,0.036l-0.202-5.297l-4.17,0.783l-0.062-1.631l4.17-0.759l-0.266-6.952l-4.169,0.784l-0.063-1.63l4.171-0.76
				L358.239,16.904z"/>
		</g>
		<g>
			<path fill-rule="evenodd" clip-rule="evenodd" fill="#FFFFFF" d="M376.573,14.979c0.958,1.825,1.927,2.889,4.501,4.947
				c4.54,3.633,5.195,4.203,6.621,6.135c1.294,1.728,1.991,3.396,2.053,4.999c0.07,1.859-0.696,4.004-2.1,5.959
				c-1.004,1.434-2.227,2.582-4.486,4.358l-0.665-0.779c0.242-0.304,0.444-0.522,0.568-0.652c2.351-2.584,2.838-3.199,3.425-4.446
				c0.669-1.38,0.919-2.53,0.873-3.757c-0.107-2.787-2.96-5.47-9.657-9.148l0.832,21.837c0.094,2.451,0.063,2.706-0.487,3.823
				c-1.215,2.544-4.227,4.522-7.142,4.633c-1.646,0.063-2.933-0.353-3.727-1.253c-0.705-0.695-1.124-1.736-1.161-2.706
				c-0.071-1.86,1.045-3.635,3.029-4.813c1.119-0.633,2.706-1.16,3.676-1.198c0.637-0.024,1.484,0.031,2.42,0.164
				c0.594,0.062,0.764,0.096,1.412,0.411l-1.087-28.471L376.573,14.979z"/>
		</g>
		<g>
			<path fill-rule="evenodd" clip-rule="evenodd" fill="#FFFFFF" d="M178.913,29.351c4.672-4.327,6.142-6.522,6.051-8.911
				c-0.05-1.322-1.083-2.326-2.354-2.278c-0.382,0.015-0.785,0.132-1.211,0.299c-1.251,0.558-1.891,1.168-2.798,2.73L178.913,29.351
				z M178.126,8.76l0.414,10.83c0.999-1.185,1.589-1.715,2.311-2.125c0.775-0.412,1.58-0.646,2.342-0.676
				c2.239-0.085,3.844,1.331,3.926,3.466c0.068,1.779-0.491,3.125-2.076,4.969c-0.999,1.157-2.575,2.592-4.156,3.823
				c-1.385,1.071-1.752,1.444-2.331,2.279l-0.738,0.029l-0.86-22.55L178.126,8.76z"/>
		</g>
		<g>
			<path fill-rule="evenodd" clip-rule="evenodd" fill="#FFFFFF" d="M411.06,16.883l0.13,3.391l23.336-6.727l-0.13-3.393
				L411.06,16.883z M434.742,19.234l-23.335,6.729l0.608,15.912c-0.117,3.162-0.505,4.277-2.075,5.82
				c-1.661,1.597-3.774,2.583-5.736,2.659c-1.722,0.066-3.076-0.361-3.923-1.237c-0.651-0.74-1.121-1.823-1.16-2.828
				c-0.081-2.147,1.465-4.17,4.056-5.322c1.037-0.47,1.983-0.696,2.891-0.731c1.481-0.056,2.829,0.13,3.802,0.525l-1.109-29.054
				l27.505-7.797l1.153,30.2c0.092,2.39-0.649,4.333-2.171,5.874c-1.659,1.596-3.775,2.586-5.832,2.663
				c-1.719,0.067-3.028-0.363-3.873-1.24c-0.652-0.741-1.123-1.823-1.16-2.825c-0.071-1.866,1.103-3.68,3.115-4.857
				c1.078-0.615,2.776-1.206,3.686-1.243c1.48-0.057,2.924,0.128,4.087,0.563L434.742,19.234z"/>
		</g>
		<g>
			<path fill-rule="evenodd" clip-rule="evenodd" fill="#FFFFFF" d="M462.392,11.704l1.05,27.509
				c0.072,1.894-0.021,2.528-0.457,3.531c-1.051,2.369-3.9,4.254-6.621,4.357c-2.601,0.1-4.513-1.406-4.6-3.693
				c-0.11-2.876,2.986-5.481,6.693-5.623c1.26-0.048,2.095,0.079,3.139,0.552l-1.014-26.564L462.392,11.704z"/>
		</g>
		<g>
			<path fill-rule="evenodd" clip-rule="evenodd" fill="#FFFFFF" d="M493.964,19.292c0.734,1.399,1.478,2.215,3.451,3.792
				c3.481,2.787,3.984,3.223,5.077,4.705c0.991,1.325,1.527,2.603,1.574,3.833c0.054,1.425-0.533,3.068-1.61,4.568
				c-0.771,1.1-1.708,1.98-3.439,3.342l-0.511-0.597c0.186-0.233,0.342-0.402,0.437-0.501c1.803-1.981,2.176-2.453,2.627-3.41
				c0.513-1.058,0.703-1.94,0.667-2.879c-0.081-2.138-2.269-4.195-7.404-7.015l0.639,16.742c0.071,1.881,0.05,2.076-0.372,2.933
				c-0.932,1.951-3.242,3.468-5.478,3.553c-1.262,0.049-2.247-0.271-2.856-0.961c-0.54-0.531-0.862-1.332-0.892-2.074
				c-0.054-1.426,0.802-2.787,2.323-3.691c0.858-0.484,2.075-0.891,2.82-0.918c0.486-0.019,1.137,0.023,1.854,0.125
				c0.456,0.048,0.585,0.073,1.083,0.315l-0.834-21.831L493.964,19.292z"/>
		</g>
	</g>
	<g>
	</g>
	<g>
	</g>
	<g>
	</g>
	<g>
	</g>
	<g>
	</g>
	<g>
	</g>
</g>
</svg>
