<?xml version="1.0" encoding="utf-8"?>
<!-- Generator: Adobe Illustrator 16.0.3, SVG Export Plug-In . SVG Version: 6.00 Build 0)  -->
<!DOCTYPE svg PUBLIC "-//W3C//DTD SVG 1.1//EN" "http://www.w3.org/Graphics/SVG/1.1/DTD/svg11.dtd">
<svg version="1.1" id="レイヤー_1" xmlns="http://www.w3.org/2000/svg" xmlns:xlink="http://www.w3.org/1999/xlink" x="0px"
	 y="0px" width="326px" height="88px" viewBox="0 0 326 88" enable-background="new 0 0 326 88" xml:space="preserve">
<g>
	<path fill="#B5B5B6" d="M107.104,13c1.654,0,3-1.346,3-3s-1.346-3-3-3s-3,1.346-3,3S105.449,13,107.104,13z M107.104,9
		c0.551,0,1,0.449,1,1s-0.449,1-1,1s-1-0.449-1-1S106.552,9,107.104,9z"/>
	<path fill="#B5B5B6" d="M315,49c-1.654,0-3,1.346-3,3c0,0.489,0.129,0.944,0.337,1.353l-13.233,13.233L283.604,51h-32.086l-15-15
		l14.586-14.586L264.689,35h-13.586v2h18.414l-18.414-18.414L233.689,36l15,15h-29.172l-15-15l15.293-15.293l-1.414-1.414
		l-14.293,14.293V4h-2v47h-44.586l30.293-30.293l-1.414-1.414L154.689,51h-29.172l30.293-30.293l-1.414-1.414L122.689,51h-14.586V20
		h-2v31h-30V17.586l-32,32v-32L12.353,49.337C11.944,49.129,11.489,49,11,49c-1.654,0-3,1.346-3,3s1.346,3,3,3s3-1.346,3-3
		c0-0.435-0.097-0.845-0.264-1.218l28.368-28.368v32l32-32V53h78.586l-30.293,30.293l1.414,1.414L155.518,53h29.172l-30.293,30.293
		l1.414,1.414L187.518,53h16.586V38.414L218.689,53h64l15,15l-15.293,15.293l1.414,1.414l29.971-29.971
		C314.155,54.902,314.565,55,315,55c1.654,0,3-1.346,3-3S316.654,49,315,49z"/>
</g>
<g>
</g>
<g>
</g>
<g>
</g>
<g>
</g>
<g>
</g>
<g>
</g>
</svg>
