<?xml version="1.0" encoding="utf-8"?>
<!-- Generator: Adobe Illustrator 16.0.3, SVG Export Plug-In . SVG Version: 6.00 Build 0)  -->
<!DOCTYPE svg PUBLIC "-//W3C//DTD SVG 1.1//EN" "http://www.w3.org/Graphics/SVG/1.1/DTD/svg11.dtd">
<svg version="1.1" id="レイヤー_1" opacity="0.5"
	 xmlns="http://www.w3.org/2000/svg" xmlns:xlink="http://www.w3.org/1999/xlink" x="0px" y="0px" width="310px" height="80px"
	 viewBox="0 0 310 80" enable-background="new 0 0 310 80" xml:space="preserve">
<g>
	<path fill="#FFFFFF" d="M99.104,9c1.654,0,3-1.346,3-3s-1.346-3-3-3s-3,1.346-3,3S97.449,9,99.104,9z M99.104,5
		c0.551,0,1,0.449,1,1s-0.449,1-1,1s-1-0.449-1-1S98.552,5,99.104,5z"/>
	<path fill="#FFFFFF" d="M307,45c-1.654,0-3,1.346-3,3c0,0.488,0.129,0.943,0.337,1.354l-13.233,13.232L275.604,47h-32.086l-15-15
		l14.586-14.586L256.689,31h-13.586v2h18.414l-18.414-18.414L225.689,32l15,15h-29.172l-15-15l15.293-15.293l-1.414-1.414
		l-14.293,14.293V0h-2v47h-44.586l30.293-30.293l-1.414-1.414L146.689,47h-29.172l30.293-30.293l-1.414-1.414L114.689,47h-14.586V16
		h-2v31h-30V13.586l-32,32v-32L4.353,45.337C3.944,45.129,3.489,45,3,45c-1.654,0-3,1.346-3,3s1.346,3,3,3s3-1.346,3-3
		c0-0.436-0.097-0.846-0.264-1.219l28.368-28.367v32l32-32V49h78.586l-30.293,30.293l1.414,1.414L147.518,49h29.171l-30.292,30.293
		l1.414,1.414L179.518,49h16.586V34.414L210.689,49h64l15,15l-15.293,15.293l1.414,1.414l29.971-29.971
		C306.155,50.902,306.564,51,307,51c1.654,0,3-1.346,3-3S308.654,45,307,45z"/>
</g>
</svg>
