<?xml version="1.0" encoding="utf-8"?>
<!-- Generator: Adobe Illustrator 16.0.3, SVG Export Plug-In . SVG Version: 6.00 Build 0)  -->
<!DOCTYPE svg PUBLIC "-//W3C//DTD SVG 1.1//EN" "http://www.w3.org/Graphics/SVG/1.1/DTD/svg11.dtd">
<svg version="1.1" id="レイヤー_2" xmlns="http://www.w3.org/2000/svg" xmlns:xlink="http://www.w3.org/1999/xlink" x="0px"
	 y="0px" width="1024px" height="1024px" viewBox="0 0 1024 1024" enable-background="new 0 0 1024 1024" xml:space="preserve">
<g opacity="0.1">
	<path d="M512,64c-32.209,0-63.621,3.406-93.903,9.865c4.612-0.176,9.247-0.265,13.903-0.265c197.939,0,358.4,160.461,358.4,358.4
		c0,197.939-160.461,358.4-358.4,358.4C234.061,790.4,73.6,629.939,73.6,432c0-4.656,0.089-9.291,0.265-13.903
		C67.406,448.379,64,479.791,64,512c0,247.424,200.576,448,448,448s448-200.576,448-448S759.424,64,512,64z"/>
</g>
<g>
</g>
<g>
</g>
<g>
</g>
<g>
</g>
<g>
</g>
<g>
</g>
</svg>
