<?xml version="1.0" encoding="utf-8"?>
<!-- Generator: Adobe Illustrator 16.0.3, SVG Export Plug-In . SVG Version: 6.00 Build 0)  -->
<!DOCTYPE svg PUBLIC "-//W3C//DTD SVG 1.1//EN" "http://www.w3.org/Graphics/SVG/1.1/DTD/svg11.dtd">
<svg version="1.1" id="レイヤー_1" xmlns="http://www.w3.org/2000/svg" xmlns:xlink="http://www.w3.org/1999/xlink" x="0px"
	 y="0px" width="336px" height="80px" viewBox="0 0 336 80" enable-background="new 0 0 336 80" xml:space="preserve">
<polyline opacity="0.5" fill="none" stroke="#000000" stroke-width="2" stroke-miterlimit="10" points="176,16 144,48 176,48 
	144,80 "/>
<polyline opacity="0.5" fill="none" stroke="#000000" stroke-width="2" stroke-miterlimit="10" points="208,16 176,48 208,48 
	176,80 "/>
<polyline opacity="0.5" fill="none" stroke="#000000" stroke-width="2" stroke-miterlimit="10" points="208,48 224,48 224,0 "/>
<polyline opacity="0.5" fill="none" stroke="#000000" stroke-width="2" stroke-miterlimit="10" points="240,16 224,32 240,48 
	272,48 256,32 272,16 288,32 272,32 "/>
<polyline opacity="0.5" fill="none" stroke="#000000" stroke-width="2" stroke-miterlimit="10" points="304,48 320,64 304,80 "/>
<line opacity="0.5" fill="none" stroke="#000000" stroke-width="2" stroke-miterlimit="10" x1="336" y1="48" x2="320" y2="64"/>
<line opacity="0.5" fill="none" stroke="#000000" stroke-width="2" stroke-miterlimit="10" x1="128" y1="48" x2="144" y2="48"/>
<line opacity="0.5" fill="none" stroke="#000000" stroke-width="2" stroke-miterlimit="10" x1="272" y1="48" x2="304" y2="48"/>
<circle opacity="0.5" fill="none" stroke="#000000" stroke-width="2" stroke-miterlimit="10" cx="128" cy="6" r="2"/>
<polyline opacity="0.5" fill="none" stroke="#000000" stroke-width="2" stroke-miterlimit="10" points="0,32 16,48 32,48 64,16 
	64,48 96,16 96,48 128,48 128,16 "/>
<g>
</g>
<g>
</g>
<g>
</g>
<g>
</g>
<g>
</g>
<g>
</g>
</svg>
