<?xml version="1.0" encoding="utf-8"?>
<!-- Generator: Adobe Illustrator 16.0.3, SVG Export Plug-In . SVG Version: 6.00 Build 0)  -->
<!DOCTYPE svg PUBLIC "-//W3C//DTD SVG 1.1//EN" "http://www.w3.org/Graphics/SVG/1.1/DTD/svg11.dtd">
<svg version="1.1" id="レイヤー_1" opacity="0.2"
	 xmlns="http://www.w3.org/2000/svg" xmlns:xlink="http://www.w3.org/1999/xlink" x="0px" y="0px" width="336px" height="80px"
	 viewBox="0 0 336 80" enable-background="new 0 0 336 80" xml:space="preserve">
<g>
	<polygon points="173.586,49 143.293,79.293 144.707,80.707 176.414,49 205.586,49 175.293,79.293 176.707,80.707 208.414,49 
		225,49 225,34.414 239.586,49 303.586,49 318.586,64 303.293,79.293 304.707,80.707 336.707,48.707 335.293,47.293 320,62.586 
		304.5,47 272.414,47 257.414,32 272,17.414 285.586,31 272,31 272,33 290.414,33 272,14.586 254.586,32 269.586,47 240.414,47 
		225.414,32 240.707,16.707 239.293,15.293 225,29.586 225,0 223,0 223,47 178.414,47 208.707,16.707 207.293,15.293 175.586,47 
		146.414,47 176.707,16.707 175.293,15.293 143.586,47 129,47 129,16 127,16 127,47 97,47 97,13.586 65,45.586 65,13.586 31.586,47 
		16.414,47 0.707,31.293 -0.707,32.707 15.586,49 32.414,49 63,18.414 63,50.414 95,18.414 95,49 	"/>
	<path d="M128,9c1.654,0,3-1.346,3-3s-1.346-3-3-3s-3,1.346-3,3S126.346,9,128,9z M128,5c0.551,0,1,0.449,1,1s-0.449,1-1,1
		s-1-0.449-1-1S127.449,5,128,5z"/>
</g>
<g>
</g>
<g>
</g>
<g>
</g>
<g>
</g>
<g>
</g>
<g>
</g>
</svg>
