# Blender v2.75 (sub 0) OBJ File: 'room.blend'
# www.blender.org
mtllib room.mtl
o Nob_立方体.003
v -2.600000 0.680000 0.700000
v -2.600000 0.700000 0.700000
v -2.600000 0.680000 0.540000
v -2.600000 0.700000 0.540000
v -2.560000 0.680000 0.700000
v -2.560000 0.700000 0.700000
v -2.560000 0.680000 0.540000
v -2.560000 0.700000 0.540000
vn -1.000000 0.000000 0.000000
vn 0.000000 0.000000 -1.000000
vn 1.000000 0.000000 0.000000
vn 0.000000 0.000000 1.000000
vn 0.000000 -1.000000 0.000000
vn 0.000000 1.000000 0.000000
usemtl Nob
s off
f 4//1 3//1 1//1
f 8//2 7//2 3//2
f 6//3 5//3 7//3
f 2//4 1//4 5//4
f 3//5 7//5 5//5
f 8//6 4//6 2//6
f 2//1 4//1 1//1
f 4//2 8//2 3//2
f 8//3 6//3 7//3
f 6//4 2//4 5//4
f 1//5 3//5 5//5
f 6//6 8//6 2//6
o Door_立方体.002
v -2.750000 0.000000 0.800000
v -2.750000 1.400000 0.800000
v -2.750000 0.000000 0.000000
v -2.750000 1.400000 0.000000
v -2.600000 0.000000 0.800000
v -2.600000 1.400000 0.800000
v -2.600000 0.000000 0.000000
v -2.600000 1.400000 0.000000
vn -1.000000 0.000000 0.000000
vn 0.000000 0.000000 -1.000000
vn 1.000000 0.000000 0.000000
vn 0.000000 0.000000 1.000000
vn 0.000000 -1.000000 0.000000
vn 0.000000 1.000000 0.000000
usemtl Door
s off
f 12//7 11//7 9//7
f 16//8 15//8 11//8
f 14//9 13//9 15//9
f 10//10 9//10 13//10
f 11//11 15//11 13//11
f 16//12 12//12 10//12
f 10//7 12//7 9//7
f 12//8 16//8 11//8
f 16//9 14//9 15//9
f 14//10 10//10 13//10
f 9//11 11//11 13//11
f 14//12 16//12 10//12
o Ceiling_立方体.005
v -2.750000 1.500000 2.500000
v -2.750000 1.700000 2.500000
v -2.750000 1.500000 -2.500000
v -2.750000 1.700000 -2.500000
v -2.500000 1.500000 2.500000
v -2.500000 1.700000 2.500000
v -2.500000 1.500000 -2.500000
v -2.500000 1.700000 -2.500000
v -2.750000 1.700000 -2.750000
v -2.750000 1.500000 -2.750000
v -2.500000 1.700000 -2.750000
v -2.500000 1.500000 -2.750000
v 2.500000 1.700000 -2.500000
v 2.500000 1.500000 -2.500000
v 2.500000 1.700000 -2.750000
v 2.500000 1.500000 -2.750000
vn -1.000000 0.000000 0.000000
vn 0.000000 0.000000 1.000000
vn 1.000000 0.000000 0.000000
vn 0.000000 -1.000000 0.000000
vn 0.000000 1.000000 0.000000
vn 0.000000 0.000000 -1.000000
usemtl Ceiling
s off
f 20//13 19//13 17//13
f 23//14 30//14 29//14
f 22//15 21//15 23//15
f 18//14 17//14 21//14
f 19//16 23//16 21//16
f 24//17 20//17 18//17
f 27//18 28//18 26//18
f 19//16 26//16 28//16
f 24//17 27//17 25//17
f 20//13 25//13 26//13
f 30//15 32//15 31//15
f 28//16 32//16 30//16
f 27//18 31//18 32//18
f 24//17 29//17 31//17
f 18//13 20//13 17//13
f 24//14 23//14 29//14
f 24//15 22//15 23//15
f 22//14 18//14 21//14
f 17//16 19//16 21//16
f 22//17 24//17 18//17
f 25//18 27//18 26//18
f 23//16 19//16 28//16
f 20//17 24//17 25//17
f 19//13 20//13 26//13
f 29//15 30//15 31//15
f 23//16 28//16 30//16
f 28//18 27//18 32//18
f 27//17 24//17 31//17
o Wall_立方体.004
v -2.750000 1.500000 2.500000
v -2.750000 1.500000 -2.500000
v -2.750000 -0.000000 -2.500000
v -2.750000 -0.000000 0.000000
v -2.750000 1.400000 0.000000
v -2.750000 1.400000 0.800000
v -2.750000 -0.000000 0.800000
v -2.750000 -0.000000 2.500000
v -2.500000 1.500000 2.500000
v -2.500000 -0.000000 2.500000
v -2.500000 1.500000 0.800000
v -2.600000 1.500000 0.800000
v -2.600000 1.500000 0.000000
v -2.500000 1.500000 0.000000
v -2.500000 1.500000 -2.500000
v -2.750000 1.500000 -2.750000
v -2.750000 -0.000000 -2.750000
v -2.500000 -0.000000 -2.500000
v -2.500000 -0.000000 0.000000
v -2.600000 -0.000000 0.000000
v -2.500000 -0.000000 0.800000
v -2.500000 1.400000 0.800000
v -2.500000 1.400000 0.800000
v -2.600000 1.400000 0.800000
v -2.600000 1.400000 0.000000
v -2.500000 1.400000 0.000000
v -2.500000 1.500000 -2.750000
v -2.500000 -0.000000 -2.750000
v 2.500000 -0.000000 -2.500000
v 2.500000 1.500000 -2.500000
v 2.500000 1.500000 -2.750000
v 2.500000 -0.000000 -2.750000
vn -1.000000 0.000000 0.000000
vn 0.000000 0.000000 1.000000
vn 0.000000 1.000000 0.000000
vn 0.000000 -1.000000 0.000000
vn 1.000000 0.000000 0.000000
vn 0.000000 0.000000 -1.000000
usemtl Wall
s off
f 33//19 34//19 37//19
f 33//20 40//20 42//20
f 44//21 45//21 33//21
f 34//19 48//19 49//19
f 35//22 50//22 52//22
f 39//22 53//22 42//22
f 43//23 41//23 54//23
f 44//24 43//24 55//24
f 45//23 44//23 56//23
f 46//20 45//20 57//20
f 47//23 46//23 58//23
f 47//21 59//21 48//21
f 35//22 49//22 60//22
f 59//24 60//24 49//24
f 50//20 61//20 62//20
f 47//21 62//21 63//21
f 60//22 64//22 61//22
f 59//24 63//24 64//24
f 61//23 64//23 63//23
f 52//20 51//20 58//20
f 36//20 52//20 57//20
f 38//22 37//22 56//22
f 38//24 54//24 53//24
f 38//19 40//19 33//19
f 35//19 36//19 37//19
f 38//19 39//19 40//19
f 34//19 35//19 37//19
f 37//19 38//19 33//19
f 41//20 33//20 42//20
f 45//21 34//21 33//21
f 44//21 41//21 43//21
f 45//21 46//21 47//21
f 33//21 41//21 44//21
f 45//21 47//21 34//21
f 35//19 34//19 49//19
f 50//22 51//22 52//22
f 52//22 36//22 35//22
f 40//22 39//22 42//22
f 54//20 55//20 43//20
f 42//23 53//23 54//23
f 54//23 41//23 42//23
f 56//24 44//24 55//24
f 57//23 45//23 56//23
f 58//20 46//20 57//20
f 58//23 50//23 47//23
f 50//23 58//23 51//23
f 34//21 47//21 48//21
f 50//22 35//22 60//22
f 48//24 59//24 49//24
f 47//20 50//20 62//20
f 59//21 47//21 63//21
f 50//22 60//22 61//22
f 60//24 59//24 64//24
f 62//23 61//23 63//23
f 57//20 52//20 58//20
f 37//20 36//20 57//20
f 56//20 55//20 54//20
f 37//22 57//22 56//22
f 56//20 54//20 38//20
f 39//24 38//24 53//24
o Floor_立方体.001
v -2.750000 -0.450000 2.500000
v -2.750000 -0.150000 2.500000
v -2.750000 -0.450000 -2.750000
v -2.750000 -0.150000 -2.750000
v 2.500000 -0.450000 2.500000
v 2.500000 -0.150000 2.500000
v 2.500000 -0.450000 -2.750000
v 2.500000 -0.150000 -2.750000
vn -1.000000 0.000000 0.000000
vn 0.000000 0.000000 -1.000000
vn 1.000000 0.000000 0.000000
vn 0.000000 0.000000 1.000000
vn 0.000000 -1.000000 0.000000
vn 0.000000 1.000000 0.000000
usemtl Floor
s off
f 68//25 67//25 65//25
f 72//26 71//26 67//26
f 70//27 69//27 71//27
f 66//28 65//28 69//28
f 67//29 71//29 69//29
f 72//30 68//30 66//30
f 66//25 68//25 65//25
f 68//26 72//26 67//26
f 72//27 70//27 71//27
f 70//28 66//28 69//28
f 65//29 67//29 69//29
f 70//30 72//30 66//30
o Carpet_立方体
v -2.750000 -0.150000 2.500000
v -2.750000 0.000000 2.500000
v -2.750000 -0.150000 -2.750000
v -2.750000 0.000000 -2.750000
v 2.500000 -0.150000 2.500000
v 2.500000 0.000000 2.500000
v 2.500000 -0.150000 -2.750000
v 2.500000 0.000000 -2.750000
vn -1.000000 0.000000 0.000000
vn 0.000000 0.000000 -1.000000
vn 1.000000 0.000000 0.000000
vn 0.000000 0.000000 1.000000
vn 0.000000 -1.000000 0.000000
vn 0.000000 1.000000 0.000000
usemtl Carpet
s off
f 76//31 75//31 73//31
f 80//32 79//32 75//32
f 78//33 77//33 79//33
f 74//34 73//34 77//34
f 75//35 79//35 77//35
f 80//36 76//36 74//36
f 74//31 76//31 73//31
f 76//32 80//32 75//32
f 80//33 78//33 79//33
f 78//34 74//34 77//34
f 73//35 75//35 77//35
f 78//36 80//36 74//36
