# Blender v2.75 (sub 0) OBJ File: 'room.blend'
# www.blender.org
mtllib room.mtl
o Door_立方体.002
v -2.750000 0.000000 0.800000
v -2.750000 1.400000 0.800000
v -2.750000 0.000000 0.000000
v -2.750000 1.400000 0.000000
v -2.600000 0.000000 0.800000
v -2.600000 1.400000 0.800000
v -2.600000 0.000000 0.000000
v -2.600000 1.400000 0.000000
vn -1.000000 0.000000 0.000000
vn 0.000000 0.000000 -1.000000
vn 1.000000 0.000000 0.000000
vn 0.000000 0.000000 1.000000
vn 0.000000 -1.000000 0.000000
vn 0.000000 1.000000 0.000000
usemtl Door
s off
f 2//1 4//1 3//1 1//1
f 4//2 8//2 7//2 3//2
f 8//3 6//3 5//3 7//3
f 6//4 2//4 1//4 5//4
f 1//5 3//5 7//5 5//5
f 6//6 8//6 4//6 2//6
o Ceiling_立方体.005
v -2.750000 1.500000 2.500000
v -2.750000 1.750000 2.500000
v -2.750000 1.500000 -2.500000
v -2.750000 1.750000 -2.500000
v -2.500000 1.500000 2.500000
v -2.500000 1.750000 2.500000
v -2.500000 1.500000 -2.500000
v -2.500000 1.750000 -2.500000
v -2.750000 1.750000 -2.750000
v -2.750000 1.500000 -2.750000
v -2.500000 1.750000 -2.750000
v -2.500000 1.500000 -2.750000
v 2.500000 1.750000 -2.500000
v 2.500000 1.500000 -2.500000
v 2.500000 1.750000 -2.750000
v 2.500000 1.500000 -2.750000
vn -1.000000 0.000000 0.000000
vn 0.000000 0.000000 1.000000
vn 1.000000 0.000000 0.000000
vn 0.000000 -1.000000 0.000000
vn 0.000000 1.000000 0.000000
vn 0.000000 0.000000 -1.000000
usemtl Ceiling
s off
f 10//7 12//7 11//7 9//7
f 16//8 15//8 22//8 21//8
f 16//9 14//9 13//9 15//9
f 14//8 10//8 9//8 13//8
f 9//10 11//10 15//10 13//10
f 14//11 16//11 12//11 10//11
f 17//12 19//12 20//12 18//12
f 15//10 11//10 18//10 20//10
f 12//11 16//11 19//11 17//11
f 11//7 12//7 17//7 18//7
f 21//9 22//9 24//9 23//9
f 15//10 20//10 24//10 22//10
f 20//12 19//12 23//12 24//12
f 19//11 16//11 21//11 23//11
o Wall_立方体.004
v -2.750000 1.500000 2.500000
v -2.750000 1.500000 -2.500000
v -2.750000 -0.000000 -2.500000
v -2.750000 -0.000000 0.000000
v -2.750000 1.400000 0.000000
v -2.750000 1.400000 0.800000
v -2.750000 -0.000000 0.800000
v -2.750000 -0.000000 2.500000
v -2.500000 1.500000 2.500000
v -2.500000 -0.000000 2.500000
v -2.500000 1.500000 0.800000
v -2.600000 1.500000 0.800000
v -2.600000 1.500000 0.000000
v -2.500000 1.500000 0.000000
v -2.500000 1.500000 -2.500000
v -2.750000 1.500000 -2.750000
v -2.750000 -0.000000 -2.750000
v -2.500000 -0.000000 -2.500000
v -2.500000 -0.000000 0.000000
v -2.600000 -0.000000 0.000000
v -2.500000 -0.000000 0.800000
v -2.500000 1.400000 0.800000
v -2.500000 1.400000 0.800000
v -2.600000 1.400000 0.800000
v -2.600000 1.400000 0.000000
v -2.500000 1.400000 0.000000
v -2.500000 1.500000 -2.750000
v -2.500000 -0.000000 -2.750000
v 2.500000 -0.000000 -2.500000
v 2.500000 1.500000 -2.500000
v 2.500000 1.500000 -2.750000
v 2.500000 -0.000000 -2.750000
vn -1.000000 0.000000 0.000000
vn 0.000000 0.000000 1.000000
vn 0.000000 1.000000 0.000000
vn -0.000000 -1.000000 0.000000
vn 1.000000 0.000000 0.000000
vn 0.000000 0.000000 -1.000000
usemtl Wall
s off
f 25//13 26//13 27//13 28//13 29//13 30//13 31//13 32//13
f 33//14 25//14 32//14 34//14
f 33//15 35//15 36//15 37//15 38//15 39//15 26//15 25//15
f 27//13 26//13 40//13 41//13
f 28//16 27//16 42//16 43//16 44//16
f 32//16 31//16 45//16 34//16
f 35//17 33//17 34//17 45//17 46//17 47//17
f 48//18 36//18 35//18 47//18
f 49//17 37//17 36//17 48//17
f 50//14 38//14 37//14 49//14
f 39//17 38//17 50//17 43//17 42//17
f 26//15 39//15 51//15 40//15
f 42//16 27//16 41//16 52//16
f 40//18 51//18 52//18 41//18
f 39//14 42//14 53//14 54//14
f 51//15 39//15 54//15 55//15
f 42//16 52//16 56//16 53//16
f 52//18 51//18 55//18 56//18
f 54//17 53//17 56//17 55//17
f 49//14 44//14 43//14 50//14
f 29//14 28//14 44//14 49//14
f 46//16 30//16 29//16 49//16 48//16 47//16
f 31//18 30//18 46//18 45//18
o Floor_立方体.001
v -2.750000 -0.500000 2.500000
v -2.750000 -0.200000 2.500000
v -2.750000 -0.500000 -2.750000
v -2.750000 -0.200000 -2.750000
v 2.500000 -0.500000 2.500000
v 2.500000 -0.200000 2.500000
v 2.500000 -0.500000 -2.750000
v 2.500000 -0.200000 -2.750000
vn -1.000000 0.000000 0.000000
vn 0.000000 0.000000 -1.000000
vn 1.000000 0.000000 0.000000
vn 0.000000 0.000000 1.000000
vn 0.000000 -1.000000 0.000000
vn 0.000000 1.000000 0.000000
usemtl Floor
s off
f 58//19 60//19 59//19 57//19
f 60//20 64//20 63//20 59//20
f 64//21 62//21 61//21 63//21
f 62//22 58//22 57//22 61//22
f 57//23 59//23 63//23 61//23
f 62//24 64//24 60//24 58//24
o Carpet_立方体
v -2.750000 -0.200000 2.500000
v -2.750000 0.000000 2.500000
v -2.750000 -0.200000 -2.750000
v -2.750000 0.000000 -2.750000
v 2.500000 -0.200000 2.500000
v 2.500000 0.000000 2.500000
v 2.500000 -0.200000 -2.750000
v 2.500000 0.000000 -2.750000
vn -1.000000 0.000000 0.000000
vn 0.000000 0.000000 -1.000000
vn 1.000000 0.000000 0.000000
vn 0.000000 0.000000 1.000000
vn 0.000000 -1.000000 0.000000
vn 0.000000 1.000000 0.000000
usemtl Carpet
s off
f 66//25 68//25 67//25 65//25
f 68//26 72//26 71//26 67//26
f 72//27 70//27 69//27 71//27
f 70//28 66//28 65//28 69//28
f 65//29 67//29 71//29 69//29
f 70//30 72//30 68//30 66//30
