# Blender v2.75 (sub 0) OBJ File: 'room.blend'
# www.blender.org
mtllib room.mtl
o Door_立方体.002
v -2.750000 0.000000 0.800000
v -2.750000 1.400000 0.800000
v -2.750000 0.000000 0.000000
v -2.750000 1.400000 0.000000
v -2.600000 0.000000 0.800000
v -2.600000 1.400000 0.800000
v -2.600000 0.000000 0.000000
v -2.600000 1.400000 0.000000
vn -1.000000 0.000000 0.000000
vn 0.000000 0.000000 -1.000000
vn 1.000000 0.000000 0.000000
vn 0.000000 0.000000 1.000000
vn 0.000000 -1.000000 0.000000
vn 0.000000 1.000000 0.000000
usemtl Door
s off
f 4//1 3//1 1//1
f 8//2 7//2 3//2
f 6//3 5//3 7//3
f 2//4 1//4 5//4
f 3//5 7//5 5//5
f 8//6 4//6 2//6
f 2//1 4//1 1//1
f 4//2 8//2 3//2
f 8//3 6//3 7//3
f 6//4 2//4 5//4
f 1//5 3//5 5//5
f 6//6 8//6 2//6
o Ceiling_立方体.005
v -2.750000 1.500000 2.500000
v -2.750000 1.700000 2.500000
v -2.750000 1.500000 -2.500000
v -2.750000 1.700000 -2.500000
v -2.500000 1.500000 2.500000
v -2.500000 1.700000 2.500000
v -2.500000 1.500000 -2.500000
v -2.500000 1.700000 -2.500000
v -2.750000 1.700000 -2.750000
v -2.750000 1.500000 -2.750000
v -2.500000 1.700000 -2.750000
v -2.500000 1.500000 -2.750000
v 2.500000 1.700000 -2.500000
v 2.500000 1.500000 -2.500000
v 2.500000 1.700000 -2.750000
v 2.500000 1.500000 -2.750000
v -2.750000 1.500000 2.500000
v -2.750000 1.500000 -2.500000
v -2.750000 -0.000000 -2.500000
v -2.750000 -0.000000 0.000000
v -2.750000 1.400000 0.000000
v -2.750000 1.400000 0.800000
v -2.750000 -0.000000 0.800000
v -2.750000 -0.000000 2.500000
v -2.500000 1.500000 2.500000
v -2.500000 -0.000000 2.500000
v -2.500000 1.500000 0.800000
v -2.600000 1.500000 0.800000
v -2.600000 1.500000 0.000000
v -2.500000 1.500000 0.000000
v -2.500000 1.500000 -2.500000
v -2.750000 1.500000 -2.750000
v -2.750000 -0.000000 -2.750000
v -2.500000 -0.000000 -2.500000
v -2.500000 -0.000000 0.000000
v -2.600000 -0.000000 0.000000
v -2.500000 -0.000000 0.800000
v -2.500000 1.400000 0.800000
v -2.500000 1.400000 0.800000
v -2.600000 1.400000 0.800000
v -2.600000 1.400000 0.000000
v -2.500000 1.400000 0.000000
v -2.500000 1.500000 -2.750000
v -2.500000 -0.000000 -2.750000
v 2.500000 -0.000000 -2.500000
v 2.500000 1.500000 -2.500000
v 2.500000 1.500000 -2.750000
v 2.500000 -0.000000 -2.750000
v -2.750000 -0.450000 2.500000
v -2.750000 -0.150000 2.500000
v -2.750000 -0.450000 -2.750000
v -2.750000 -0.150000 -2.750000
v 2.500000 -0.450000 2.500000
v 2.500000 -0.150000 2.500000
v 2.500000 -0.450000 -2.750000
v 2.500000 -0.150000 -2.750000
v -2.750000 -0.150000 2.500000
v -2.750000 -0.000000 2.500000
v -2.750000 -0.150000 -2.750000
v -2.750000 -0.000000 -2.750000
v 2.500000 -0.150000 2.500000
v 2.500000 -0.000000 2.500000
v 2.500000 -0.150000 -2.750000
v 2.500000 -0.000000 -2.750000
vn -1.000000 0.000000 0.000000
vn 0.000000 0.000000 1.000000
vn 1.000000 0.000000 0.000000
vn 0.000000 -1.000000 0.000000
vn 0.000000 1.000000 0.000000
vn 0.000000 0.000000 -1.000000
usemtl Ceiling
s off
f 12//7 11//7 9//7
f 15//8 22//8 21//8
f 14//9 13//9 15//9
f 10//8 9//8 13//8
f 11//10 15//10 13//10
f 16//11 12//11 10//11
f 19//12 20//12 18//12
f 11//10 18//10 20//10
f 16//11 19//11 17//11
f 12//7 17//7 18//7
f 22//9 24//9 23//9
f 20//10 24//10 22//10
f 19//12 23//12 24//12
f 16//11 21//11 23//11
f 10//7 12//7 9//7
f 16//8 15//8 21//8
f 16//9 14//9 15//9
f 14//8 10//8 13//8
f 9//10 11//10 13//10
f 14//11 16//11 10//11
f 17//12 19//12 18//12
f 15//10 11//10 20//10
f 12//11 16//11 17//11
f 11//7 12//7 18//7
f 21//9 22//9 23//9
f 15//10 20//10 22//10
f 20//12 19//12 24//12
f 19//11 16//11 23//11
usemtl Wall
f 25//7 26//7 29//7
f 25//8 32//8 34//8
f 36//11 37//11 25//11
f 26//7 40//7 41//7
f 44//10 27//10 42//10
f 31//10 45//10 34//10
f 35//9 33//9 46//9
f 36//12 35//12 47//12
f 37//9 36//9 48//9
f 38//8 37//8 49//8
f 39//9 38//9 50//9
f 39//11 51//11 40//11
f 27//10 41//10 52//10
f 51//12 52//12 41//12
f 42//8 53//8 54//8
f 39//11 54//11 55//11
f 52//10 56//10 53//10
f 51//12 55//12 56//12
f 53//9 56//9 55//9
f 44//8 43//8 50//8
f 28//8 44//8 49//8
f 30//10 29//10 48//10
f 30//12 46//12 45//12
f 30//7 32//7 25//7
f 27//7 28//7 29//7
f 30//7 31//7 32//7
f 26//7 27//7 29//7
f 29//7 30//7 25//7
f 33//8 25//8 34//8
f 37//11 26//11 25//11
f 36//11 33//11 35//11
f 37//11 38//11 39//11
f 25//11 33//11 36//11
f 37//11 39//11 26//11
f 27//7 26//7 41//7
f 27//10 44//10 28//10
f 44//10 42//10 43//10
f 32//10 31//10 34//10
f 46//8 47//8 35//8
f 34//9 45//9 46//9
f 46//9 33//9 34//9
f 48//12 36//12 47//12
f 49//9 37//9 48//9
f 50//8 38//8 49//8
f 50//9 42//9 39//9
f 42//9 50//9 43//9
f 26//11 39//11 40//11
f 42//10 27//10 52//10
f 40//12 51//12 41//12
f 39//8 42//8 54//8
f 51//11 39//11 55//11
f 42//10 52//10 53//10
f 52//12 51//12 56//12
f 54//9 53//9 55//9
f 49//8 44//8 50//8
f 29//8 28//8 49//8
f 48//8 47//8 46//8
f 29//10 49//10 48//10
f 48//8 46//8 30//8
f 31//12 30//12 45//12
usemtl Floor
f 60//7 59//7 57//7
f 64//12 63//12 59//12
f 62//9 61//9 63//9
f 58//8 57//8 61//8
f 59//10 63//10 61//10
f 64//11 60//11 58//11
f 58//7 60//7 57//7
f 60//12 64//12 59//12
f 64//9 62//9 63//9
f 62//8 58//8 61//8
f 57//10 59//10 61//10
f 62//11 64//11 58//11
usemtl Carpet
f 68//7 67//7 65//7
f 72//12 71//12 67//12
f 70//9 69//9 71//9
f 66//8 65//8 69//8
f 67//10 71//10 69//10
f 72//11 68//11 66//11
f 66//7 68//7 65//7
f 68//12 72//12 67//12
f 72//9 70//9 71//9
f 70//8 66//8 69//8
f 65//10 67//10 69//10
f 70//11 72//11 66//11
