# Blender v2.75 (sub 0) OBJ File: 'chair2.blend'
# www.blender.org
mtllib chair2.mtl
o Chair_立方体.001
v -0.245000 0.390000 0.245000
v -0.245000 0.390000 -0.245000
v -0.245000 0.000000 -0.245000
v -0.245000 0.000000 -0.205000
v -0.245000 0.340000 -0.205000
v -0.245000 0.340000 0.205000
v -0.245000 0.000000 0.205000
v -0.245000 0.000000 0.245000
v 0.245000 0.390000 0.245000
v -0.205000 0.000000 0.245000
v -0.205000 0.340000 0.245000
v 0.205000 0.340000 0.245000
v 0.205000 0.000000 0.245000
v 0.245000 0.000000 0.245000
v 0.245000 0.390000 -0.245000
v 0.245000 0.000000 -0.245000
v 0.205000 0.000000 -0.245000
v 0.205000 0.340000 -0.245000
v -0.205000 0.340000 -0.245000
v -0.205000 0.000000 -0.245000
v -0.205000 0.000000 -0.205000
v -0.205000 0.000000 0.205000
v 0.245000 0.000000 0.205000
v 0.245000 0.340000 0.205000
v 0.245000 0.340000 -0.205000
v 0.245000 0.000000 -0.205000
v -0.205000 0.340000 0.205000
v 0.205000 0.340000 0.205000
v 0.205000 0.000000 0.205000
v 0.205000 0.000000 -0.205000
v 0.205000 0.340000 -0.205000
v -0.205000 0.340000 -0.205000
v -0.245000 0.790000 0.245000
v 0.245000 0.790000 0.245000
v -0.245000 0.390000 0.205000
v 0.245000 0.390000 0.205000
v -0.245000 0.790000 0.205000
v 0.245000 0.790000 0.205000
vn -1.000000 0.000000 0.000000
vn 0.000000 0.000000 1.000000
vn 0.000000 1.000000 0.000000
vn 0.000000 0.000000 -1.000000
vn 0.000000 -1.000000 0.000000
vn 1.000000 0.000000 0.000000
usemtl Cgair
s off
f 1//1 2//1 5//1
f 9//2 1//2 11//2
f 2//3 35//3 36//3
f 2//4 15//4 18//4
f 3//5 20//5 21//5
f 22//5 8//5 7//5
f 15//6 9//6 24//6
f 22//5 10//5 8//5
f 10//6 22//6 27//6
f 11//5 27//5 28//5
f 28//1 29//1 13//1
f 23//5 14//5 13//5
f 17//5 16//5 30//5
f 18//1 17//1 30//1
f 32//5 19//5 18//5
f 19//6 32//6 21//6
f 30//5 16//5 26//5
f 27//5 32//5 31//5
f 4//2 21//2 32//2
f 27//5 6//5 5//5
f 22//4 7//4 6//4
f 30//2 26//2 25//2
f 24//5 28//5 31//5
f 23//4 29//4 28//4
f 36//6 38//6 9//6
f 9//2 34//2 33//2
f 35//4 37//4 38//4
f 37//3 33//3 34//3
f 1//1 33//1 35//1
f 6//1 8//1 1//1
f 3//1 4//1 5//1
f 6//1 7//1 8//1
f 2//1 3//1 5//1
f 5//1 6//1 1//1
f 12//2 14//2 9//2
f 8//2 10//2 11//2
f 12//2 13//2 14//2
f 1//2 8//2 11//2
f 11//2 12//2 9//2
f 15//3 2//3 36//3
f 19//4 3//4 2//4
f 16//4 17//4 18//4
f 19//4 20//4 3//4
f 15//4 16//4 18//4
f 18//4 19//4 2//4
f 4//5 3//5 21//5
f 25//6 16//6 15//6
f 14//6 23//6 24//6
f 25//6 26//6 16//6
f 9//6 14//6 24//6
f 24//6 25//6 15//6
f 11//6 10//6 27//6
f 12//5 11//5 28//5
f 12//1 28//1 13//1
f 29//5 23//5 13//5
f 31//1 18//1 30//1
f 31//5 32//5 18//5
f 20//6 19//6 21//6
f 28//5 27//5 31//5
f 5//2 4//2 32//2
f 32//5 27//5 5//5
f 27//4 22//4 6//4
f 31//2 30//2 25//2
f 25//5 24//5 31//5
f 24//4 23//4 28//4
f 38//6 34//6 9//6
f 9//2 15//2 36//2
f 1//2 9//2 33//2
f 36//4 35//4 38//4
f 38//3 37//3 34//3
f 35//2 2//2 1//2
f 33//1 37//1 35//1
