<?xml version="1.0" encoding="utf-8"?>
<!-- Generator: Adobe Illustrator 16.0.3, SVG Export Plug-In . SVG Version: 6.00 Build 0)  -->
<!DOCTYPE svg PUBLIC "-//W3C//DTD SVG 1.1//EN" "http://www.w3.org/Graphics/SVG/1.1/DTD/svg11.dtd">
<svg version="1.1" xmlns="http://www.w3.org/2000/svg" xmlns:xlink="http://www.w3.org/1999/xlink" x="0px" y="0px" width="837px"
	 height="837px" viewBox="0 0 837 837" enable-background="new 0 0 837 837" xml:space="preserve">
<g id="Border">
	<path fill-rule="evenodd" clip-rule="evenodd" fill="none" stroke="#000000" stroke-width="2" stroke-miterlimit="10" d="M1,1h835
		v835H1V1z"/>
</g>
<g id="Back">
	<path fill-rule="evenodd" clip-rule="evenodd" d="M58.5,58.008h720v720h-720V58.008z"/>
</g>
<g id="Back-Border">
	<path fill-rule="evenodd" clip-rule="evenodd" fill="none" stroke="#FFFFFF" stroke-width="4" stroke-miterlimit="10" d="
		M68.5,68.008h700v700h-700V68.008z"/>
</g>
<g id="Main-Border">
	<path fill-rule="evenodd" clip-rule="evenodd" fill="#FFFFFF" stroke="#000000" stroke-width="4" stroke-miterlimit="10" d="
		M418.5,3.5l-415,415l415,415l415-415L418.5,3.5z"/>
</g>
<g id="Main">
	<path fill-rule="evenodd" clip-rule="evenodd" d="M418.5,23.5l-395,395l395,395l395-395L418.5,23.5z"/>
	<rect x="484" y="760.008" stroke="#000000" stroke-miterlimit="10" width="163" height="14.5"/>
	<path fill-rule="evenodd" clip-rule="evenodd" fill="#FFFFFF" stroke="#000000" stroke-width="2" stroke-miterlimit="10" d="
		M343.5,98.5l75,180l75-180l-75-75L343.5,98.5z"/>
</g>
<g id="SubTitle">
	<g>
		<path fill="#FFFFFF" stroke="#000000" stroke-miterlimit="10" d="M435.125,588.099c-5.256-4.372-11.813-7.969-19.688-10.781
			s-13.693-5.464-17.438-7.969c-4.131-2.813-6.188-7.031-6.188-12.656c0-5.31,2.435-9.997,7.313-14.063
			c4.5-3.75,11.057-5.625,19.688-5.625c4.122,0,7.875,0.63,11.25,1.875c2.619,0.938,4.869,1.406,6.75,1.406
			c1.872,0,3.744-1.091,5.625-3.281l2.25,19.219l-3.375,1.406c-3.006-6.563-6.003-10.935-9-13.125
			c-3.753-2.813-8.631-4.219-14.625-4.219c-6.003,0-10.318,1.099-12.938,3.281c-3.753,2.813-5.625,6.563-5.625,11.25
			c0,4.38,1.872,7.661,5.625,9.844c1.872,0.938,6.935,2.974,15.188,6.094c9.369,3.442,16.682,7.5,21.938,12.188
			c4.122,3.75,6.188,8.283,6.188,13.594c0,5.625-2.443,10.474-7.313,14.531c-4.878,4.064-11.628,6.094-20.25,6.094
			c-4.5,0-8.438-0.623-11.813-1.875c-2.628-0.938-4.693-1.406-6.188-1.406c-2.25,0-4.693,1.099-7.313,3.281l-4.5-22.969l3.375-1.406
			c2.997,8.438,5.994,13.755,9,15.938c4.5,3.442,10.494,5.156,18,5.156c5.994,0,10.494-1.245,13.5-3.75
			c3.744-2.813,5.625-7.339,5.625-13.594C440.188,593.724,438.5,590.911,435.125,588.099z"/>
		<path fill="#FFFFFF" stroke="#000000" stroke-miterlimit="10" d="M476.609,613.411v-19.063c0-3.75-0.521-6.143-1.563-7.188
			c-1.25-1.25-2.709-1.875-4.375-1.875c-4.17,0-8.021,2.607-11.563,7.813v20.313c0,1.67,0.938,2.5,2.813,2.5h1.563v1.875h-13.125
			v-1.875h1.563c1.875,0,2.813-0.83,2.813-2.5v-44.688c0-1.665-0.938-2.5-2.813-2.5h-1.875v-1.875h3.438c1.666,0,3.33-0.83,5-2.5
			h0.625v28.125c3.541-4.79,7.604-7.188,12.188-7.188c3.125,0,5.625,0.938,7.5,2.813c1.455,1.46,2.188,4.17,2.188,8.125v19.688
			c0,1.67,0.938,2.5,2.813,2.5h1.563v1.875h-13.125v-1.875h1.563C475.672,615.911,476.609,615.081,476.609,613.411z"/>
		<path fill="#FFFFFF" stroke="#000000" stroke-miterlimit="10" d="M489.672,587.474c0-1.875-0.938-2.813-2.813-2.813h-6.563v-1.875
			h3.125c3.541,0,6.875-0.728,10-2.188h0.625v32.813c0,1.67,0.938,2.5,2.813,2.5h6.563v1.875h-23.125v-1.875h6.563
			c1.875,0,2.813-0.83,2.813-2.5V587.474z M496.234,567.474c0,1.045-0.42,1.982-1.25,2.813c-0.834,0.835-1.771,1.25-2.813,1.25
			c-1.045,0-1.982-0.415-2.813-1.25c-0.834-0.83-1.25-1.768-1.25-2.813c0-0.83,0.416-1.665,1.25-2.5
			c0.83-0.83,1.768-1.25,2.813-1.25c1.041,0,1.979,0.42,2.813,1.25C495.814,565.809,496.234,566.644,496.234,567.474z"/>
		<path fill="#FFFFFF" stroke="#000000" stroke-miterlimit="10" d="M501.172,584.661h-2.5v-1.875h2.188
			c1.875,0,3.75-0.518,5.625-1.563h0.625v7.813c3.541-4.165,7.393-6.25,11.563-6.25c6.875,0,10.313,3.75,10.313,11.25v19.375
			c0,1.67,0.938,2.5,2.813,2.5h1.563v1.875h-13.125v-1.875h1.563c1.875,0,2.813-0.83,2.813-2.5v-20.313
			c0-5.205-2.396-7.813-7.188-7.813c-3.75,0-7.188,2.397-10.313,7.188v20.938c0,1.67,0.938,2.5,2.813,2.5h1.563v1.875h-13.125
			v-1.875h1.563c1.875,0,2.813-0.83,2.813-2.5v-26.875C502.734,585.286,502.213,584.661,501.172,584.661z"/>
		<path fill="#FFFFFF" stroke="#000000" stroke-miterlimit="10" d="M531.842,601.653v-1.758h10.84v1.758H531.842z"/>
		<path fill="#FFFFFF" stroke="#000000" stroke-miterlimit="10" d="M587.842,542.63c3.119,3.128,4.688,7.5,4.688,13.125
			c0,5.94-1.722,10.628-5.156,14.063c-3.443,3.442-7.347,5.625-11.719,6.563l14.063,34.688c1.244,2.189,2.813,3.281,4.688,3.281
			h2.813v2.813h-13.125l-15.469-40.313h-10.781v33.75c0,2.505,1.406,3.75,4.219,3.75h2.813v2.813h-21.563v-2.813h2.813
			c2.813,0,4.219-1.245,4.219-3.75v-67.031c0-2.497-1.406-3.75-4.219-3.75h-2.813v-2.813h26.719
			C577.836,537.005,583.776,538.88,587.842,542.63z M557.842,574.036h10.313c4.994,0,9.06-1.56,12.188-4.688
			c2.813-2.813,4.219-7.031,4.219-12.656s-1.406-9.844-4.219-12.656c-3.128-2.813-7.5-4.219-13.125-4.219h-5.156
			c-2.813,0-4.219,1.253-4.219,3.75V574.036z"/>
		<path fill="#FFFFFF" stroke="#000000" stroke-miterlimit="10" d="M609.586,617.63c-4.455,0-7.855-1.055-10.195-3.164
			c-2.109-1.873-3.164-3.982-3.164-6.328c0-2.34,1.285-4.801,3.867-7.383c3.516-3.516,11.25-6.443,23.203-8.789v-4.922
			c0-2.109-0.588-3.746-1.758-4.922c-1.176-1.17-3.516-1.758-7.031-1.758s-6.213,0.588-8.086,1.758
			c-2.109,1.406-2.813,2.813-2.109,4.219c0.467,0.703,0.467,1.643,0,2.813c-0.473,0.939-1.406,1.406-2.813,1.406
			c-2.109,0-3.164-1.17-3.164-3.516c0-1.637,0.703-3.164,2.109-4.57c2.813-2.813,7.383-4.219,13.711-4.219
			c5.625,0,9.492,1.055,11.602,3.164c1.637,1.643,2.461,3.752,2.461,6.328v26.016c0,0.939,0.467,1.406,1.406,1.406
			c0.703,0,1.521-1.406,2.461-4.219l1.758-0.703c-1.176,4.922-3.164,7.383-5.977,7.383c-2.346,0-3.867-1.521-4.57-4.57
			C618.605,616.108,614.035,617.63,609.586,617.63z M605.719,601.458c-2.346,2.346-3.516,4.57-3.516,6.68
			c0,1.879,0.818,3.516,2.461,4.922c1.637,1.406,3.516,2.109,5.625,2.109c3.982,0,8.316-1.521,13.008-4.57v-16.172
			C614.387,596.306,608.531,598.646,605.719,601.458z"/>
	</g>
	<g>
		<path fill="#FFFFFF" stroke="#000000" stroke-miterlimit="10" d="M389,625.535v-2.813h55.125l6.188,15.938l-2.813,0.938
			c-6.003-9.375-12.938-14.063-20.813-14.063h-15.75c-3.375,0-5.063,1.252-5.063,3.75v29.063h16.313
			c7.119,0,10.688-3.12,10.688-9.375v-2.813h3.375v27.656h-3.375v-1.875c0-7.186-3.568-10.781-10.688-10.781h-16.313v35.156
			c0,2.505,1.688,3.75,5.063,3.75h14.625c10.872,0,18.747-5.464,23.625-16.406l2.813,0.938l-6.188,18.281h-57.375v-2.813h3.375
			c3.375,0,5.063-1.245,5.063-3.75v-67.031c0-2.498-1.688-3.75-5.063-3.75H389z"/>
		<path fill="#FFFFFF" stroke="#000000" stroke-miterlimit="10" d="M450.783,650.066c3.539,0,6.875-0.83,10-2.5h0.625v51.563
			c0,1.67,0.938,2.5,2.813,2.5h7.188v1.875h-24.375v-1.875h7.188c1.875,0,2.813-0.83,2.813-2.5v-44.688c0-1.665-0.938-2.5-2.813-2.5
			h-6.875v-1.875H450.783z"/>
		<path fill="#FFFFFF" stroke="#000000" stroke-miterlimit="10" d="M473.221,686.004c0,6.25,1.352,10.42,4.063,12.5
			c2.08,1.67,4.268,2.5,6.563,2.5c3.539,0,6.25-0.83,8.125-2.5c1.664-1.665,3.018-3.643,4.063-5.938l1.563,0.938
			c-0.836,2.295-2.398,4.482-4.688,6.563c-2.295,2.295-5.42,3.438-9.375,3.438c-4.375,0-7.92-1.353-10.625-4.063
			c-3.125-2.915-4.688-7.603-4.688-14.063c0-5.625,1.768-9.893,5.313-12.813c3.125-2.705,6.563-4.063,10.313-4.063
			c3.955,0,7.393,1.25,10.313,3.75c2.914,2.5,4.375,7.085,4.375,13.75H473.221z M493.221,684.129
			c0.205-5.625-0.938-9.478-3.438-11.563c-1.67-1.455-3.648-2.188-5.938-2.188c-2.086,0-4.17,0.835-6.25,2.5
			c-2.92,2.5-4.375,6.25-4.375,11.25H493.221z"/>
		<path fill="#FFFFFF" stroke="#000000" stroke-miterlimit="10" d="M520.496,677.254c0,0.625,0.205-0.103,0.625-2.188
			c0.205-1.04-0.625-2.188-2.5-3.438c-1.25-0.83-2.607-1.25-4.063-1.25c-2.5,0-4.688,0.938-6.563,2.813
			c-3.125,2.92-4.688,7.5-4.688,13.75c0,5.42,1.352,9.375,4.063,11.875c1.455,1.46,3.75,2.188,6.875,2.188
			c3.75,0,6.455-0.83,8.125-2.5c1.875-1.875,3.438-4.165,4.688-6.875l1.563,0.625c-1.25,3.125-2.92,5.625-5,7.5
			c-2.711,2.5-6.045,3.75-10,3.75c-4.17,0-7.607-1.353-10.313-4.063c-3.336-3.125-5-7.29-5-12.5c0-5.625,1.875-10.313,5.625-14.063
			c2.914-2.915,6.664-4.375,11.25-4.375c3.539,0,6.455,1.147,8.75,3.438c1.664,1.67,2.5,3.335,2.5,5
			c0,2.295-1.045,3.438-3.125,3.438C521.434,680.379,520.496,679.339,520.496,677.254z"/>
		<path fill="#FFFFFF" stroke="#000000" stroke-miterlimit="10" d="M536.371,696.004c0,3.125,1.768,4.688,5.313,4.688
			c2.5,0,4.268-0.518,5.313-1.563c1.455-1.455,2.5-3.643,3.125-6.563l1.563,0.938c-0.625,3.335-1.772,5.732-3.438,7.188
			c-2.085,1.875-4.585,2.813-7.5,2.813c-2.92,0-5-0.625-6.25-1.875c-1.67-1.455-2.5-3.54-2.5-6.25v-25h-9.375v-1.875h1.563
			c6.665,0,10-3.438,10-10.313v-1.875h2.188v12.188h12.5v1.875h-12.5V696.004z"/>
		<path fill="#FFFFFF" stroke="#000000" stroke-miterlimit="10" d="M560.758,678.816c4.165-6.875,8.853-10.313,14.063-10.313
			c2.29,0,4.063,0.625,5.313,1.875c0.83,0.835,1.25,1.772,1.25,2.813c0,1.875-0.938,2.813-2.813,2.813s-2.813-0.938-2.813-2.813
			c0-1.25-0.938-1.875-2.813-1.875c-4.375,0-8.438,4.272-12.188,12.813v15c0,1.67,0.938,2.5,2.813,2.5h6.563v1.875h-23.125v-1.875
			h6.563c1.875,0,2.813-0.83,2.813-2.5v-25.938c0-1.875-0.938-2.813-2.813-2.813h-5.938v-1.875h2.5c2.915,0,6.25-0.728,10-2.188
			h0.625V678.816z"/>
		<path fill="#FFFFFF" stroke="#000000" stroke-miterlimit="10" d="M588.233,673.191c0-1.875-0.938-2.813-2.813-2.813h-6.563v-1.875
			h3.125c3.54,0,6.875-0.728,10-2.188h0.625v32.813c0,1.67,0.938,2.5,2.813,2.5h6.563v1.875h-23.125v-1.875h6.563
			c1.875,0,2.813-0.83,2.813-2.5V673.191z M594.796,653.191c0,1.045-0.42,1.982-1.25,2.813c-0.835,0.835-1.772,1.25-2.813,1.25
			c-1.045,0-1.982-0.415-2.813-1.25c-0.835-0.83-1.25-1.768-1.25-2.813c0-0.83,0.415-1.665,1.25-2.5
			c0.83-0.83,1.768-1.25,2.813-1.25c1.04,0,1.978,0.42,2.813,1.25C594.376,651.526,594.796,652.361,594.796,653.191z"/>
		<path fill="#FFFFFF" stroke="#000000" stroke-miterlimit="10" d="M621.296,677.254c0,0.625,0.205-0.103,0.625-2.188
			c0.205-1.04-0.625-2.188-2.5-3.438c-1.25-0.83-2.607-1.25-4.063-1.25c-2.5,0-4.688,0.938-6.563,2.813
			c-3.125,2.92-4.688,7.5-4.688,13.75c0,5.42,1.353,9.375,4.063,11.875c1.455,1.46,3.75,2.188,6.875,2.188
			c3.75,0,6.455-0.83,8.125-2.5c1.875-1.875,3.438-4.165,4.688-6.875l1.563,0.625c-1.25,3.125-2.92,5.625-5,7.5
			c-2.71,2.5-6.045,3.75-10,3.75c-4.17,0-7.607-1.353-10.313-4.063c-3.335-3.125-5-7.29-5-12.5c0-5.625,1.875-10.313,5.625-14.063
			c2.915-2.915,6.665-4.375,11.25-4.375c3.54,0,6.455,1.147,8.75,3.438c1.665,1.67,2.5,3.335,2.5,5c0,2.295-1.045,3.438-3.125,3.438
			C622.233,680.379,621.296,679.339,621.296,677.254z"/>
		<path fill="#FFFFFF" stroke="#000000" stroke-miterlimit="10" d="M642.633,665.379v30.938c0,2.505,1.406,3.75,4.219,3.75h3.281
			v2.813h-22.5v-2.813h3.281c2.813,0,4.219-1.245,4.219-3.75v-67.031c0-2.498-1.406-3.75-4.219-3.75h-2.813v-2.813h27.656
			c8.123,0,14.37,2.036,18.75,6.094c3.75,3.75,5.625,8.599,5.625,14.531c0,6.255-1.875,11.25-5.625,15
			c-4.688,4.688-10.474,7.031-17.344,7.031H642.633z M654.352,662.566c5.311,0,9.529-1.561,12.656-4.688
			c3.436-3.12,5.156-7.808,5.156-14.063c0-6.248-1.721-10.936-5.156-14.063c-2.813-2.813-7.346-4.219-13.594-4.219h-6.563
			c-2.813,0-4.219,1.252-4.219,3.75v33.281H654.352z"/>
		<path fill="#FFFFFF" stroke="#000000" stroke-miterlimit="10" d="M688.42,672.566c3.955,3.96,5.938,8.438,5.938,13.438
			c0,5.42-1.875,9.897-5.625,13.438c-2.71,2.71-6.25,4.063-10.625,4.063c-4.17,0-7.607-1.353-10.313-4.063
			c-3.96-3.75-5.938-8.228-5.938-13.438c0-5,1.875-9.375,5.625-13.125c2.915-2.915,6.455-4.375,10.625-4.375
			C682.272,668.504,685.71,669.861,688.42,672.566z M670.92,673.816c-2.71,2.5-4.063,6.67-4.063,12.5c0,5.835,1.353,10,4.063,12.5
			c1.875,1.875,4.268,2.813,7.188,2.813c2.915,0,5.313-0.938,7.188-2.813c2.705-2.5,4.063-6.665,4.063-12.5
			c0-5.83-1.357-10-4.063-12.5c-2.085-2.08-4.482-3.125-7.188-3.125C675.397,670.691,673,671.736,670.92,673.816z"/>
		<path fill="#FFFFFF" stroke="#000000" stroke-miterlimit="10" d="M701.982,668.816v1.875h-1.25c-1.67,0-2.188,1.357-1.563,4.063
			l4.688,19.375h0.625l4.375-17.813c-0.625-3.75-1.67-5.625-3.125-5.625h-0.938v-1.875h10.625v1.875h-0.938
			c-1.67,0-2.188,1.357-1.563,4.063l4.375,20h0.313l5.313-21.563c0.205-1.665-0.42-2.5-1.875-2.5h-1.563v-1.875h10.625v1.875h-1.25
			c-1.67,0-2.92,1.357-3.75,4.063l-7.5,29.375h-1.875l-5.625-23.75l-5.938,23.75h-1.875l-7.188-28.75
			c-0.835-3.125-1.875-4.688-3.125-4.688h-0.625v-1.875H701.982z"/>
		<path fill="#FFFFFF" stroke="#000000" stroke-miterlimit="10" d="M732.42,686.004c0,6.25,1.353,10.42,4.063,12.5
			c2.08,1.67,4.268,2.5,6.563,2.5c3.54,0,6.25-0.83,8.125-2.5c1.665-1.665,3.018-3.643,4.063-5.938l1.563,0.938
			c-0.835,2.295-2.397,4.482-4.688,6.563c-2.295,2.295-5.42,3.438-9.375,3.438c-4.375,0-7.92-1.353-10.625-4.063
			c-3.125-2.915-4.688-7.603-4.688-14.063c0-5.625,1.768-9.893,5.313-12.813c3.125-2.705,6.563-4.063,10.313-4.063
			c3.955,0,7.393,1.25,10.313,3.75c2.915,2.5,4.375,7.085,4.375,13.75H732.42z M752.42,684.129
			c0.205-5.625-0.938-9.478-3.438-11.563c-1.67-1.455-3.647-2.188-5.938-2.188c-2.085,0-4.17,0.835-6.25,2.5
			c-2.92,2.5-4.375,6.25-4.375,11.25H752.42z"/>
		<path fill="#FFFFFF" stroke="#000000" stroke-miterlimit="10" d="M765.558,678.816c4.165-6.875,8.853-10.313,14.063-10.313
			c2.29,0,4.063,0.625,5.313,1.875c0.83,0.835,1.25,1.772,1.25,2.813c0,1.875-0.938,2.813-2.813,2.813s-2.813-0.938-2.813-2.813
			c0-1.25-0.938-1.875-2.813-1.875c-4.375,0-8.438,4.272-12.188,12.813v15c0,1.67,0.938,2.5,2.813,2.5h6.563v1.875h-23.125v-1.875
			h6.563c1.875,0,2.813-0.83,2.813-2.5v-25.938c0-1.875-0.938-2.813-2.813-2.813h-5.938v-1.875h2.5c2.915,0,6.25-0.728,10-2.188
			h0.625V678.816z"/>
	</g>
	<g>
		<path fill="#FFFFFF" stroke="#000000" stroke-miterlimit="10" d="M440.188,784.031c-4.878,4.064-10.881,6.094-18,6.094
			c-8.253,0-15.003-2.183-20.25-6.563c-8.631-6.87-12.938-17.967-12.938-33.281c0-14.063,4.869-24.998,14.625-32.813
			c6.372-4.995,13.685-7.5,21.938-7.5c2.619,0,5.247,0.469,7.875,1.406c1.872,0.63,4.122,0.938,6.75,0.938
			c2.619,0,4.685-0.776,6.188-2.344l5.063,20.625l-3.938,0.938c-2.628-6.248-6.188-11.089-10.688-14.531
			c-3.006-2.498-7.128-3.75-12.375-3.75c-4.878,0-9.193,1.406-12.938,4.219c-8.253,6.563-12.375,17.344-12.375,32.344
			c0,16.252,3.744,27.349,11.25,33.281c2.619,2.189,6.75,3.281,12.375,3.281c5.994,0,11.25-1.714,15.75-5.156
			c3.375-2.498,6.557-7.5,9.563-15l3.375,1.406C449.188,774.188,445.435,779.658,440.188,784.031z"/>
		<path fill="#FFFFFF" stroke="#000000" stroke-miterlimit="10" d="M477.859,739.813c3.955,3.96,5.938,8.438,5.938,13.438
			c0,5.42-1.875,9.897-5.625,13.438c-2.709,2.71-6.25,4.063-10.625,4.063c-4.17,0-7.607-1.353-10.313-4.063
			c-3.959-3.75-5.938-8.228-5.938-13.438c0-5,1.875-9.375,5.625-13.125c2.916-2.915,6.455-4.375,10.625-4.375
			C471.713,735.75,475.15,737.107,477.859,739.813z M460.359,741.063c-2.709,2.5-4.063,6.67-4.063,12.5c0,5.835,1.354,10,4.063,12.5
			c1.875,1.875,4.268,2.813,7.188,2.813c2.916,0,5.313-0.938,7.188-2.813c2.705-2.5,4.063-6.665,4.063-12.5
			c0-5.83-1.357-10-4.063-12.5c-2.084-2.08-4.482-3.125-7.188-3.125C464.838,737.938,462.439,738.982,460.359,741.063z"/>
		<path fill="#FFFFFF" stroke="#000000" stroke-miterlimit="10" d="M486.848,735.75c1.875,0,3.75-0.518,5.625-1.563h0.625v6.563
			c2.289-3.33,4.893-5,7.813-5c2.705,0,4.688,1.67,5.938,5c2.289-3.33,4.893-5,7.813-5c1.664,0,3.227,0.732,4.688,2.188
			c1.25,1.25,1.875,2.92,1.875,5v23.75c0,1.46,0.83,2.188,2.5,2.188h0.625v1.875h-10.625v-1.875h0.625c1.664,0,2.5-0.728,2.5-2.188
			v-22.5c0-3.33-1.045-5-3.125-5c-2.92,0-5,1.772-6.25,5.313v22.188c0,1.46,0.83,2.188,2.5,2.188h0.625v1.875h-10.625v-1.875h0.625
			c1.664,0,2.5-0.728,2.5-2.188v-21.875c0-3.75-1.25-5.625-3.75-5.625s-4.586,1.563-6.25,4.688v22.813c0,1.46,0.83,2.188,2.5,2.188
			h0.625v1.875h-10.625v-1.875h0.625c1.664,0,2.5-0.728,2.5-2.188V739.5c0-1.25-0.523-1.875-1.563-1.875h-1.25v-1.875H486.848z"/>
		<path fill="#FFFFFF" stroke="#000000" stroke-miterlimit="10" d="M535.522,780.125h2.188V782h-14.375v-1.875h2.188
			c1.875,0,2.813-0.938,2.813-2.813v-36.875c0-1.875-0.938-2.813-2.813-2.813h-1.875v-1.875h2.813c1.875,0,3.75-0.518,5.625-1.563
			h0.625v8.438c3.33-4.58,7.08-6.875,11.25-6.875c3.33,0,6.353,1.357,9.063,4.063c3.125,2.92,4.688,7.813,4.688,14.688
			c0,5.625-1.563,9.897-4.688,12.813c-2.295,2.295-5.313,3.438-9.063,3.438c-4.795,0-8.545-1.875-11.25-5.625v12.188
			C532.71,779.188,533.647,780.125,535.522,780.125z M532.71,760.75c2.5,5.21,5.938,7.813,10.313,7.813
			c2.705,0,4.893-0.83,6.563-2.5c2.08-1.875,3.125-5.728,3.125-11.563c0-6.455-1.357-10.938-4.063-13.438
			c-1.67-1.665-3.647-2.5-5.938-2.5c-3.96,0-7.295,2.813-10,8.438V760.75z"/>
		<path fill="#FFFFFF" stroke="#000000" stroke-miterlimit="10" d="M573.572,770.75c-3.96,0-6.982-0.938-9.063-2.813
			c-1.875-1.665-2.813-3.54-2.813-5.625c0-2.08,1.143-4.268,3.438-6.563c3.125-3.125,10-5.728,20.625-7.813v-4.375
			c0-1.875-0.522-3.33-1.563-4.375c-1.045-1.04-3.125-1.563-6.25-1.563s-5.522,0.522-7.188,1.563c-1.875,1.25-2.5,2.5-1.875,3.75
			c0.415,0.625,0.415,1.46,0,2.5c-0.42,0.835-1.25,1.25-2.5,1.25c-1.875,0-2.813-1.04-2.813-3.125c0-1.455,0.625-2.813,1.875-4.063
			c2.5-2.5,6.563-3.75,12.188-3.75c5,0,8.438,0.938,10.313,2.813c1.455,1.46,2.188,3.335,2.188,5.625v23.125
			c0,0.835,0.415,1.25,1.25,1.25c0.625,0,1.353-1.25,2.188-3.75l1.563-0.625c-1.045,4.375-2.813,6.563-5.313,6.563
			c-2.085,0-3.438-1.353-4.063-4.063C581.59,769.397,577.527,770.75,573.572,770.75z M570.135,756.375
			c-2.085,2.085-3.125,4.063-3.125,5.938c0,1.67,0.728,3.125,2.188,4.375c1.455,1.25,3.125,1.875,5,1.875
			c3.54,0,7.393-1.353,11.563-4.063v-14.375C577.84,751.795,572.635,753.875,570.135,756.375z"/>
		<path fill="#FFFFFF" stroke="#000000" stroke-miterlimit="10" d="M600.373,737.625h-2.5v-1.875h2.188
			c1.875,0,3.75-0.518,5.625-1.563h0.625V742c3.539-4.165,7.393-6.25,11.563-6.25c6.875,0,10.313,3.75,10.313,11.25v19.375
			c0,1.67,0.938,2.5,2.813,2.5h1.563v1.875h-13.125v-1.875h1.563c1.875,0,2.813-0.83,2.813-2.5v-20.313
			c0-5.205-2.398-7.813-7.188-7.813c-3.75,0-7.188,2.397-10.313,7.188v20.938c0,1.67,0.938,2.5,2.813,2.5h1.563v1.875h-13.125
			v-1.875h1.563c1.875,0,2.813-0.83,2.813-2.5V739.5C601.936,738.25,601.412,737.625,600.373,737.625z"/>
		<path fill="#FFFFFF" stroke="#000000" stroke-miterlimit="10" d="M646.085,762h0.625l6.875-20.938
			c0.205-2.29-0.522-3.438-2.188-3.438h-1.875v-1.875h13.125v1.875h-1.875c-1.67,0-3.125,1.147-4.375,3.438L645.772,772
			c-1.25,4.165-2.607,6.978-4.063,8.438c-1.045,1.04-2.607,1.563-4.688,1.563c-1.67,0-2.813-0.313-3.438-0.938
			s-0.938-1.357-0.938-2.188c0-0.835,0.313-1.563,0.938-2.188c0.415-0.42,1.04-0.625,1.875-0.625c1.04,0,1.768,0.313,2.188,0.938
			c0.625,0.83,1.25,1.25,1.875,1.25c0.83,0,1.563-0.625,2.188-1.875c1.04-2.295,1.978-5.103,2.813-8.438l-10.625-27.5
			c-0.835-1.875-2.085-2.813-3.75-2.813h-1.25v-1.875h13.125v1.875h-1.25c-1.875,0-2.607,1.045-2.188,3.125L646.085,762z"/>
	</g>
</g>
<g id="Title">
	<g>
		<path fill-rule="evenodd" clip-rule="evenodd" fill="#FFFFFF" d="M327.729,203.983c-4.811,0.687-3.237,7.554-3.237,7.554
			l3.237,14.028l5.396,29.137l5.396,30.217c0,0,0.843,24.849,1.079,26.979c0.237,2.13-1.212,10.687-2.158,11.87
			s-18.615,4.586-22.662,6.475s-5.187,3.977-7.554,5.396c-2.367,1.42-15.212,11.029-14.028,10.792
			c1.182-0.237-4.109-0.37-6.476-1.079c-2.366-0.71-2.158-7.555-2.158-7.555s-3.768-7.08-7.554-7.554
			c-3.786-0.473-12.95,6.476-12.95,6.476l-10.791,9.712c0,0-57.194,25.09-59.353,25.899s-9.977-0.237-11.871,0
			c-1.893,0.237-10.791,5.396-10.791,5.396s-12.41,11.062-12.949,14.028c-0.54,2.968,0.368,5.529,1.078,6.476
			c0.71,0.946,4.317,3.237,4.317,3.237l8.633,2.158c0,0,6.607,0.474,7.554,0s64.777-37.77,66.907-37.77s1.079,3.237,1.079,3.237
			s-20.295,27.612-22.662,30.216c-2.367,2.603-19.227,18.78-19.227,18.78c-1.173,2.016-9.29,21.689-8.831,24.386
			c0.518,3.041,3.237,11.869,3.237,11.869s4.582,2.395,6.475,2.158c1.893-0.234,6.74-4.816,8.634-6.475
			c1.893-1.656,4.316-5.395,4.316-5.395s11.898-29.061,14.028-32.375c2.13-3.313,3.237-1.079,3.237-1.079v50.72
			c0,0,1.686,6.74,2.159,8.633c0.473,1.893,1.078,15.108,1.078,15.108l1.08,4.317c0,0,0.738,4.921,2.158,5.395
			c1.419,0.474,2.054,0.104,3.237-1.078c1.183-1.185,7.923-13.926,8.633-15.109c0.709-1.183,3.001-14.614,3.237-22.662
			c0.237-8.046-4.08-28.085-4.316-30.215s-2.528-9.296-3.237-14.029c-0.709-4.732-1.079-9.712-1.079-9.712s4.745-3.951,7.51,8.3
			c1.857,8.23,6.948,13.25,6.519,13.283c0,0,7.015,6.475,9.713,7.554c2.697,1.079,7.554-3.237,7.554-3.237s6.373-5.63,6.475-7.555
			c0.103-1.923,0.81-13.488,0-16.187c-0.809-2.698-6.475-4.316-6.475-4.316l-9.712-1.079l-10.792-4.316c0,0-6.107-1.859-10.791,0
			c-1.561,0.619-1.079-3.238-1.079-3.238l33.453-36.69l4.316,10.792l7.554,33.453c0,0,7.375,33.943,11.871,36.691
			c4.495,2.746,33.453,5.395,33.453,5.395l2.158,4.316l-1.079,18.346l-6.475,96.043l-4.316,18.346l-14.029,26.979
			c0,0-2.661,1.8-2.158,4.316c0.504,2.519,2.302,2.734,4.316,3.238c2.015,0.504,7.555-5.396,7.555-5.396
			s15.827-24.198,18.345-31.295c2.519-7.095,17.267-133.813,17.267-133.813l4.316-2.158l14.029,3.236
			c0,0,7.295,11.951,10.791,12.949c3.497,1,7.554-2.158,7.554-2.158l15.109-25.898c0,0,21.19-83.288,20.502-87.41
			c-0.686-4.124-17.803-17.756-21.582-20.504c-3.779-2.75-40.906,2.846-46.403,2.158c-5.498-0.688,1.161-2.191-0.214-4.595
			c-1.374-2.406-2.385-79.278-4.103-88.211c-1.718-8.933-16.188-19.424-16.188-19.424S332.539,203.296,327.729,203.983z"/>
		<path fill-rule="evenodd" clip-rule="evenodd" d="M303.987,358.3c0.256-2.304,5.755-3.889,14.028-6.475
			c8.965-2.801,20.504-4.316,20.504-4.316l3.237,4.316l-1.079,18.346l-2.158,2.158h-31.295l-1.079-8.633
			C306.146,363.696,303.731,360.604,303.987,358.3z"/>
		<path fill-rule="evenodd" clip-rule="evenodd" d="M365.498,343.192l-1.079,3.237l-2.158,25.899l10.791,1.079
			c0,0,7.824-4.047,9.713-4.316c1.889-0.271,10.791,2.158,10.791,2.158l7.555,6.475l2.158-5.396l3.237-26.979l-2.158-2.158
			l-5.395-1.079c0,0-11.089-0.304-20.504,0C371.526,342.336,365.498,343.192,365.498,343.192z"/>
		<path fill-rule="evenodd" clip-rule="evenodd" d="M339.599,392.023l-8.633-1.349l-12.95-5.396h-4.316l-1.079,2.158l1.079,8.634
			l3.237,7.554v11.87l2.158,1.08h17.267l2.158-2.158L339.599,392.023z"/>
		<path fill-rule="evenodd" clip-rule="evenodd" d="M362.261,416.573l1.079-18.345l2.429-1.349c0,0,5.236,1.915,7.283,2.428
			c2.048,0.512,9.768-1.134,10.792-2.158c1.024-1.024,4.115-3.805,5.396-4.316c1.28-0.513,8.633-9.713,8.633-9.713h2.158l1.08,3.237
			l-8.634,35.612l-4.316,1.078c0,0-5.148-3.714-11.87-5.395C370.084,416.102,362.261,416.573,362.261,416.573z"/>
		<path fill-rule="evenodd" clip-rule="evenodd" fill="#FFFFFF" d="M216.577,298.947c-2.258,4.063,4.665,22.41,6.475,25.899
			s5.868,10.835,11.87,11.871c6.003,1.035,7.157,2.287,12.95,0c5.793-2.288,8.369-6.556,9.712-10.792s-1.113-12.188-4.316-14.028
			C250.064,310.057,217.962,296.455,216.577,298.947z"/>
	</g>
	<g>
		<path fill-rule="evenodd" clip-rule="evenodd" fill="#FFFFFF" d="M445.087,298.1c0,0,12.141,1.339,17.832,0
			c5.693-1.339,80.699-27.308,74.672-25.634s11.025-4.458,16.718-4.458s19.606,1.334,25.634,3.344
			c6.026,2.009,13.475,4.338,21.176,10.03s15.712,10.021,16.717,16.718c1.005,6.696-2.783,9.581-4.457,12.26
			c-1.674,2.678-17.269,13.149-22.29,14.488c-5.022,1.339-24.06-3.124-33.436-1.114c-9.375,2.009-9.423-0.607-12.26,2.229
			s0,4.458,0,4.458l5.573,5.572c0,0-2.005,12.145-3.344,14.489c-1.34,2.343-5.572,6.687-5.572,6.687v33.436l3.343,2.229
			l28.978-11.145c0,0,0.669-21.516,0-17.832c-0.671,3.683,4.457-17.832,4.457-17.832s1.78-1.785,4.459-1.115
			c2.678,0.67,13.039,8.467,13.373,11.146c0.336,2.679-1.113,17.832-1.113,17.832l7.801,1.114l5.573-4.458h5.571
			c0,0,15.714,9.472,16.719,11.146c1.004,1.674,1.113,6.687,1.113,6.687s-7.906,5.908-12.259,5.572
			c-4.354-0.334-28.977,4.458-28.977,4.458v16.718l13.374-1.114l8.916-3.344c0,0,2.448-0.115,4.457,2.229
			c2.01,2.344,1.115,8.915,1.115,8.915s-28.418,15.824-30.092,17.832c-1.674,2.01,1.114,8.916,1.114,8.916l13.374-5.572h6.688
			l7.801,3.344c0,0,8.246,6.572,8.917,8.916c0.669,2.344,1.114,7.803,1.114,7.803s-1.779,2.118-4.458,1.113
			s-32.431,0.555-33.436,2.229c-1.004,1.674,0,16.719,0,16.719s9.752-2.508,13.374-3.344c3.623-0.836,9.916-0.336,12.26,0
			s15.604,3.344,15.604,3.344l7.801,6.688c0,0,4.123,11.584,4.459,15.602c0.334,4.02-2.229,4.459-2.229,4.459
			s-13.821-3.535-28.755-5.998c-15.471-2.551-32.139-4.033-35.887-4.033c-7.366,0-11.145,0-11.145,0l-12.26,7.803
			c0,0,2.233,18.377-1.114,26.748c-3.348,8.369-12.26,25.633-12.26,25.633h-3.344c0,0-10.585-15.374-12.259-20.061
			c-1.675-4.688,2.229-33.436,2.229-33.436s-3.789-42.57-4.459-44.58s2.23-15.604,2.23-15.604l2.229-45.694l1.114-33.436
			c0,0-4.678-0.889-6.687-2.229c-2.01-1.339,3.344-22.29,3.344-22.29l11.145-11.146c0,0,4.861-3.243,0-4.458
			c-4.861-1.215-22.061,3.344-26.748,3.344s-20.061,10.03-20.061,10.03l-1.115,5.573l3.344,6.687l-8.916,10.03v3.344l8.916,14.488
			v6.688l-11.145,14.488L460.69,419.58l2.229,1.115l23.404-12.26l4.459-1.115l3.344-5.572h13.373l3.344-2.229l6.688,6.687v15.603
			l-8.916,13.375l-8.916,1.113l-4.458-4.457v-12.26l-3.344-1.115l-35.664,22.291c0,0-0.103,2.533-3.344,3.344
			c-3.241,0.809-15.603-5.572-15.603-5.572v-6.688l14.488-22.29l-1.114-3.344l-13.374-14.488v-5.572l40.122-41.237v-5.572
			l-11.146-1.114l-5.572-4.458v-4.458l-14.488-23.405l-2.229-1.115L445.087,298.1z"/>
		<path fill-rule="evenodd" clip-rule="evenodd" d="M470.722,375c0,0-14.703,8.896-14.489,12.26
			c0.212,3.364,3.785,8.122,6.687,7.802c2.902-0.321,12.47-11.221,12.26-11.146S474.151,374.771,470.722,375z"/>
		<path fill-rule="evenodd" clip-rule="evenodd" d="M546.507,403.978c0,0,5.844,15.169,5.573,17.831
			c-0.271,2.662-2.229,6.688-2.229,6.688l21.176-10.031c0,0,2.179-5.371,2.229-7.801c0.05-2.431-2.229-8.916-2.229-8.916
			L546.507,403.978z"/>
		<path fill-rule="evenodd" clip-rule="evenodd" d="M553.194,441.871c0,0,15.153-7.012,16.718-5.574
			c1.563,1.439,2.229,17.832,2.229,17.832l-18.946,6.688V441.871z"/>
		<path fill-rule="evenodd" clip-rule="evenodd" d="M556.538,474.191c0,0,8.154-1.624,8.916-2.23
			c0.762-0.604,7.802-1.113,7.802-1.113l1.114,12.26l-8.916,2.229l-3.344,3.344l-4.458-1.115L556.538,474.191z"/>
		<path fill-rule="evenodd" clip-rule="evenodd" d="M475.179,304.786l5.573,12.26c0,0,1.608,2.748,1.114,5.572
			c-0.494,2.826-2.229,7.802-2.229,7.802l5.572,1.114l5.572-3.343v-2.229c0,0-3.178-12.672-7.802-18.946
			C480.668,303.877,475.179,304.786,475.179,304.786z"/>
		<path fill-rule="evenodd" clip-rule="evenodd" d="M506.386,295.87l6.687-2.229c0,0,13.165-3.842,17.832-1.114
			c4.667,2.727,7.802,12.259,7.802,12.259l-22.29,12.26c0,0-5.087,0.123-6.688-1.114c-1.6-1.237-4.458-11.146-4.458-11.146
			L506.386,295.87z"/>
		<path fill-rule="evenodd" clip-rule="evenodd" d="M563.225,291.412c0,0,9.634,0.681,17.229,3.665
			c7.997,3.141,13.977,8.595,13.977,8.595s-2.085,3.154-2.229,4.458c-0.145,1.304-1.114,6.687-1.114,6.687
			s-11.48-4.161-17.832-5.573c-6.354-1.411-12.261-2.229-12.261-2.229L563.225,291.412z"/>
		<path fill-rule="evenodd" clip-rule="evenodd" fill="#FFFFFF" d="M438.4,464.16c0,0-8.323,17.549-7.802,24.52
			c0.521,6.971,15.604,26.748,15.604,26.748l13.374-2.229v-20.063l-5.573-13.373L438.4,464.16z"/>
		<path fill-rule="evenodd" clip-rule="evenodd" fill="#FFFFFF" d="M460.69,459.703l10.031,28.977c0,0,4.751,8.545,10.03-1.115
			c5.278-9.66-3.344-31.205-3.344-31.205s-2.23-0.281-2.229-2.23c0.002-5.639-7.348-4.98-7.801-4.457L460.69,459.703z"/>
		<path fill-rule="evenodd" clip-rule="evenodd" fill="#FFFFFF" d="M485.21,449.672c0,0-3.156,2.78-3.344,4.457
			c-0.188,1.679,3.344,15.604,3.344,15.604s17.211-1.781,16.717-10.029s-7.801-10.031-7.801-10.031H485.21z"/>
	</g>
	<g>
	</g>
	<g>
	</g>
	<g>
	</g>
	<g>
	</g>
	<g>
	</g>
	<g>
	</g>
</g>
</svg>
