<?xml version="1.0" encoding="utf-8"?>
<!-- Generator: Adobe Illustrator 16.0.3, SVG Export Plug-In . SVG Version: 6.00 Build 0)  -->
<!DOCTYPE svg PUBLIC "-//W3C//DTD SVG 1.1//EN" "http://www.w3.org/Graphics/SVG/1.1/DTD/svg11.dtd">
<svg version="1.1" xmlns="http://www.w3.org/2000/svg" xmlns:xlink="http://www.w3.org/1999/xlink" x="0px" y="0px" width="512px"
	 height="64px" viewBox="0 0 512 64" enable-background="new 0 0 512 64" xml:space="preserve">
<g id="レイヤー_1" display="none">
	<rect display="inline" fill="#E4007F" width="512" height="64"/>
</g>
<g id="レイヤー_2" opacity="0.5">
	<rect x="8" y="40" fill="#FFFFFF" width="12" height="24"/>
	<rect x="28" y="44" fill="#FFFFFF" width="12" height="20"/>
	<rect x="48" y="36" fill="#FFFFFF" width="12" height="28"/>
	<rect x="52" y="52" fill="#FFFFFF" width="12" height="12"/>
	<rect x="72" y="44" fill="#FFFFFF" width="12" height="20"/>
	<rect x="92" y="48" fill="#FFFFFF" width="12" height="16"/>
	<rect x="112" y="40" fill="#FFFFFF" width="12" height="24"/>
	<rect x="136" y="36" fill="#FFFFFF" width="12" height="28"/>
	<rect x="132" y="48" fill="#FFFFFF" width="12" height="16"/>
	<path fill="#FFFFFF" d="M156,44v20h12V44H156z M163.833,59.834h-4.167v-4h4.167V59.834z M164,52.167h-3.833v-3.833H164V52.167z"/>
	<rect x="176" y="40" fill="#FFFFFF" width="12" height="24"/>
	<rect x="196" y="48" fill="#FFFFFF" width="12" height="16"/>
	<rect x="216" y="36" fill="#FFFFFF" width="12" height="28"/>
	<rect x="220" y="48" fill="#FFFFFF" width="12" height="16"/>
	<rect x="240.333" y="44" fill="#FFFFFF" width="12" height="20"/>
	<rect x="284" y="40" fill="#FFFFFF" width="12" height="24"/>
	<rect x="280" y="52" fill="#FFFFFF" width="12" height="12"/>
	<rect x="260" y="48" fill="#FFFFFF" width="12" height="16"/>
	<rect x="304" y="44" fill="#FFFFFF" width="12" height="20"/>
	<rect x="324" y="48" fill="#FFFFFF" width="12" height="16"/>
	<path fill="#FFFFFF" d="M344,40v24h12V40H344z M347.75,44h4v2.5h-4V44z M352.25,49v2.5h-4V49H352.25z M347.75,54.166h4v2.5h-4
		V54.166z M352.584,61.834h-4v-2.5h4V61.834z"/>
	<rect x="364" y="32" fill="#FFFFFF" width="12" height="32"/>
	<rect x="368" y="48" fill="#FFFFFF" width="12" height="16"/>
	<rect x="388" y="44" fill="#FFFFFF" width="12" height="20"/>
	<rect x="408" y="40" fill="#FFFFFF" width="12" height="24"/>
	<rect x="428" y="48" fill="#FFFFFF" width="12" height="16"/>
	<rect x="452" y="40" fill="#FFFFFF" width="12" height="24"/>
	<rect x="448" y="52" fill="#FFFFFF" width="12" height="12"/>
	<rect x="472" y="36" fill="#FFFFFF" width="12" height="28"/>
	<rect x="492" y="44" fill="#FFFFFF" width="12" height="20"/>
	<g>
	</g>
	<g>
	</g>
	<g>
	</g>
	<g>
	</g>
	<g>
	</g>
	<g>
	</g>
</g>
</svg>
