<?xml version="1.0" encoding="utf-8"?>
<!-- Generator: Adobe Illustrator 16.0.3, SVG Export Plug-In . SVG Version: 6.00 Build 0)  -->
<!DOCTYPE svg PUBLIC "-//W3C//DTD SVG 1.1//EN" "http://www.w3.org/Graphics/SVG/1.1/DTD/svg11.dtd">
<svg version="1.1" xmlns="http://www.w3.org/2000/svg" xmlns:xlink="http://www.w3.org/1999/xlink" x="0px" y="0px" width="512px"
	 height="64px" viewBox="0 0 512 64" enable-background="new 0 0 512 64" xml:space="preserve">
<g id="レイヤー_1" display="none">
	<rect display="inline" fill="#E4007F" width="512" height="64"/>
</g>
<g id="レイヤー_2" opacity="0.4">
	<linearGradient id="SVGID_1_" gradientUnits="userSpaceOnUse" x1="14" y1="40" x2="14" y2="64">
		<stop  offset="0" style="stop-color:#FFFFFF"/>
		<stop  offset="1" style="stop-color:#FFFFFF;stop-opacity:0.5"/>
	</linearGradient>
	<rect x="8" y="40" fill="url(#SVGID_1_)" width="12" height="24"/>
	<linearGradient id="SVGID_2_" gradientUnits="userSpaceOnUse" x1="34" y1="44" x2="34" y2="64">
		<stop  offset="0" style="stop-color:#FFFFFF"/>
		<stop  offset="1" style="stop-color:#FFFFFF;stop-opacity:0.5"/>
	</linearGradient>
	<rect x="28" y="44" fill="url(#SVGID_2_)" width="12" height="20"/>
	<linearGradient id="SVGID_3_" gradientUnits="userSpaceOnUse" x1="56" y1="36" x2="56" y2="64">
		<stop  offset="0" style="stop-color:#FFFFFF"/>
		<stop  offset="1" style="stop-color:#FFFFFF;stop-opacity:0.5"/>
	</linearGradient>
	<polygon fill="url(#SVGID_3_)" points="60,52 60,36 48,36 48,64 52,64 60,64 64,64 64,52 	"/>
	<linearGradient id="SVGID_4_" gradientUnits="userSpaceOnUse" x1="78" y1="44" x2="78" y2="64">
		<stop  offset="0" style="stop-color:#FFFFFF"/>
		<stop  offset="1" style="stop-color:#FFFFFF;stop-opacity:0.5"/>
	</linearGradient>
	<rect x="72" y="44" fill="url(#SVGID_4_)" width="12" height="20"/>
	<linearGradient id="SVGID_5_" gradientUnits="userSpaceOnUse" x1="98" y1="48" x2="98" y2="64">
		<stop  offset="0" style="stop-color:#FFFFFF"/>
		<stop  offset="1" style="stop-color:#FFFFFF;stop-opacity:0.5"/>
	</linearGradient>
	<rect x="92" y="48" fill="url(#SVGID_5_)" width="12" height="16"/>
	<linearGradient id="SVGID_6_" gradientUnits="userSpaceOnUse" x1="118" y1="40" x2="118" y2="64">
		<stop  offset="0" style="stop-color:#FFFFFF"/>
		<stop  offset="1" style="stop-color:#FFFFFF;stop-opacity:0.5"/>
	</linearGradient>
	<rect x="112" y="40" fill="url(#SVGID_6_)" width="12" height="24"/>
	<linearGradient id="SVGID_7_" gradientUnits="userSpaceOnUse" x1="140" y1="36" x2="140" y2="64">
		<stop  offset="0" style="stop-color:#FFFFFF"/>
		<stop  offset="1" style="stop-color:#FFFFFF;stop-opacity:0.5"/>
	</linearGradient>
	<polygon fill="url(#SVGID_7_)" points="136,36 136,48 132,48 132,64 136,64 144,64 148,64 148,36 	"/>
	<linearGradient id="SVGID_8_" gradientUnits="userSpaceOnUse" x1="162" y1="44" x2="162" y2="64">
		<stop  offset="0" style="stop-color:#FFFFFF"/>
		<stop  offset="1" style="stop-color:#FFFFFF;stop-opacity:0.5"/>
	</linearGradient>
	<path fill="url(#SVGID_8_)" d="M156,44v20h12V44H156z M163.833,59.834h-4.167v-4h4.167V59.834z M164,52.167h-3.833v-3.833H164
		V52.167z"/>
	<linearGradient id="SVGID_9_" gradientUnits="userSpaceOnUse" x1="182" y1="40" x2="182" y2="64">
		<stop  offset="0" style="stop-color:#FFFFFF"/>
		<stop  offset="1" style="stop-color:#FFFFFF;stop-opacity:0.5"/>
	</linearGradient>
	<rect x="176" y="40" fill="url(#SVGID_9_)" width="12" height="24"/>
	<linearGradient id="SVGID_10_" gradientUnits="userSpaceOnUse" x1="202" y1="48" x2="202" y2="64">
		<stop  offset="0" style="stop-color:#FFFFFF"/>
		<stop  offset="1" style="stop-color:#FFFFFF;stop-opacity:0.5"/>
	</linearGradient>
	<rect x="196" y="48" fill="url(#SVGID_10_)" width="12" height="16"/>
	<linearGradient id="SVGID_11_" gradientUnits="userSpaceOnUse" x1="224" y1="36" x2="224" y2="64">
		<stop  offset="0" style="stop-color:#FFFFFF"/>
		<stop  offset="1" style="stop-color:#FFFFFF;stop-opacity:0.5"/>
	</linearGradient>
	<polygon fill="url(#SVGID_11_)" points="228,48 228,36 216,36 216,64 220,64 228,64 232,64 232,48 	"/>
	<linearGradient id="SVGID_12_" gradientUnits="userSpaceOnUse" x1="246.3335" y1="44" x2="246.3335" y2="64">
		<stop  offset="0" style="stop-color:#FFFFFF"/>
		<stop  offset="1" style="stop-color:#FFFFFF;stop-opacity:0.5"/>
	</linearGradient>
	<rect x="240.333" y="44" fill="url(#SVGID_12_)" width="12" height="20"/>
	<linearGradient id="SVGID_13_" gradientUnits="userSpaceOnUse" x1="288" y1="40" x2="288" y2="64">
		<stop  offset="0" style="stop-color:#FFFFFF"/>
		<stop  offset="1" style="stop-color:#FFFFFF;stop-opacity:0.5"/>
	</linearGradient>
	<polygon fill="url(#SVGID_13_)" points="284,40 284,52 280,52 280,64 284,64 292,64 296,64 296,40 	"/>
	<linearGradient id="SVGID_14_" gradientUnits="userSpaceOnUse" x1="266" y1="48" x2="266" y2="64">
		<stop  offset="0" style="stop-color:#FFFFFF"/>
		<stop  offset="1" style="stop-color:#FFFFFF;stop-opacity:0.5"/>
	</linearGradient>
	<rect x="260" y="48" fill="url(#SVGID_14_)" width="12" height="16"/>
	<linearGradient id="SVGID_15_" gradientUnits="userSpaceOnUse" x1="310" y1="44" x2="310" y2="64">
		<stop  offset="0" style="stop-color:#FFFFFF"/>
		<stop  offset="1" style="stop-color:#FFFFFF;stop-opacity:0.5"/>
	</linearGradient>
	<rect x="304" y="44" fill="url(#SVGID_15_)" width="12" height="20"/>
	<linearGradient id="SVGID_16_" gradientUnits="userSpaceOnUse" x1="330" y1="48" x2="330" y2="64">
		<stop  offset="0" style="stop-color:#FFFFFF"/>
		<stop  offset="1" style="stop-color:#FFFFFF;stop-opacity:0.5"/>
	</linearGradient>
	<rect x="324" y="48" fill="url(#SVGID_16_)" width="12" height="16"/>
	<linearGradient id="SVGID_17_" gradientUnits="userSpaceOnUse" x1="350" y1="40" x2="350" y2="64">
		<stop  offset="0" style="stop-color:#FFFFFF"/>
		<stop  offset="1" style="stop-color:#FFFFFF;stop-opacity:0.5"/>
	</linearGradient>
	<path fill="url(#SVGID_17_)" d="M344,40v24h12V40H344z M347.75,44h4v2.5h-4V44z M352.25,49v2.5h-4V49H352.25z M347.75,54.166h4v2.5
		h-4V54.166z M352.584,61.834h-4v-2.5h4V61.834z"/>
	<linearGradient id="SVGID_18_" gradientUnits="userSpaceOnUse" x1="372" y1="32" x2="372" y2="64.0005">
		<stop  offset="0" style="stop-color:#FFFFFF"/>
		<stop  offset="1" style="stop-color:#FFFFFF;stop-opacity:0.5"/>
	</linearGradient>
	<polygon fill="url(#SVGID_18_)" points="376,48 376,32 364,32 364,64 368,64 376,64 380,64 380,48 	"/>
	<linearGradient id="SVGID_19_" gradientUnits="userSpaceOnUse" x1="394" y1="44" x2="394" y2="64">
		<stop  offset="0" style="stop-color:#FFFFFF"/>
		<stop  offset="1" style="stop-color:#FFFFFF;stop-opacity:0.5"/>
	</linearGradient>
	<rect x="388" y="44" fill="url(#SVGID_19_)" width="12" height="20"/>
	<linearGradient id="SVGID_20_" gradientUnits="userSpaceOnUse" x1="414" y1="40" x2="414" y2="64">
		<stop  offset="0" style="stop-color:#FFFFFF"/>
		<stop  offset="1" style="stop-color:#FFFFFF;stop-opacity:0.5"/>
	</linearGradient>
	<rect x="408" y="40" fill="url(#SVGID_20_)" width="12" height="24"/>
	<linearGradient id="SVGID_21_" gradientUnits="userSpaceOnUse" x1="434" y1="48" x2="434" y2="64">
		<stop  offset="0" style="stop-color:#FFFFFF"/>
		<stop  offset="1" style="stop-color:#FFFFFF;stop-opacity:0.5"/>
	</linearGradient>
	<rect x="428" y="48" fill="url(#SVGID_21_)" width="12" height="16"/>
	<linearGradient id="SVGID_22_" gradientUnits="userSpaceOnUse" x1="456" y1="40" x2="456" y2="64">
		<stop  offset="0" style="stop-color:#FFFFFF"/>
		<stop  offset="1" style="stop-color:#FFFFFF;stop-opacity:0.5"/>
	</linearGradient>
	<polygon fill="url(#SVGID_22_)" points="452,40 452,52 448,52 448,64 452,64 460,64 464,64 464,40 	"/>
	<linearGradient id="SVGID_23_" gradientUnits="userSpaceOnUse" x1="478" y1="36" x2="478" y2="64">
		<stop  offset="0" style="stop-color:#FFFFFF"/>
		<stop  offset="1" style="stop-color:#FFFFFF;stop-opacity:0.5"/>
	</linearGradient>
	<rect x="472" y="36" fill="url(#SVGID_23_)" width="12" height="28"/>
	<linearGradient id="SVGID_24_" gradientUnits="userSpaceOnUse" x1="498" y1="44" x2="498" y2="64">
		<stop  offset="0" style="stop-color:#FFFFFF"/>
		<stop  offset="1" style="stop-color:#FFFFFF;stop-opacity:0.5"/>
	</linearGradient>
	<rect x="492" y="44" fill="url(#SVGID_24_)" width="12" height="20"/>
	<g>
	</g>
	<g>
	</g>
	<g>
	</g>
	<g>
	</g>
	<g>
	</g>
	<g>
	</g>
</g>
</svg>
