<?xml version="1.0" encoding="utf-8"?>
<!-- Generator: Adobe Illustrator 16.0.3, SVG Export Plug-In . SVG Version: 6.00 Build 0)  -->
<!DOCTYPE svg PUBLIC "-//W3C//DTD SVG 1.1//EN" "http://www.w3.org/Graphics/SVG/1.1/DTD/svg11.dtd">
<svg version="1.1" xmlns="http://www.w3.org/2000/svg" xmlns:xlink="http://www.w3.org/1999/xlink" x="0px" y="0px" width="512px"
	 height="64px" viewBox="0 0 512 64" enable-background="new 0 0 512 64" xml:space="preserve">
<g id="レイヤー_1" display="none">
	<rect display="inline" fill="#E6207D" width="512" height="65.556"/>
</g>
<g id="レイヤー_2" opacity="0.1">
	<polygon points="0,0 8,0 0,8 	"/>
	<polygon points="16,0 0,16 0,24 24,0 	"/>
	<polygon points="32,0 0,32 0,40 40,0 	"/>
	<polygon points="48,0 0,48 0,56 56,0 	"/>
	<polygon points="64,0 0,64 8,64 72,0 	"/>
	<polygon points="80,0 16,64 24,64 88,0 	"/>
	<polygon points="96,0 32,64 40,64 104,0 	"/>
	<polygon points="112,0 48,64 56,64 120,0 	"/>
	<polygon points="128,0 64,64 72,64 136,0 	"/>
	<polygon points="144,0 80,64 88,64 152,0 	"/>
	<polygon points="160,0 96,64 104,64 168,0 	"/>
	<polygon points="176,0 112,64 120,64 184,0 	"/>
	<polygon points="192,0 128,64 136,64 200,0 	"/>
	<polygon points="208,0 144,64 152,64 216,0 	"/>
	<polygon points="224,0 160,64 168,64 232,0 	"/>
	<polygon points="240,0 176,64 184,64 248,0 	"/>
	<polygon points="256,0 192,64 200,64 264,0 	"/>
	<polygon points="272,0 208,64 216,64 280,0 	"/>
	<polygon points="288,0 224,64 232,64 296,0 	"/>
	<polygon points="304,0 240,64 248,64 312,0 	"/>
	<polygon points="320,0 256,64 264,64 328,0 	"/>
	<polygon points="336,0 272,64 280,64 344,0 	"/>
	<polygon points="352,0 288,64 296,64 360,0 	"/>
	<polygon points="368,0 304,64 312,64 376,0 	"/>
	<polygon points="384,0 320,64 328,64 392,0 	"/>
	<polygon points="400,0 336,64 344,64 408,0 	"/>
	<polygon points="416,0 352,64 360,64 424,0 	"/>
	<polygon points="432,0 368,64 376,64 440,0 	"/>
	<polygon points="448,0 384,64 392,64 456,0 	"/>
	<polygon points="464,0 400,64 408,64 472,0 	"/>
	<polygon points="480,0 416,64 424,64 488,0 	"/>
	<polygon points="496,0 432,64 440,64 504,0 	"/>
	<polygon points="512,0 448,64 456,64 512,8 	"/>
	<polygon points="512,16 464,64 472,64 512,24 	"/>
	<polygon points="512,32 480,64 488,64 512,40 	"/>
	<polygon points="512,48 496,64 504,64 512,56 	"/>
	<g>
	</g>
	<g>
	</g>
	<g>
	</g>
	<g>
	</g>
	<g>
	</g>
	<g>
	</g>
</g>
</svg>
