<?xml version="1.0" encoding="utf-8"?>
<!-- Generator: Adobe Illustrator 16.0.3, SVG Export Plug-In . SVG Version: 6.00 Build 0)  -->
<!DOCTYPE svg PUBLIC "-//W3C//DTD SVG 1.1//EN" "http://www.w3.org/Graphics/SVG/1.1/DTD/svg11.dtd">
<svg version="1.1" xmlns="http://www.w3.org/2000/svg" xmlns:xlink="http://www.w3.org/1999/xlink" x="0px" y="0px" width="512px"
	 height="64px" viewBox="0 0 512 64" enable-background="new 0 0 512 64" xml:space="preserve">
<g id="レイヤー_1" display="none">
	<rect display="inline" fill="#E6207D" width="512" height="64"/>
</g>
<g id="レイヤー_2">
	<linearGradient id="SVGID_1_" gradientUnits="userSpaceOnUse" x1="255.9995" y1="0" x2="255.9995" y2="64.0005">
		<stop  offset="0" style="stop-color:#FFFFFF;stop-opacity:0.5"/>
		<stop  offset="1" style="stop-color:#FFFFFF;stop-opacity:0.1"/>
	</linearGradient>
	<path fill="url(#SVGID_1_)" d="M0,2c0-1.104,0.896-2,2-2s2,0.896,2,2S3.104,4,2,4S0,3.104,0,2z M10,4c1.104,0,2-0.896,2-2
		s-0.896-2-2-2S8,0.896,8,2S8.896,4,10,4z M6,10c1.104,0,2-0.896,2-2S7.104,6,6,6S4,6.896,4,8S4.896,10,6,10z M14,10
		c1.104,0,2-0.896,2-2s-0.896-2-2-2s-2,0.896-2,2S12.896,10,14,10z M2,16c1.104,0,2-0.896,2-2s-0.896-2-2-2s-2,0.896-2,2
		S0.896,16,2,16z M10,12c-1.104,0-2,0.896-2,2s0.896,2,2,2s2-0.896,2-2S11.104,12,10,12z M6,18c-1.104,0-2,0.896-2,2s0.896,2,2,2
		s2-0.896,2-2S7.104,18,6,18z M14,18c-1.104,0-2,0.896-2,2s0.896,2,2,2s2-0.896,2-2S15.104,18,14,18z M2,28c1.104,0,2-0.896,2-2
		s-0.896-2-2-2s-2,0.896-2,2S0.896,28,2,28z M10,28c1.104,0,2-0.896,2-2s-0.896-2-2-2s-2,0.896-2,2S8.896,28,10,28z M6,34
		c1.104,0,2-0.896,2-2s-0.896-2-2-2s-2,0.896-2,2S4.896,34,6,34z M14,30c-1.104,0-2,0.896-2,2s0.896,2,2,2s2-0.896,2-2
		S15.104,30,14,30z M2,40c1.104,0,2-0.896,2-2s-0.896-2-2-2s-2,0.896-2,2S0.896,40,2,40z M10,36c-1.104,0-2,0.896-2,2s0.896,2,2,2
		s2-0.896,2-2S11.104,36,10,36z M6,46c1.104,0,2-0.896,2-2s-0.896-2-2-2s-2,0.896-2,2S4.896,46,6,46z M14,46c1.104,0,2-0.896,2-2
		s-0.896-2-2-2s-2,0.896-2,2S12.896,46,14,46z M2,52c1.104,0,2-0.896,2-2s-0.896-2-2-2s-2,0.896-2,2S0.896,52,2,52z M10,52
		c1.104,0,2-0.896,2-2s-0.896-2-2-2s-2,0.896-2,2S8.896,52,10,52z M6,54c-1.104,0-2,0.896-2,2s0.896,2,2,2s2-0.896,2-2
		S7.104,54,6,54z M14,54c-1.104,0-2,0.896-2,2s0.896,2,2,2s2-0.896,2-2S15.104,54,14,54z M18,4c1.104,0,2-0.896,2-2s-0.896-2-2-2
		s-2,0.896-2,2S16.896,4,18,4z M26,4c1.104,0,2-0.896,2-2s-0.896-2-2-2s-2,0.896-2,2S24.896,4,26,4z M22,10c1.104,0,2-0.896,2-2
		s-0.896-2-2-2s-2,0.896-2,2S20.896,10,22,10z M30,10c1.104,0,2-0.896,2-2s-0.896-2-2-2s-2,0.896-2,2S28.896,10,30,10z M18,12
		c-1.104,0-2,0.896-2,2s0.896,2,2,2s2-0.896,2-2S19.104,12,18,12z M26,12c-1.104,0-2,0.896-2,2s0.896,2,2,2s2-0.896,2-2
		S27.104,12,26,12z M22,18c-1.104,0-2,0.896-2,2s0.896,2,2,2s2-0.896,2-2S23.104,18,22,18z M30,18c-1.104,0-2,0.896-2,2s0.896,2,2,2
		s2-0.896,2-2S31.104,18,30,18z M18,28c1.104,0,2-0.896,2-2s-0.896-2-2-2s-2,0.896-2,2S16.896,28,18,28z M26,28c1.104,0,2-0.896,2-2
		s-0.896-2-2-2s-2,0.896-2,2S24.896,28,26,28z M22,30c-1.104,0-2,0.896-2,2s0.896,2,2,2s2-0.896,2-2S23.104,30,22,30z M30,30
		c-1.104,0-2,0.896-2,2s0.896,2,2,2s2-0.896,2-2S31.104,30,30,30z M18,36c-1.104,0-2,0.896-2,2s0.896,2,2,2s2-0.896,2-2
		S19.104,36,18,36z M26,36c-1.104,0-2,0.896-2,2s0.896,2,2,2s2-0.896,2-2S27.104,36,26,36z M22,46c1.104,0,2-0.896,2-2s-0.896-2-2-2
		s-2,0.896-2,2S20.896,46,22,46z M30,46c1.104,0,2-0.896,2-2s-0.896-2-2-2s-2,0.896-2,2S28.896,46,30,46z M18,52
		c1.104,0,2-0.896,2-2s-0.896-2-2-2s-2,0.896-2,2S16.896,52,18,52z M26,52c1.104,0,2-0.896,2-2s-0.896-2-2-2s-2,0.896-2,2
		S24.896,52,26,52z M22,54c-1.104,0-2,0.896-2,2s0.896,2,2,2s2-0.896,2-2S23.104,54,22,54z M30,54c-1.104,0-2,0.896-2,2s0.896,2,2,2
		s2-0.896,2-2S31.104,54,30,54z M34,4c1.104,0,2-0.896,2-2s-0.896-2-2-2s-2,0.896-2,2S32.896,4,34,4z M42,4c1.104,0,2-0.896,2-2
		s-0.896-2-2-2s-2,0.896-2,2S40.896,4,42,4z M38,10c1.104,0,2-0.896,2-2s-0.896-2-2-2s-2,0.896-2,2S36.896,10,38,10z M46,10
		c1.104,0,2-0.896,2-2s-0.896-2-2-2s-2,0.896-2,2S44.896,10,46,10z M34,12c-1.104,0-2,0.896-2,2s0.896,2,2,2s2-0.896,2-2
		S35.104,12,34,12z M42,12c-1.104,0-2,0.896-2,2s0.896,2,2,2s2-0.896,2-2S43.104,12,42,12z M38,18c-1.104,0-2,0.896-2,2s0.896,2,2,2
		s2-0.896,2-2S39.104,18,38,18z M46,18c-1.104,0-2,0.896-2,2s0.896,2,2,2s2-0.896,2-2S47.104,18,46,18z M34,28c1.104,0,2-0.896,2-2
		s-0.896-2-2-2s-2,0.896-2,2S32.896,28,34,28z M42,28c1.104,0,2-0.896,2-2s-0.896-2-2-2s-2,0.896-2,2S40.896,28,42,28z M38,30
		c-1.104,0-2,0.896-2,2s0.896,2,2,2s2-0.896,2-2S39.104,30,38,30z M46,30c-1.104,0-2,0.896-2,2s0.896,2,2,2s2-0.896,2-2
		S47.104,30,46,30z M34,36c-1.104,0-2,0.896-2,2s0.896,2,2,2s2-0.896,2-2S35.104,36,34,36z M42,36c-1.104,0-2,0.896-2,2s0.896,2,2,2
		s2-0.896,2-2S43.104,36,42,36z M38,46c1.104,0,2-0.896,2-2s-0.896-2-2-2s-2,0.896-2,2S36.896,46,38,46z M46,46c1.104,0,2-0.896,2-2
		s-0.896-2-2-2s-2,0.896-2,2S44.896,46,46,46z M34,52c1.104,0,2-0.896,2-2s-0.896-2-2-2s-2,0.896-2,2S32.896,52,34,52z M42,52
		c1.104,0,2-0.896,2-2s-0.896-2-2-2s-2,0.896-2,2S40.896,52,42,52z M38,54c-1.104,0-2,0.896-2,2s0.896,2,2,2s2-0.896,2-2
		S39.104,54,38,54z M46,54c-1.104,0-2,0.896-2,2s0.896,2,2,2s2-0.896,2-2S47.104,54,46,54z M50,4c1.104,0,2-0.896,2-2s-0.896-2-2-2
		s-2,0.896-2,2S48.896,4,50,4z M58,4c1.104,0,2-0.896,2-2s-0.896-2-2-2s-2,0.896-2,2S56.896,4,58,4z M54,10c1.104,0,2-0.896,2-2
		s-0.896-2-2-2s-2,0.896-2,2S52.896,10,54,10z M62,10c1.104,0,2-0.896,2-2s-0.896-2-2-2s-2,0.896-2,2S60.896,10,62,10z M50,12
		c-1.104,0-2,0.896-2,2s0.896,2,2,2s2-0.896,2-2S51.104,12,50,12z M58,12c-1.104,0-2,0.896-2,2s0.896,2,2,2s2-0.896,2-2
		S59.104,12,58,12z M54,18c-1.104,0-2,0.896-2,2s0.896,2,2,2s2-0.896,2-2S55.104,18,54,18z M62,18c-1.104,0-2,0.896-2,2s0.896,2,2,2
		s2-0.896,2-2S63.104,18,62,18z M50,28c1.104,0,2-0.896,2-2s-0.896-2-2-2s-2,0.896-2,2S48.896,28,50,28z M58,28c1.104,0,2-0.896,2-2
		s-0.896-2-2-2s-2,0.896-2,2S56.896,28,58,28z M54,30c-1.104,0-2,0.896-2,2s0.896,2,2,2s2-0.896,2-2S55.104,30,54,30z M62,30
		c-1.104,0-2,0.896-2,2s0.896,2,2,2s2-0.896,2-2S63.104,30,62,30z M50,36c-1.104,0-2,0.896-2,2s0.896,2,2,2s2-0.896,2-2
		S51.104,36,50,36z M58,36c-1.104,0-2,0.896-2,2s0.896,2,2,2s2-0.896,2-2S59.104,36,58,36z M54,46c1.104,0,2-0.896,2-2s-0.896-2-2-2
		s-2,0.896-2,2S52.896,46,54,46z M62,46c1.104,0,2-0.896,2-2s-0.896-2-2-2s-2,0.896-2,2S60.896,46,62,46z M50,52
		c1.104,0,2-0.896,2-2s-0.896-2-2-2s-2,0.896-2,2S48.896,52,50,52z M58,52c1.104,0,2-0.896,2-2s-0.896-2-2-2s-2,0.896-2,2
		S56.896,52,58,52z M54,54c-1.104,0-2,0.896-2,2s0.896,2,2,2s2-0.896,2-2S55.104,54,54,54z M62,54c-1.104,0-2,0.896-2,2s0.896,2,2,2
		s2-0.896,2-2S63.104,54,62,54z M66,4c1.104,0,2-0.896,2-2s-0.896-2-2-2s-2,0.896-2,2S64.896,4,66,4z M74,4c1.104,0,2-0.896,2-2
		s-0.896-2-2-2s-2,0.896-2,2S72.896,4,74,4z M70,10c1.104,0,2-0.896,2-2s-0.896-2-2-2s-2,0.896-2,2S68.896,10,70,10z M78,10
		c1.104,0,2-0.896,2-2s-0.896-2-2-2s-2,0.896-2,2S76.896,10,78,10z M66,12c-1.104,0-2,0.896-2,2s0.896,2,2,2s2-0.896,2-2
		S67.104,12,66,12z M74,12c-1.104,0-2,0.896-2,2s0.896,2,2,2s2-0.896,2-2S75.104,12,74,12z M70,18c-1.104,0-2,0.896-2,2s0.896,2,2,2
		s2-0.896,2-2S71.104,18,70,18z M78,18c-1.104,0-2,0.896-2,2s0.896,2,2,2s2-0.896,2-2S79.104,18,78,18z M66,28c1.104,0,2-0.896,2-2
		s-0.896-2-2-2s-2,0.896-2,2S64.896,28,66,28z M74,28c1.104,0,2-0.896,2-2s-0.896-2-2-2s-2,0.896-2,2S72.896,28,74,28z M70,30
		c-1.104,0-2,0.896-2,2s0.896,2,2,2s2-0.896,2-2S71.104,30,70,30z M78,30c-1.104,0-2,0.896-2,2s0.896,2,2,2s2-0.896,2-2
		S79.104,30,78,30z M66,36c-1.104,0-2,0.896-2,2s0.896,2,2,2s2-0.896,2-2S67.104,36,66,36z M74,36c-1.104,0-2,0.896-2,2s0.896,2,2,2
		s2-0.896,2-2S75.104,36,74,36z M70,46c1.104,0,2-0.896,2-2s-0.896-2-2-2s-2,0.896-2,2S68.896,46,70,46z M78,46c1.104,0,2-0.896,2-2
		s-0.896-2-2-2s-2,0.896-2,2S76.896,46,78,46z M66,52c1.104,0,2-0.896,2-2s-0.896-2-2-2s-2,0.896-2,2S64.896,52,66,52z M74,52
		c1.104,0,2-0.896,2-2s-0.896-2-2-2s-2,0.896-2,2S72.896,52,74,52z M70,54c-1.104,0-2,0.896-2,2s0.896,2,2,2s2-0.896,2-2
		S71.104,54,70,54z M78,54c-1.104,0-2,0.896-2,2s0.896,2,2,2s2-0.896,2-2S79.104,54,78,54z M82,4c1.104,0,2-0.896,2-2s-0.896-2-2-2
		s-2,0.896-2,2S80.896,4,82,4z M90,4c1.104,0,2-0.896,2-2s-0.896-2-2-2s-2,0.896-2,2S88.896,4,90,4z M86,10c1.104,0,2-0.896,2-2
		s-0.896-2-2-2s-2,0.896-2,2S84.896,10,86,10z M94,10c1.104,0,2-0.896,2-2s-0.896-2-2-2s-2,0.896-2,2S92.896,10,94,10z M82,12
		c-1.104,0-2,0.896-2,2s0.896,2,2,2s2-0.896,2-2S83.104,12,82,12z M90,12c-1.104,0-2,0.896-2,2s0.896,2,2,2s2-0.896,2-2
		S91.104,12,90,12z M86,18c-1.104,0-2,0.896-2,2s0.896,2,2,2s2-0.896,2-2S87.104,18,86,18z M94,18c-1.104,0-2,0.896-2,2s0.896,2,2,2
		s2-0.896,2-2S95.104,18,94,18z M82,28c1.104,0,2-0.896,2-2s-0.896-2-2-2s-2,0.896-2,2S80.896,28,82,28z M90,28c1.104,0,2-0.896,2-2
		s-0.896-2-2-2s-2,0.896-2,2S88.896,28,90,28z M86,30c-1.104,0-2,0.896-2,2s0.896,2,2,2s2-0.896,2-2S87.104,30,86,30z M94,30
		c-1.104,0-2,0.896-2,2s0.896,2,2,2s2-0.896,2-2S95.104,30,94,30z M82,36c-1.104,0-2,0.896-2,2s0.896,2,2,2s2-0.896,2-2
		S83.104,36,82,36z M90,36c-1.104,0-2,0.896-2,2s0.896,2,2,2s2-0.896,2-2S91.104,36,90,36z M86,46c1.104,0,2-0.896,2-2s-0.896-2-2-2
		s-2,0.896-2,2S84.896,46,86,46z M94,46c1.104,0,2-0.896,2-2s-0.896-2-2-2s-2,0.896-2,2S92.896,46,94,46z M82,52
		c1.104,0,2-0.896,2-2s-0.896-2-2-2s-2,0.896-2,2S80.896,52,82,52z M90,52c1.104,0,2-0.896,2-2s-0.896-2-2-2s-2,0.896-2,2
		S88.896,52,90,52z M86,54c-1.104,0-2,0.896-2,2s0.896,2,2,2s2-0.896,2-2S87.104,54,86,54z M94,54c-1.104,0-2,0.896-2,2s0.896,2,2,2
		s2-0.896,2-2S95.104,54,94,54z M98,4c1.104,0,2-0.896,2-2s-0.896-2-2-2s-2,0.896-2,2S96.896,4,98,4z M106,4c1.104,0,2-0.896,2-2
		s-0.896-2-2-2s-2,0.896-2,2S104.896,4,106,4z M102,10c1.104,0,2-0.896,2-2s-0.896-2-2-2s-2,0.896-2,2S100.896,10,102,10z M110,10
		c1.104,0,2-0.896,2-2s-0.896-2-2-2s-2,0.896-2,2S108.896,10,110,10z M98,12c-1.104,0-2,0.896-2,2s0.896,2,2,2s2-0.896,2-2
		S99.104,12,98,12z M106,12c-1.104,0-2,0.896-2,2s0.896,2,2,2s2-0.896,2-2S107.104,12,106,12z M102,18c-1.104,0-2,0.896-2,2
		s0.896,2,2,2s2-0.896,2-2S103.104,18,102,18z M110,18c-1.104,0-2,0.896-2,2s0.896,2,2,2s2-0.896,2-2S111.104,18,110,18z M98,28
		c1.104,0,2-0.896,2-2s-0.896-2-2-2s-2,0.896-2,2S96.896,28,98,28z M106,28c1.104,0,2-0.896,2-2s-0.896-2-2-2s-2,0.896-2,2
		S104.896,28,106,28z M102,30c-1.104,0-2,0.896-2,2s0.896,2,2,2s2-0.896,2-2S103.104,30,102,30z M110,30c-1.104,0-2,0.896-2,2
		s0.896,2,2,2s2-0.896,2-2S111.104,30,110,30z M98,36c-1.104,0-2,0.896-2,2s0.896,2,2,2s2-0.896,2-2S99.104,36,98,36z M106,36
		c-1.104,0-2,0.896-2,2s0.896,2,2,2s2-0.896,2-2S107.104,36,106,36z M102,46c1.104,0,2-0.896,2-2s-0.896-2-2-2s-2,0.896-2,2
		S100.896,46,102,46z M110,46c1.104,0,2-0.896,2-2s-0.896-2-2-2s-2,0.896-2,2S108.896,46,110,46z M98,52c1.104,0,2-0.896,2-2
		s-0.896-2-2-2s-2,0.896-2,2S96.896,52,98,52z M106,52c1.104,0,2-0.896,2-2s-0.896-2-2-2s-2,0.896-2,2S104.896,52,106,52z M102,54
		c-1.104,0-2,0.896-2,2s0.896,2,2,2s2-0.896,2-2S103.104,54,102,54z M110,54c-1.104,0-2,0.896-2,2s0.896,2,2,2s2-0.896,2-2
		S111.104,54,110,54z M114,4c1.104,0,2-0.896,2-2s-0.896-2-2-2s-2,0.896-2,2S112.896,4,114,4z M122,4c1.104,0,2-0.896,2-2
		s-0.896-2-2-2s-2,0.896-2,2S120.896,4,122,4z M118,10c1.104,0,2-0.896,2-2s-0.896-2-2-2s-2,0.896-2,2S116.896,10,118,10z M126,10
		c1.104,0,2-0.896,2-2s-0.896-2-2-2s-2,0.896-2,2S124.896,10,126,10z M114,12c-1.104,0-2,0.896-2,2s0.896,2,2,2s2-0.896,2-2
		S115.104,12,114,12z M122,12c-1.104,0-2,0.896-2,2s0.896,2,2,2s2-0.896,2-2S123.104,12,122,12z M118,18c-1.104,0-2,0.896-2,2
		s0.896,2,2,2s2-0.896,2-2S119.104,18,118,18z M126,18c-1.104,0-2,0.896-2,2s0.896,2,2,2s2-0.896,2-2S127.104,18,126,18z M114,28
		c1.104,0,2-0.896,2-2s-0.896-2-2-2s-2,0.896-2,2S112.896,28,114,28z M122,28c1.104,0,2-0.896,2-2s-0.896-2-2-2s-2,0.896-2,2
		S120.896,28,122,28z M118,30c-1.104,0-2,0.896-2,2s0.896,2,2,2s2-0.896,2-2S119.104,30,118,30z M126,30c-1.104,0-2,0.896-2,2
		s0.896,2,2,2s2-0.896,2-2S127.104,30,126,30z M114,36c-1.104,0-2,0.896-2,2s0.896,2,2,2s2-0.896,2-2S115.104,36,114,36z M122,36
		c-1.104,0-2,0.896-2,2s0.896,2,2,2s2-0.896,2-2S123.104,36,122,36z M118,46c1.104,0,2-0.896,2-2s-0.896-2-2-2s-2,0.896-2,2
		S116.896,46,118,46z M126,46c1.104,0,2-0.896,2-2s-0.896-2-2-2s-2,0.896-2,2S124.896,46,126,46z M114,52c1.104,0,2-0.896,2-2
		s-0.896-2-2-2s-2,0.896-2,2S112.896,52,114,52z M122,52c1.104,0,2-0.896,2-2s-0.896-2-2-2s-2,0.896-2,2S120.896,52,122,52z M118,54
		c-1.104,0-2,0.896-2,2s0.896,2,2,2s2-0.896,2-2S119.104,54,118,54z M126,54c-1.104,0-2,0.896-2,2s0.896,2,2,2s2-0.896,2-2
		S127.104,54,126,54z M2,60c-1.104,0-2,0.896-2,2s0.896,2,2,2s2-0.896,2-2S3.104,60,2,60z M10,60c-1.104,0-2,0.896-2,2s0.896,2,2,2
		s2-0.896,2-2S11.104,60,10,60z M18,60c-1.104,0-2,0.896-2,2s0.896,2,2,2s2-0.896,2-2S19.104,60,18,60z M26,60c-1.104,0-2,0.896-2,2
		s0.896,2,2,2s2-0.896,2-2S27.104,60,26,60z M34,60c-1.104,0-2,0.896-2,2s0.896,2,2,2s2-0.896,2-2S35.104,60,34,60z M42,60
		c-1.104,0-2,0.896-2,2s0.896,2,2,2s2-0.896,2-2S43.104,60,42,60z M50,60c-1.104,0-2,0.896-2,2s0.896,2,2,2s2-0.896,2-2
		S51.104,60,50,60z M58,60c-1.104,0-2,0.896-2,2s0.896,2,2,2s2-0.896,2-2S59.104,60,58,60z M66,60c-1.104,0-2,0.896-2,2s0.896,2,2,2
		s2-0.896,2-2S67.104,60,66,60z M74,60c-1.104,0-2,0.896-2,2s0.896,2,2,2s2-0.896,2-2S75.104,60,74,60z M82,60c-1.104,0-2,0.896-2,2
		s0.896,2,2,2s2-0.896,2-2S83.104,60,82,60z M90,60c-1.104,0-2,0.896-2,2s0.896,2,2,2s2-0.896,2-2S91.104,60,90,60z M98,60
		c-1.104,0-2,0.896-2,2s0.896,2,2,2s2-0.896,2-2S99.104,60,98,60z M106,60c-1.104,0-2,0.896-2,2s0.896,2,2,2s2-0.896,2-2
		S107.104,60,106,60z M114,60c-1.104,0-2,0.896-2,2s0.896,2,2,2s2-0.896,2-2S115.104,60,114,60z M122,60c-1.104,0-2,0.896-2,2
		s0.896,2,2,2s2-0.896,2-2S123.104,60,122,60z M130,4c1.104,0,2-0.896,2-2s-0.896-2-2-2s-2,0.896-2,2S128.896,4,130,4z M138,4
		c1.104,0,2-0.896,2-2s-0.896-2-2-2s-2,0.896-2,2S136.896,4,138,4z M134,10c1.104,0,2-0.896,2-2s-0.896-2-2-2s-2,0.896-2,2
		S132.896,10,134,10z M142,10c1.104,0,2-0.896,2-2s-0.896-2-2-2s-2,0.896-2,2S140.896,10,142,10z M130,12c-1.104,0-2,0.896-2,2
		s0.896,2,2,2s2-0.896,2-2S131.104,12,130,12z M138,12c-1.104,0-2,0.896-2,2s0.896,2,2,2s2-0.896,2-2S139.104,12,138,12z M134,18
		c-1.104,0-2,0.896-2,2s0.896,2,2,2s2-0.896,2-2S135.104,18,134,18z M142,18c-1.104,0-2,0.896-2,2s0.896,2,2,2s2-0.896,2-2
		S143.104,18,142,18z M130,28c1.104,0,2-0.896,2-2s-0.896-2-2-2s-2,0.896-2,2S128.896,28,130,28z M138,28c1.104,0,2-0.896,2-2
		s-0.896-2-2-2s-2,0.896-2,2S136.896,28,138,28z M134,30c-1.104,0-2,0.896-2,2s0.896,2,2,2s2-0.896,2-2S135.104,30,134,30z M142,30
		c-1.104,0-2,0.896-2,2s0.896,2,2,2s2-0.896,2-2S143.104,30,142,30z M130,36c-1.104,0-2,0.896-2,2s0.896,2,2,2s2-0.896,2-2
		S131.104,36,130,36z M138,36c-1.104,0-2,0.896-2,2s0.896,2,2,2s2-0.896,2-2S139.104,36,138,36z M134,46c1.104,0,2-0.896,2-2
		s-0.896-2-2-2s-2,0.896-2,2S132.896,46,134,46z M142,46c1.104,0,2-0.896,2-2s-0.896-2-2-2s-2,0.896-2,2S140.896,46,142,46z M130,52
		c1.104,0,2-0.896,2-2s-0.896-2-2-2s-2,0.896-2,2S128.896,52,130,52z M138,52c1.104,0,2-0.896,2-2s-0.896-2-2-2s-2,0.896-2,2
		S136.896,52,138,52z M134,54c-1.104,0-2,0.896-2,2s0.896,2,2,2s2-0.896,2-2S135.104,54,134,54z M142,54c-1.104,0-2,0.896-2,2
		s0.896,2,2,2s2-0.896,2-2S143.104,54,142,54z M146,4c1.104,0,2-0.896,2-2s-0.896-2-2-2s-2,0.896-2,2S144.896,4,146,4z M154,4
		c1.104,0,2-0.896,2-2s-0.896-2-2-2s-2,0.896-2,2S152.896,4,154,4z M150,10c1.104,0,2-0.896,2-2s-0.896-2-2-2s-2,0.896-2,2
		S148.896,10,150,10z M158,10c1.104,0,2-0.896,2-2s-0.896-2-2-2s-2,0.896-2,2S156.896,10,158,10z M146,12c-1.104,0-2,0.896-2,2
		s0.896,2,2,2s2-0.896,2-2S147.104,12,146,12z M154,12c-1.104,0-2,0.896-2,2s0.896,2,2,2s2-0.896,2-2S155.104,12,154,12z M150,18
		c-1.104,0-2,0.896-2,2s0.896,2,2,2s2-0.896,2-2S151.104,18,150,18z M158,18c-1.104,0-2,0.896-2,2s0.896,2,2,2s2-0.896,2-2
		S159.104,18,158,18z M146,28c1.104,0,2-0.896,2-2s-0.896-2-2-2s-2,0.896-2,2S144.896,28,146,28z M154,28c1.104,0,2-0.896,2-2
		s-0.896-2-2-2s-2,0.896-2,2S152.896,28,154,28z M150,30c-1.104,0-2,0.896-2,2s0.896,2,2,2s2-0.896,2-2S151.104,30,150,30z M158,30
		c-1.104,0-2,0.896-2,2s0.896,2,2,2s2-0.896,2-2S159.104,30,158,30z M146,36c-1.104,0-2,0.896-2,2s0.896,2,2,2s2-0.896,2-2
		S147.104,36,146,36z M154,36c-1.104,0-2,0.896-2,2s0.896,2,2,2s2-0.896,2-2S155.104,36,154,36z M150,46c1.104,0,2-0.896,2-2
		s-0.896-2-2-2s-2,0.896-2,2S148.896,46,150,46z M158,46c1.104,0,2-0.896,2-2s-0.896-2-2-2s-2,0.896-2,2S156.896,46,158,46z M146,52
		c1.104,0,2-0.896,2-2s-0.896-2-2-2s-2,0.896-2,2S144.896,52,146,52z M154,52c1.104,0,2-0.896,2-2s-0.896-2-2-2s-2,0.896-2,2
		S152.896,52,154,52z M150,54c-1.104,0-2,0.896-2,2s0.896,2,2,2s2-0.896,2-2S151.104,54,150,54z M158,54c-1.104,0-2,0.896-2,2
		s0.896,2,2,2s2-0.896,2-2S159.104,54,158,54z M162,4c1.104,0,2-0.896,2-2s-0.896-2-2-2s-2,0.896-2,2S160.896,4,162,4z M170,4
		c1.104,0,2-0.896,2-2s-0.896-2-2-2s-2,0.896-2,2S168.896,4,170,4z M166,10c1.104,0,2-0.896,2-2s-0.896-2-2-2s-2,0.896-2,2
		S164.896,10,166,10z M174,10c1.104,0,2-0.896,2-2s-0.896-2-2-2s-2,0.896-2,2S172.896,10,174,10z M162,12c-1.104,0-2,0.896-2,2
		s0.896,2,2,2s2-0.896,2-2S163.104,12,162,12z M170,12c-1.104,0-2,0.896-2,2s0.896,2,2,2s2-0.896,2-2S171.104,12,170,12z M166,18
		c-1.104,0-2,0.896-2,2s0.896,2,2,2s2-0.896,2-2S167.104,18,166,18z M174,18c-1.104,0-2,0.896-2,2s0.896,2,2,2s2-0.896,2-2
		S175.104,18,174,18z M162,28c1.104,0,2-0.896,2-2s-0.896-2-2-2s-2,0.896-2,2S160.896,28,162,28z M170,28c1.104,0,2-0.896,2-2
		s-0.896-2-2-2s-2,0.896-2,2S168.896,28,170,28z M166,30c-1.104,0-2,0.896-2,2s0.896,2,2,2s2-0.896,2-2S167.104,30,166,30z M174,30
		c-1.104,0-2,0.896-2,2s0.896,2,2,2s2-0.896,2-2S175.104,30,174,30z M162,36c-1.104,0-2,0.896-2,2s0.896,2,2,2s2-0.896,2-2
		S163.104,36,162,36z M170,36c-1.104,0-2,0.896-2,2s0.896,2,2,2s2-0.896,2-2S171.104,36,170,36z M166,46c1.104,0,2-0.896,2-2
		s-0.896-2-2-2s-2,0.896-2,2S164.896,46,166,46z M174,46c1.104,0,2-0.896,2-2s-0.896-2-2-2s-2,0.896-2,2S172.896,46,174,46z M162,52
		c1.104,0,2-0.896,2-2s-0.896-2-2-2s-2,0.896-2,2S160.896,52,162,52z M170,52c1.104,0,2-0.896,2-2s-0.896-2-2-2s-2,0.896-2,2
		S168.896,52,170,52z M166,54c-1.104,0-2,0.896-2,2s0.896,2,2,2s2-0.896,2-2S167.104,54,166,54z M174,54c-1.104,0-2,0.896-2,2
		s0.896,2,2,2s2-0.896,2-2S175.104,54,174,54z M178,4c1.104,0,2-0.896,2-2s-0.896-2-2-2s-2,0.896-2,2S176.896,4,178,4z M186,4
		c1.104,0,2-0.896,2-2s-0.896-2-2-2s-2,0.896-2,2S184.896,4,186,4z M182,10c1.104,0,2-0.896,2-2s-0.896-2-2-2s-2,0.896-2,2
		S180.896,10,182,10z M190,10c1.104,0,2-0.896,2-2s-0.896-2-2-2s-2,0.896-2,2S188.896,10,190,10z M178,12c-1.104,0-2,0.896-2,2
		s0.896,2,2,2s2-0.896,2-2S179.104,12,178,12z M186,12c-1.104,0-2,0.896-2,2s0.896,2,2,2s2-0.896,2-2S187.104,12,186,12z M182,18
		c-1.104,0-2,0.896-2,2s0.896,2,2,2s2-0.896,2-2S183.104,18,182,18z M190,18c-1.104,0-2,0.896-2,2s0.896,2,2,2s2-0.896,2-2
		S191.104,18,190,18z M178,28c1.104,0,2-0.896,2-2s-0.896-2-2-2s-2,0.896-2,2S176.896,28,178,28z M186,28c1.104,0,2-0.896,2-2
		s-0.896-2-2-2s-2,0.896-2,2S184.896,28,186,28z M182,30c-1.104,0-2,0.896-2,2s0.896,2,2,2s2-0.896,2-2S183.104,30,182,30z M190,30
		c-1.104,0-2,0.896-2,2s0.896,2,2,2s2-0.896,2-2S191.104,30,190,30z M178,36c-1.104,0-2,0.896-2,2s0.896,2,2,2s2-0.896,2-2
		S179.104,36,178,36z M186,36c-1.104,0-2,0.896-2,2s0.896,2,2,2s2-0.896,2-2S187.104,36,186,36z M182,46c1.104,0,2-0.896,2-2
		s-0.896-2-2-2s-2,0.896-2,2S180.896,46,182,46z M190,46c1.104,0,2-0.896,2-2s-0.896-2-2-2s-2,0.896-2,2S188.896,46,190,46z M178,52
		c1.104,0,2-0.896,2-2s-0.896-2-2-2s-2,0.896-2,2S176.896,52,178,52z M186,52c1.104,0,2-0.896,2-2s-0.896-2-2-2s-2,0.896-2,2
		S184.896,52,186,52z M182,54c-1.104,0-2,0.896-2,2s0.896,2,2,2s2-0.896,2-2S183.104,54,182,54z M190,54c-1.104,0-2,0.896-2,2
		s0.896,2,2,2s2-0.896,2-2S191.104,54,190,54z M130,60c-1.104,0-2,0.896-2,2s0.896,2,2,2s2-0.896,2-2S131.104,60,130,60z M138,60
		c-1.104,0-2,0.896-2,2s0.896,2,2,2s2-0.896,2-2S139.104,60,138,60z M146,60c-1.104,0-2,0.896-2,2s0.896,2,2,2s2-0.896,2-2
		S147.104,60,146,60z M154,60c-1.104,0-2,0.896-2,2s0.896,2,2,2s2-0.896,2-2S155.104,60,154,60z M162,60c-1.104,0-2,0.896-2,2
		s0.896,2,2,2s2-0.896,2-2S163.104,60,162,60z M170,60c-1.104,0-2,0.896-2,2s0.896,2,2,2s2-0.896,2-2S171.104,60,170,60z M178,60
		c-1.104,0-2,0.896-2,2s0.896,2,2,2s2-0.896,2-2S179.104,60,178,60z M186,60c-1.104,0-2,0.896-2,2s0.896,2,2,2s2-0.896,2-2
		S187.104,60,186,60z M193.75,4c1.104,0,2-0.896,2-2s-0.896-2-2-2s-2,0.896-2,2S192.646,4,193.75,4z M201.75,4c1.104,0,2-0.896,2-2
		s-0.896-2-2-2s-2,0.896-2,2S200.646,4,201.75,4z M197.75,10c1.104,0,2-0.896,2-2s-0.896-2-2-2s-2,0.896-2,2S196.646,10,197.75,10z
		 M205.75,10c1.104,0,2-0.896,2-2s-0.896-2-2-2s-2,0.896-2,2S204.646,10,205.75,10z M193.75,12c-1.104,0-2,0.896-2,2s0.896,2,2,2
		s2-0.896,2-2S194.854,12,193.75,12z M201.75,12c-1.104,0-2,0.896-2,2s0.896,2,2,2s2-0.896,2-2S202.854,12,201.75,12z M197.75,18
		c-1.104,0-2,0.896-2,2s0.896,2,2,2s2-0.896,2-2S198.854,18,197.75,18z M205.75,18c-1.104,0-2,0.896-2,2s0.896,2,2,2s2-0.896,2-2
		S206.854,18,205.75,18z M193.75,28c1.104,0,2-0.896,2-2s-0.896-2-2-2s-2,0.896-2,2S192.646,28,193.75,28z M201.75,28
		c1.104,0,2-0.896,2-2s-0.896-2-2-2s-2,0.896-2,2S200.646,28,201.75,28z M197.75,34c1.104,0,2-0.896,2-2s-0.896-2-2-2s-2,0.896-2,2
		S196.646,34,197.75,34z M205.75,30c-1.104,0-2,0.896-2,2s0.896,2,2,2s2-0.896,2-2S206.854,30,205.75,30z M193.75,36
		c-1.104,0-2,0.896-2,2s0.896,2,2,2s2-0.896,2-2S194.854,36,193.75,36z M201.75,36c-1.104,0-2,0.896-2,2s0.896,2,2,2s2-0.896,2-2
		S202.854,36,201.75,36z M197.75,46c1.104,0,2-0.896,2-2s-0.896-2-2-2s-2,0.896-2,2S196.646,46,197.75,46z M205.75,46
		c1.104,0,2-0.896,2-2s-0.896-2-2-2s-2,0.896-2,2S204.646,46,205.75,46z M193.75,52c1.104,0,2-0.896,2-2s-0.896-2-2-2s-2,0.896-2,2
		S192.646,52,193.75,52z M201.75,52c1.104,0,2-0.896,2-2s-0.896-2-2-2s-2,0.896-2,2S200.646,52,201.75,52z M197.75,54
		c-1.104,0-2,0.896-2,2s0.896,2,2,2s2-0.896,2-2S198.854,54,197.75,54z M205.75,54c-1.104,0-2,0.896-2,2s0.896,2,2,2s2-0.896,2-2
		S206.854,54,205.75,54z M209.75,4c1.104,0,2-0.896,2-2s-0.896-2-2-2s-2,0.896-2,2S208.646,4,209.75,4z M217.75,4
		c1.104,0,2-0.896,2-2s-0.896-2-2-2s-2,0.896-2,2S216.646,4,217.75,4z M213.75,10c1.104,0,2-0.896,2-2s-0.896-2-2-2s-2,0.896-2,2
		S212.646,10,213.75,10z M221.75,10c1.104,0,2-0.896,2-2s-0.896-2-2-2s-2,0.896-2,2S220.646,10,221.75,10z M209.75,12
		c-1.104,0-2,0.896-2,2s0.896,2,2,2s2-0.896,2-2S210.854,12,209.75,12z M217.75,12c-1.104,0-2,0.896-2,2s0.896,2,2,2s2-0.896,2-2
		S218.854,12,217.75,12z M213.75,18c-1.104,0-2,0.896-2,2s0.896,2,2,2s2-0.896,2-2S214.854,18,213.75,18z M221.75,18
		c-1.104,0-2,0.896-2,2s0.896,2,2,2s2-0.896,2-2S222.854,18,221.75,18z M209.75,28c1.104,0,2-0.896,2-2s-0.896-2-2-2s-2,0.896-2,2
		S208.646,28,209.75,28z M217.75,28c1.104,0,2-0.896,2-2s-0.896-2-2-2s-2,0.896-2,2S216.646,28,217.75,28z M213.75,30
		c-1.104,0-2,0.896-2,2s0.896,2,2,2s2-0.896,2-2S214.854,30,213.75,30z M221.75,30c-1.104,0-2,0.896-2,2s0.896,2,2,2s2-0.896,2-2
		S222.854,30,221.75,30z M209.75,36c-1.104,0-2,0.896-2,2s0.896,2,2,2s2-0.896,2-2S210.854,36,209.75,36z M217.75,36
		c-1.104,0-2,0.896-2,2s0.896,2,2,2s2-0.896,2-2S218.854,36,217.75,36z M213.75,46c1.104,0,2-0.896,2-2s-0.896-2-2-2s-2,0.896-2,2
		S212.646,46,213.75,46z M221.75,46c1.104,0,2-0.896,2-2s-0.896-2-2-2s-2,0.896-2,2S220.646,46,221.75,46z M209.75,52
		c1.104,0,2-0.896,2-2s-0.896-2-2-2s-2,0.896-2,2S208.646,52,209.75,52z M217.75,52c1.104,0,2-0.896,2-2s-0.896-2-2-2s-2,0.896-2,2
		S216.646,52,217.75,52z M213.75,54c-1.104,0-2,0.896-2,2s0.896,2,2,2s2-0.896,2-2S214.854,54,213.75,54z M221.75,54
		c-1.104,0-2,0.896-2,2s0.896,2,2,2s2-0.896,2-2S222.854,54,221.75,54z M225.75,4c1.104,0,2-0.896,2-2s-0.896-2-2-2s-2,0.896-2,2
		S224.646,4,225.75,4z M233.75,4c1.104,0,2-0.896,2-2s-0.896-2-2-2s-2,0.896-2,2S232.646,4,233.75,4z M229.75,10
		c1.104,0,2-0.896,2-2s-0.896-2-2-2s-2,0.896-2,2S228.646,10,229.75,10z M237.75,10c1.104,0,2-0.896,2-2s-0.896-2-2-2s-2,0.896-2,2
		S236.646,10,237.75,10z M225.75,12c-1.104,0-2,0.896-2,2s0.896,2,2,2s2-0.896,2-2S226.854,12,225.75,12z M233.75,12
		c-1.104,0-2,0.896-2,2s0.896,2,2,2s2-0.896,2-2S234.854,12,233.75,12z M229.75,18c-1.104,0-2,0.896-2,2s0.896,2,2,2s2-0.896,2-2
		S230.854,18,229.75,18z M237.75,18c-1.104,0-2,0.896-2,2s0.896,2,2,2s2-0.896,2-2S238.854,18,237.75,18z M225.75,28
		c1.104,0,2-0.896,2-2s-0.896-2-2-2s-2,0.896-2,2S224.646,28,225.75,28z M233.75,28c1.104,0,2-0.896,2-2s-0.896-2-2-2s-2,0.896-2,2
		S232.646,28,233.75,28z M229.75,30c-1.104,0-2,0.896-2,2s0.896,2,2,2s2-0.896,2-2S230.854,30,229.75,30z M237.75,30
		c-1.104,0-2,0.896-2,2s0.896,2,2,2s2-0.896,2-2S238.854,30,237.75,30z M225.75,36c-1.104,0-2,0.896-2,2s0.896,2,2,2s2-0.896,2-2
		S226.854,36,225.75,36z M233.75,36c-1.104,0-2,0.896-2,2s0.896,2,2,2s2-0.896,2-2S234.854,36,233.75,36z M229.75,46
		c1.104,0,2-0.896,2-2s-0.896-2-2-2s-2,0.896-2,2S228.646,46,229.75,46z M237.75,46c1.104,0,2-0.896,2-2s-0.896-2-2-2s-2,0.896-2,2
		S236.646,46,237.75,46z M225.75,52c1.104,0,2-0.896,2-2s-0.896-2-2-2s-2,0.896-2,2S224.646,52,225.75,52z M233.75,52
		c1.104,0,2-0.896,2-2s-0.896-2-2-2s-2,0.896-2,2S232.646,52,233.75,52z M229.75,54c-1.104,0-2,0.896-2,2s0.896,2,2,2s2-0.896,2-2
		S230.854,54,229.75,54z M237.75,54c-1.104,0-2,0.896-2,2s0.896,2,2,2s2-0.896,2-2S238.854,54,237.75,54z M241.75,4
		c1.104,0,2-0.896,2-2s-0.896-2-2-2s-2,0.896-2,2S240.646,4,241.75,4z M249.75,4c1.104,0,2-0.896,2-2s-0.896-2-2-2s-2,0.896-2,2
		S248.646,4,249.75,4z M245.75,10c1.104,0,2-0.896,2-2s-0.896-2-2-2s-2,0.896-2,2S244.646,10,245.75,10z M253.75,6
		c-1.104,0-2,0.896-2,2s0.896,2,2,2s2-0.896,2-2S254.854,6,253.75,6z M241.75,12c-1.104,0-2,0.896-2,2s0.896,2,2,2s2-0.896,2-2
		S242.854,12,241.75,12z M249.75,12c-1.104,0-2,0.896-2,2s0.896,2,2,2s2-0.896,2-2S250.854,12,249.75,12z M245.75,18
		c-1.104,0-2,0.896-2,2s0.896,2,2,2s2-0.896,2-2S246.854,18,245.75,18z M253.75,18c-1.104,0-2,0.896-2,2s0.896,2,2,2s2-0.896,2-2
		S254.854,18,253.75,18z M241.75,28c1.104,0,2-0.896,2-2s-0.896-2-2-2s-2,0.896-2,2S240.646,28,241.75,28z M249.75,24
		c-1.104,0-2,0.896-2,2s0.896,2,2,2s2-0.896,2-2S250.854,24,249.75,24z M245.75,30c-1.104,0-2,0.896-2,2s0.896,2,2,2s2-0.896,2-2
		S246.854,30,245.75,30z M253.75,30c-1.104,0-2,0.896-2,2s0.896,2,2,2s2-0.896,2-2S254.854,30,253.75,30z M241.75,36
		c-1.104,0-2,0.896-2,2s0.896,2,2,2s2-0.896,2-2S242.854,36,241.75,36z M249.75,36c-1.104,0-2,0.896-2,2s0.896,2,2,2s2-0.896,2-2
		S250.854,36,249.75,36z M245.75,46c1.104,0,2-0.896,2-2s-0.896-2-2-2s-2,0.896-2,2S244.646,46,245.75,46z M253.75,42
		c-1.104,0-2,0.896-2,2s0.896,2,2,2s2-0.896,2-2S254.854,42,253.75,42z M241.75,52c1.104,0,2-0.896,2-2s-0.896-2-2-2s-2,0.896-2,2
		S240.646,52,241.75,52z M249.75,52c1.104,0,2-0.896,2-2s-0.896-2-2-2s-2,0.896-2,2S248.646,52,249.75,52z M245.75,54
		c-1.104,0-2,0.896-2,2s0.896,2,2,2s2-0.896,2-2S246.854,54,245.75,54z M253.75,54c-1.104,0-2,0.896-2,2s0.896,2,2,2s2-0.896,2-2
		S254.854,54,253.75,54z M193.75,60c-1.104,0-2,0.896-2,2s0.896,2,2,2s2-0.896,2-2S194.854,60,193.75,60z M201.75,60
		c-1.104,0-2,0.896-2,2s0.896,2,2,2s2-0.896,2-2S202.854,60,201.75,60z M209.75,60c-1.104,0-2,0.896-2,2s0.896,2,2,2s2-0.896,2-2
		S210.854,60,209.75,60z M217.75,60c-1.104,0-2,0.896-2,2s0.896,2,2,2s2-0.896,2-2S218.854,60,217.75,60z M225.75,60
		c-1.104,0-2,0.896-2,2s0.896,2,2,2s2-0.896,2-2S226.854,60,225.75,60z M233.75,60c-1.104,0-2,0.896-2,2s0.896,2,2,2s2-0.896,2-2
		S234.854,60,233.75,60z M241.75,60c-1.104,0-2,0.896-2,2s0.896,2,2,2s2-0.896,2-2S242.854,60,241.75,60z M249.75,60
		c-1.104,0-2,0.896-2,2s0.896,2,2,2s2-0.896,2-2S250.854,60,249.75,60z M258,4c1.104,0,2-0.896,2-2s-0.896-2-2-2s-2,0.896-2,2
		S256.896,4,258,4z M266,4c1.104,0,2-0.896,2-2s-0.896-2-2-2s-2,0.896-2,2S264.896,4,266,4z M262,10c1.104,0,2-0.896,2-2
		s-0.896-2-2-2s-2,0.896-2,2S260.896,10,262,10z M270,10c1.104,0,2-0.896,2-2s-0.896-2-2-2s-2,0.896-2,2S268.896,10,270,10z M258,16
		c1.104,0,2-0.896,2-2s-0.896-2-2-2s-2,0.896-2,2S256.896,16,258,16z M266,12c-1.104,0-2,0.896-2,2s0.896,2,2,2s2-0.896,2-2
		S267.104,12,266,12z M262,18c-1.104,0-2,0.896-2,2s0.896,2,2,2s2-0.896,2-2S263.104,18,262,18z M270,18c-1.104,0-2,0.896-2,2
		s0.896,2,2,2s2-0.896,2-2S271.104,18,270,18z M258,28c1.104,0,2-0.896,2-2s-0.896-2-2-2s-2,0.896-2,2S256.896,28,258,28z M266,28
		c1.104,0,2-0.896,2-2s-0.896-2-2-2s-2,0.896-2,2S264.896,28,266,28z M262,34c1.104,0,2-0.896,2-2s-0.896-2-2-2s-2,0.896-2,2
		S260.896,34,262,34z M270,30c-1.104,0-2,0.896-2,2s0.896,2,2,2s2-0.896,2-2S271.104,30,270,30z M258,40c1.104,0,2-0.896,2-2
		s-0.896-2-2-2s-2,0.896-2,2S256.896,40,258,40z M266,36c-1.104,0-2,0.896-2,2s0.896,2,2,2s2-0.896,2-2S267.104,36,266,36z M262,46
		c1.104,0,2-0.896,2-2s-0.896-2-2-2s-2,0.896-2,2S260.896,46,262,46z M270,46c1.104,0,2-0.896,2-2s-0.896-2-2-2s-2,0.896-2,2
		S268.896,46,270,46z M258,52c1.104,0,2-0.896,2-2s-0.896-2-2-2s-2,0.896-2,2S256.896,52,258,52z M266,52c1.104,0,2-0.896,2-2
		s-0.896-2-2-2s-2,0.896-2,2S264.896,52,266,52z M262,54c-1.104,0-2,0.896-2,2s0.896,2,2,2s2-0.896,2-2S263.104,54,262,54z M270,54
		c-1.104,0-2,0.896-2,2s0.896,2,2,2s2-0.896,2-2S271.104,54,270,54z M274,4c1.104,0,2-0.896,2-2s-0.896-2-2-2s-2,0.896-2,2
		S272.896,4,274,4z M282,4c1.104,0,2-0.896,2-2s-0.896-2-2-2s-2,0.896-2,2S280.896,4,282,4z M278,10c1.104,0,2-0.896,2-2
		s-0.896-2-2-2s-2,0.896-2,2S276.896,10,278,10z M286,10c1.104,0,2-0.896,2-2s-0.896-2-2-2s-2,0.896-2,2S284.896,10,286,10z M274,12
		c-1.104,0-2,0.896-2,2s0.896,2,2,2s2-0.896,2-2S275.104,12,274,12z M282,12c-1.104,0-2,0.896-2,2s0.896,2,2,2s2-0.896,2-2
		S283.104,12,282,12z M278,18c-1.104,0-2,0.896-2,2s0.896,2,2,2s2-0.896,2-2S279.104,18,278,18z M286,18c-1.104,0-2,0.896-2,2
		s0.896,2,2,2s2-0.896,2-2S287.104,18,286,18z M274,28c1.104,0,2-0.896,2-2s-0.896-2-2-2s-2,0.896-2,2S272.896,28,274,28z M282,28
		c1.104,0,2-0.896,2-2s-0.896-2-2-2s-2,0.896-2,2S280.896,28,282,28z M278,30c-1.104,0-2,0.896-2,2s0.896,2,2,2s2-0.896,2-2
		S279.104,30,278,30z M286,30c-1.104,0-2,0.896-2,2s0.896,2,2,2s2-0.896,2-2S287.104,30,286,30z M274,36c-1.104,0-2,0.896-2,2
		s0.896,2,2,2s2-0.896,2-2S275.104,36,274,36z M282,36c-1.104,0-2,0.896-2,2s0.896,2,2,2s2-0.896,2-2S283.104,36,282,36z M278,46
		c1.104,0,2-0.896,2-2s-0.896-2-2-2s-2,0.896-2,2S276.896,46,278,46z M286,46c1.104,0,2-0.896,2-2s-0.896-2-2-2s-2,0.896-2,2
		S284.896,46,286,46z M274,52c1.104,0,2-0.896,2-2s-0.896-2-2-2s-2,0.896-2,2S272.896,52,274,52z M282,52c1.104,0,2-0.896,2-2
		s-0.896-2-2-2s-2,0.896-2,2S280.896,52,282,52z M278,54c-1.104,0-2,0.896-2,2s0.896,2,2,2s2-0.896,2-2S279.104,54,278,54z M286,54
		c-1.104,0-2,0.896-2,2s0.896,2,2,2s2-0.896,2-2S287.104,54,286,54z M290,4c1.104,0,2-0.896,2-2s-0.896-2-2-2s-2,0.896-2,2
		S288.896,4,290,4z M298,4c1.104,0,2-0.896,2-2s-0.896-2-2-2s-2,0.896-2,2S296.896,4,298,4z M294,10c1.104,0,2-0.896,2-2
		s-0.896-2-2-2s-2,0.896-2,2S292.896,10,294,10z M302,10c1.104,0,2-0.896,2-2s-0.896-2-2-2s-2,0.896-2,2S300.896,10,302,10z M290,12
		c-1.104,0-2,0.896-2,2s0.896,2,2,2s2-0.896,2-2S291.104,12,290,12z M298,12c-1.104,0-2,0.896-2,2s0.896,2,2,2s2-0.896,2-2
		S299.104,12,298,12z M294,18c-1.104,0-2,0.896-2,2s0.896,2,2,2s2-0.896,2-2S295.104,18,294,18z M302,18c-1.104,0-2,0.896-2,2
		s0.896,2,2,2s2-0.896,2-2S303.104,18,302,18z M290,28c1.104,0,2-0.896,2-2s-0.896-2-2-2s-2,0.896-2,2S288.896,28,290,28z M298,28
		c1.104,0,2-0.896,2-2s-0.896-2-2-2s-2,0.896-2,2S296.896,28,298,28z M294,30c-1.104,0-2,0.896-2,2s0.896,2,2,2s2-0.896,2-2
		S295.104,30,294,30z M302,30c-1.104,0-2,0.896-2,2s0.896,2,2,2s2-0.896,2-2S303.104,30,302,30z M290,36c-1.104,0-2,0.896-2,2
		s0.896,2,2,2s2-0.896,2-2S291.104,36,290,36z M298,36c-1.104,0-2,0.896-2,2s0.896,2,2,2s2-0.896,2-2S299.104,36,298,36z M294,46
		c1.104,0,2-0.896,2-2s-0.896-2-2-2s-2,0.896-2,2S292.896,46,294,46z M302,46c1.104,0,2-0.896,2-2s-0.896-2-2-2s-2,0.896-2,2
		S300.896,46,302,46z M290,52c1.104,0,2-0.896,2-2s-0.896-2-2-2s-2,0.896-2,2S288.896,52,290,52z M298,52c1.104,0,2-0.896,2-2
		s-0.896-2-2-2s-2,0.896-2,2S296.896,52,298,52z M294,54c-1.104,0-2,0.896-2,2s0.896,2,2,2s2-0.896,2-2S295.104,54,294,54z M302,54
		c-1.104,0-2,0.896-2,2s0.896,2,2,2s2-0.896,2-2S303.104,54,302,54z M306,4c1.104,0,2-0.896,2-2s-0.896-2-2-2s-2,0.896-2,2
		S304.896,4,306,4z M314,4c1.104,0,2-0.896,2-2s-0.896-2-2-2s-2,0.896-2,2S312.896,4,314,4z M310,10c1.104,0,2-0.896,2-2
		s-0.896-2-2-2s-2,0.896-2,2S308.896,10,310,10z M318,10c1.104,0,2-0.896,2-2s-0.896-2-2-2s-2,0.896-2,2S316.896,10,318,10z M306,12
		c-1.104,0-2,0.896-2,2s0.896,2,2,2s2-0.896,2-2S307.104,12,306,12z M314,12c-1.104,0-2,0.896-2,2s0.896,2,2,2s2-0.896,2-2
		S315.104,12,314,12z M310,18c-1.104,0-2,0.896-2,2s0.896,2,2,2s2-0.896,2-2S311.104,18,310,18z M318,18c-1.104,0-2,0.896-2,2
		s0.896,2,2,2s2-0.896,2-2S319.104,18,318,18z M306,28c1.104,0,2-0.896,2-2s-0.896-2-2-2s-2,0.896-2,2S304.896,28,306,28z M314,28
		c1.104,0,2-0.896,2-2s-0.896-2-2-2s-2,0.896-2,2S312.896,28,314,28z M310,30c-1.104,0-2,0.896-2,2s0.896,2,2,2s2-0.896,2-2
		S311.104,30,310,30z M318,30c-1.104,0-2,0.896-2,2s0.896,2,2,2s2-0.896,2-2S319.104,30,318,30z M306,36c-1.104,0-2,0.896-2,2
		s0.896,2,2,2s2-0.896,2-2S307.104,36,306,36z M314,36c-1.104,0-2,0.896-2,2s0.896,2,2,2s2-0.896,2-2S315.104,36,314,36z M310,46
		c1.104,0,2-0.896,2-2s-0.896-2-2-2s-2,0.896-2,2S308.896,46,310,46z M318,46c1.104,0,2-0.896,2-2s-0.896-2-2-2s-2,0.896-2,2
		S316.896,46,318,46z M306,52c1.104,0,2-0.896,2-2s-0.896-2-2-2s-2,0.896-2,2S304.896,52,306,52z M314,52c1.104,0,2-0.896,2-2
		s-0.896-2-2-2s-2,0.896-2,2S312.896,52,314,52z M310,54c-1.104,0-2,0.896-2,2s0.896,2,2,2s2-0.896,2-2S311.104,54,310,54z M318,54
		c-1.104,0-2,0.896-2,2s0.896,2,2,2s2-0.896,2-2S319.104,54,318,54z M258,60c-1.104,0-2,0.896-2,2s0.896,2,2,2s2-0.896,2-2
		S259.104,60,258,60z M266,60c-1.104,0-2,0.896-2,2s0.896,2,2,2s2-0.896,2-2S267.104,60,266,60z M274,60c-1.104,0-2,0.896-2,2
		s0.896,2,2,2s2-0.896,2-2S275.104,60,274,60z M282,60c-1.104,0-2,0.896-2,2s0.896,2,2,2s2-0.896,2-2S283.104,60,282,60z M290,60
		c-1.104,0-2,0.896-2,2s0.896,2,2,2s2-0.896,2-2S291.104,60,290,60z M298,60c-1.104,0-2,0.896-2,2s0.896,2,2,2s2-0.896,2-2
		S299.104,60,298,60z M306,60c-1.104,0-2,0.896-2,2s0.896,2,2,2s2-0.896,2-2S307.104,60,306,60z M314,60c-1.104,0-2,0.896-2,2
		s0.896,2,2,2s2-0.896,2-2S315.104,60,314,60z M322,4c1.104,0,2-0.896,2-2s-0.896-2-2-2s-2,0.896-2,2S320.896,4,322,4z M330,4
		c1.104,0,2-0.896,2-2s-0.896-2-2-2s-2,0.896-2,2S328.896,4,330,4z M326,10c1.104,0,2-0.896,2-2s-0.896-2-2-2s-2,0.896-2,2
		S324.896,10,326,10z M334,10c1.104,0,2-0.896,2-2s-0.896-2-2-2s-2,0.896-2,2S332.896,10,334,10z M322,12c-1.104,0-2,0.896-2,2
		s0.896,2,2,2s2-0.896,2-2S323.104,12,322,12z M330,12c-1.104,0-2,0.896-2,2s0.896,2,2,2s2-0.896,2-2S331.104,12,330,12z M326,18
		c-1.104,0-2,0.896-2,2s0.896,2,2,2s2-0.896,2-2S327.104,18,326,18z M334,18c-1.104,0-2,0.896-2,2s0.896,2,2,2s2-0.896,2-2
		S335.104,18,334,18z M322,28c1.104,0,2-0.896,2-2s-0.896-2-2-2s-2,0.896-2,2S320.896,28,322,28z M330,28c1.104,0,2-0.896,2-2
		s-0.896-2-2-2s-2,0.896-2,2S328.896,28,330,28z M326,30c-1.104,0-2,0.896-2,2s0.896,2,2,2s2-0.896,2-2S327.104,30,326,30z M334,30
		c-1.104,0-2,0.896-2,2s0.896,2,2,2s2-0.896,2-2S335.104,30,334,30z M322,36c-1.104,0-2,0.896-2,2s0.896,2,2,2s2-0.896,2-2
		S323.104,36,322,36z M330,36c-1.104,0-2,0.896-2,2s0.896,2,2,2s2-0.896,2-2S331.104,36,330,36z M326,46c1.104,0,2-0.896,2-2
		s-0.896-2-2-2s-2,0.896-2,2S324.896,46,326,46z M334,46c1.104,0,2-0.896,2-2s-0.896-2-2-2s-2,0.896-2,2S332.896,46,334,46z M322,52
		c1.104,0,2-0.896,2-2s-0.896-2-2-2s-2,0.896-2,2S320.896,52,322,52z M330,52c1.104,0,2-0.896,2-2s-0.896-2-2-2s-2,0.896-2,2
		S328.896,52,330,52z M326,54c-1.104,0-2,0.896-2,2s0.896,2,2,2s2-0.896,2-2S327.104,54,326,54z M334,54c-1.104,0-2,0.896-2,2
		s0.896,2,2,2s2-0.896,2-2S335.104,54,334,54z M338,4c1.104,0,2-0.896,2-2s-0.896-2-2-2s-2,0.896-2,2S336.896,4,338,4z M346,4
		c1.104,0,2-0.896,2-2s-0.896-2-2-2s-2,0.896-2,2S344.896,4,346,4z M342,10c1.104,0,2-0.896,2-2s-0.896-2-2-2s-2,0.896-2,2
		S340.896,10,342,10z M350,10c1.104,0,2-0.896,2-2s-0.896-2-2-2s-2,0.896-2,2S348.896,10,350,10z M338,12c-1.104,0-2,0.896-2,2
		s0.896,2,2,2s2-0.896,2-2S339.104,12,338,12z M346,12c-1.104,0-2,0.896-2,2s0.896,2,2,2s2-0.896,2-2S347.104,12,346,12z M342,18
		c-1.104,0-2,0.896-2,2s0.896,2,2,2s2-0.896,2-2S343.104,18,342,18z M350,18c-1.104,0-2,0.896-2,2s0.896,2,2,2s2-0.896,2-2
		S351.104,18,350,18z M338,28c1.104,0,2-0.896,2-2s-0.896-2-2-2s-2,0.896-2,2S336.896,28,338,28z M346,28c1.104,0,2-0.896,2-2
		s-0.896-2-2-2s-2,0.896-2,2S344.896,28,346,28z M342,30c-1.104,0-2,0.896-2,2s0.896,2,2,2s2-0.896,2-2S343.104,30,342,30z M350,30
		c-1.104,0-2,0.896-2,2s0.896,2,2,2s2-0.896,2-2S351.104,30,350,30z M338,36c-1.104,0-2,0.896-2,2s0.896,2,2,2s2-0.896,2-2
		S339.104,36,338,36z M346,36c-1.104,0-2,0.896-2,2s0.896,2,2,2s2-0.896,2-2S347.104,36,346,36z M342,46c1.104,0,2-0.896,2-2
		s-0.896-2-2-2s-2,0.896-2,2S340.896,46,342,46z M350,46c1.104,0,2-0.896,2-2s-0.896-2-2-2s-2,0.896-2,2S348.896,46,350,46z M338,52
		c1.104,0,2-0.896,2-2s-0.896-2-2-2s-2,0.896-2,2S336.896,52,338,52z M346,52c1.104,0,2-0.896,2-2s-0.896-2-2-2s-2,0.896-2,2
		S344.896,52,346,52z M342,54c-1.104,0-2,0.896-2,2s0.896,2,2,2s2-0.896,2-2S343.104,54,342,54z M350,54c-1.104,0-2,0.896-2,2
		s0.896,2,2,2s2-0.896,2-2S351.104,54,350,54z M354,4c1.104,0,2-0.896,2-2s-0.896-2-2-2s-2,0.896-2,2S352.896,4,354,4z M362,4
		c1.104,0,2-0.896,2-2s-0.896-2-2-2s-2,0.896-2,2S360.896,4,362,4z M358,10c1.104,0,2-0.896,2-2s-0.896-2-2-2s-2,0.896-2,2
		S356.896,10,358,10z M366,10c1.104,0,2-0.896,2-2s-0.896-2-2-2s-2,0.896-2,2S364.896,10,366,10z M354,12c-1.104,0-2,0.896-2,2
		s0.896,2,2,2s2-0.896,2-2S355.104,12,354,12z M362,12c-1.104,0-2,0.896-2,2s0.896,2,2,2s2-0.896,2-2S363.104,12,362,12z M358,18
		c-1.104,0-2,0.896-2,2s0.896,2,2,2s2-0.896,2-2S359.104,18,358,18z M366,18c-1.104,0-2,0.896-2,2s0.896,2,2,2s2-0.896,2-2
		S367.104,18,366,18z M354,28c1.104,0,2-0.896,2-2s-0.896-2-2-2s-2,0.896-2,2S352.896,28,354,28z M362,28c1.104,0,2-0.896,2-2
		s-0.896-2-2-2s-2,0.896-2,2S360.896,28,362,28z M358,30c-1.104,0-2,0.896-2,2s0.896,2,2,2s2-0.896,2-2S359.104,30,358,30z M366,30
		c-1.104,0-2,0.896-2,2s0.896,2,2,2s2-0.896,2-2S367.104,30,366,30z M354,36c-1.104,0-2,0.896-2,2s0.896,2,2,2s2-0.896,2-2
		S355.104,36,354,36z M362,36c-1.104,0-2,0.896-2,2s0.896,2,2,2s2-0.896,2-2S363.104,36,362,36z M358,46c1.104,0,2-0.896,2-2
		s-0.896-2-2-2s-2,0.896-2,2S356.896,46,358,46z M366,46c1.104,0,2-0.896,2-2s-0.896-2-2-2s-2,0.896-2,2S364.896,46,366,46z M354,52
		c1.104,0,2-0.896,2-2s-0.896-2-2-2s-2,0.896-2,2S352.896,52,354,52z M362,52c1.104,0,2-0.896,2-2s-0.896-2-2-2s-2,0.896-2,2
		S360.896,52,362,52z M358,54c-1.104,0-2,0.896-2,2s0.896,2,2,2s2-0.896,2-2S359.104,54,358,54z M366,54c-1.104,0-2,0.896-2,2
		s0.896,2,2,2s2-0.896,2-2S367.104,54,366,54z M370,4c1.104,0,2-0.896,2-2s-0.896-2-2-2s-2,0.896-2,2S368.896,4,370,4z M378,4
		c1.104,0,2-0.896,2-2s-0.896-2-2-2s-2,0.896-2,2S376.896,4,378,4z M374,10c1.104,0,2-0.896,2-2s-0.896-2-2-2s-2,0.896-2,2
		S372.896,10,374,10z M382,10c1.104,0,2-0.896,2-2s-0.896-2-2-2s-2,0.896-2,2S380.896,10,382,10z M370,12c-1.104,0-2,0.896-2,2
		s0.896,2,2,2s2-0.896,2-2S371.104,12,370,12z M378,12c-1.104,0-2,0.896-2,2s0.896,2,2,2s2-0.896,2-2S379.104,12,378,12z M374,18
		c-1.104,0-2,0.896-2,2s0.896,2,2,2s2-0.896,2-2S375.104,18,374,18z M382,18c-1.104,0-2,0.896-2,2s0.896,2,2,2s2-0.896,2-2
		S383.104,18,382,18z M370,28c1.104,0,2-0.896,2-2s-0.896-2-2-2s-2,0.896-2,2S368.896,28,370,28z M378,28c1.104,0,2-0.896,2-2
		s-0.896-2-2-2s-2,0.896-2,2S376.896,28,378,28z M374,30c-1.104,0-2,0.896-2,2s0.896,2,2,2s2-0.896,2-2S375.104,30,374,30z M382,30
		c-1.104,0-2,0.896-2,2s0.896,2,2,2s2-0.896,2-2S383.104,30,382,30z M370,36c-1.104,0-2,0.896-2,2s0.896,2,2,2s2-0.896,2-2
		S371.104,36,370,36z M378,36c-1.104,0-2,0.896-2,2s0.896,2,2,2s2-0.896,2-2S379.104,36,378,36z M374,46c1.104,0,2-0.896,2-2
		s-0.896-2-2-2s-2,0.896-2,2S372.896,46,374,46z M382,46c1.104,0,2-0.896,2-2s-0.896-2-2-2s-2,0.896-2,2S380.896,46,382,46z M370,52
		c1.104,0,2-0.896,2-2s-0.896-2-2-2s-2,0.896-2,2S368.896,52,370,52z M378,52c1.104,0,2-0.896,2-2s-0.896-2-2-2s-2,0.896-2,2
		S376.896,52,378,52z M374,54c-1.104,0-2,0.896-2,2s0.896,2,2,2s2-0.896,2-2S375.104,54,374,54z M382,54c-1.104,0-2,0.896-2,2
		s0.896,2,2,2s2-0.896,2-2S383.104,54,382,54z M322,60c-1.104,0-2,0.896-2,2s0.896,2,2,2s2-0.896,2-2S323.104,60,322,60z M330,60
		c-1.104,0-2,0.896-2,2s0.896,2,2,2s2-0.896,2-2S331.104,60,330,60z M338,60c-1.104,0-2,0.896-2,2s0.896,2,2,2s2-0.896,2-2
		S339.104,60,338,60z M346,60c-1.104,0-2,0.896-2,2s0.896,2,2,2s2-0.896,2-2S347.104,60,346,60z M354,60c-1.104,0-2,0.896-2,2
		s0.896,2,2,2s2-0.896,2-2S355.104,60,354,60z M362,60c-1.104,0-2,0.896-2,2s0.896,2,2,2s2-0.896,2-2S363.104,60,362,60z M370,60
		c-1.104,0-2,0.896-2,2s0.896,2,2,2s2-0.896,2-2S371.104,60,370,60z M378,60c-1.104,0-2,0.896-2,2s0.896,2,2,2s2-0.896,2-2
		S379.104,60,378,60z M386,4c1.104,0,2-0.896,2-2s-0.896-2-2-2s-2,0.896-2,2S384.896,4,386,4z M394,4c1.104,0,2-0.896,2-2
		s-0.896-2-2-2s-2,0.896-2,2S392.896,4,394,4z M390,10c1.104,0,2-0.896,2-2s-0.896-2-2-2s-2,0.896-2,2S388.896,10,390,10z M398,10
		c1.104,0,2-0.896,2-2s-0.896-2-2-2s-2,0.896-2,2S396.896,10,398,10z M386,12c-1.104,0-2,0.896-2,2s0.896,2,2,2s2-0.896,2-2
		S387.104,12,386,12z M394,12c-1.104,0-2,0.896-2,2s0.896,2,2,2s2-0.896,2-2S395.104,12,394,12z M390,18c-1.104,0-2,0.896-2,2
		s0.896,2,2,2s2-0.896,2-2S391.104,18,390,18z M398,18c-1.104,0-2,0.896-2,2s0.896,2,2,2s2-0.896,2-2S399.104,18,398,18z M386,28
		c1.104,0,2-0.896,2-2s-0.896-2-2-2s-2,0.896-2,2S384.896,28,386,28z M394,28c1.104,0,2-0.896,2-2s-0.896-2-2-2s-2,0.896-2,2
		S392.896,28,394,28z M390,30c-1.104,0-2,0.896-2,2s0.896,2,2,2s2-0.896,2-2S391.104,30,390,30z M398,30c-1.104,0-2,0.896-2,2
		s0.896,2,2,2s2-0.896,2-2S399.104,30,398,30z M386,36c-1.104,0-2,0.896-2,2s0.896,2,2,2s2-0.896,2-2S387.104,36,386,36z M394,36
		c-1.104,0-2,0.896-2,2s0.896,2,2,2s2-0.896,2-2S395.104,36,394,36z M390,46c1.104,0,2-0.896,2-2s-0.896-2-2-2s-2,0.896-2,2
		S388.896,46,390,46z M398,46c1.104,0,2-0.896,2-2s-0.896-2-2-2s-2,0.896-2,2S396.896,46,398,46z M386,52c1.104,0,2-0.896,2-2
		s-0.896-2-2-2s-2,0.896-2,2S384.896,52,386,52z M394,52c1.104,0,2-0.896,2-2s-0.896-2-2-2s-2,0.896-2,2S392.896,52,394,52z M390,54
		c-1.104,0-2,0.896-2,2s0.896,2,2,2s2-0.896,2-2S391.104,54,390,54z M398,54c-1.104,0-2,0.896-2,2s0.896,2,2,2s2-0.896,2-2
		S399.104,54,398,54z M402,4c1.104,0,2-0.896,2-2s-0.896-2-2-2s-2,0.896-2,2S400.896,4,402,4z M410,4c1.104,0,2-0.896,2-2
		s-0.896-2-2-2s-2,0.896-2,2S408.896,4,410,4z M406,10c1.104,0,2-0.896,2-2s-0.896-2-2-2s-2,0.896-2,2S404.896,10,406,10z M414,10
		c1.104,0,2-0.896,2-2s-0.896-2-2-2s-2,0.896-2,2S412.896,10,414,10z M402,12c-1.104,0-2,0.896-2,2s0.896,2,2,2s2-0.896,2-2
		S403.104,12,402,12z M410,12c-1.104,0-2,0.896-2,2s0.896,2,2,2s2-0.896,2-2S411.104,12,410,12z M406,18c-1.104,0-2,0.896-2,2
		s0.896,2,2,2s2-0.896,2-2S407.104,18,406,18z M414,18c-1.104,0-2,0.896-2,2s0.896,2,2,2s2-0.896,2-2S415.104,18,414,18z M402,28
		c1.104,0,2-0.896,2-2s-0.896-2-2-2s-2,0.896-2,2S400.896,28,402,28z M410,28c1.104,0,2-0.896,2-2s-0.896-2-2-2s-2,0.896-2,2
		S408.896,28,410,28z M406,30c-1.104,0-2,0.896-2,2s0.896,2,2,2s2-0.896,2-2S407.104,30,406,30z M414,30c-1.104,0-2,0.896-2,2
		s0.896,2,2,2s2-0.896,2-2S415.104,30,414,30z M402,36c-1.104,0-2,0.896-2,2s0.896,2,2,2s2-0.896,2-2S403.104,36,402,36z M410,36
		c-1.104,0-2,0.896-2,2s0.896,2,2,2s2-0.896,2-2S411.104,36,410,36z M406,46c1.104,0,2-0.896,2-2s-0.896-2-2-2s-2,0.896-2,2
		S404.896,46,406,46z M414,46c1.104,0,2-0.896,2-2s-0.896-2-2-2s-2,0.896-2,2S412.896,46,414,46z M402,52c1.104,0,2-0.896,2-2
		s-0.896-2-2-2s-2,0.896-2,2S400.896,52,402,52z M410,52c1.104,0,2-0.896,2-2s-0.896-2-2-2s-2,0.896-2,2S408.896,52,410,52z M406,54
		c-1.104,0-2,0.896-2,2s0.896,2,2,2s2-0.896,2-2S407.104,54,406,54z M414,54c-1.104,0-2,0.896-2,2s0.896,2,2,2s2-0.896,2-2
		S415.104,54,414,54z M418,4c1.104,0,2-0.896,2-2s-0.896-2-2-2s-2,0.896-2,2S416.896,4,418,4z M426,4c1.104,0,2-0.896,2-2
		s-0.896-2-2-2s-2,0.896-2,2S424.896,4,426,4z M422,10c1.104,0,2-0.896,2-2s-0.896-2-2-2s-2,0.896-2,2S420.896,10,422,10z M430,10
		c1.104,0,2-0.896,2-2s-0.896-2-2-2s-2,0.896-2,2S428.896,10,430,10z M418,12c-1.104,0-2,0.896-2,2s0.896,2,2,2s2-0.896,2-2
		S419.104,12,418,12z M426,12c-1.104,0-2,0.896-2,2s0.896,2,2,2s2-0.896,2-2S427.104,12,426,12z M422,18c-1.104,0-2,0.896-2,2
		s0.896,2,2,2s2-0.896,2-2S423.104,18,422,18z M430,18c-1.104,0-2,0.896-2,2s0.896,2,2,2s2-0.896,2-2S431.104,18,430,18z M418,28
		c1.104,0,2-0.896,2-2s-0.896-2-2-2s-2,0.896-2,2S416.896,28,418,28z M426,28c1.104,0,2-0.896,2-2s-0.896-2-2-2s-2,0.896-2,2
		S424.896,28,426,28z M422,30c-1.104,0-2,0.896-2,2s0.896,2,2,2s2-0.896,2-2S423.104,30,422,30z M430,30c-1.104,0-2,0.896-2,2
		s0.896,2,2,2s2-0.896,2-2S431.104,30,430,30z M418,36c-1.104,0-2,0.896-2,2s0.896,2,2,2s2-0.896,2-2S419.104,36,418,36z M426,36
		c-1.104,0-2,0.896-2,2s0.896,2,2,2s2-0.896,2-2S427.104,36,426,36z M422,46c1.104,0,2-0.896,2-2s-0.896-2-2-2s-2,0.896-2,2
		S420.896,46,422,46z M430,46c1.104,0,2-0.896,2-2s-0.896-2-2-2s-2,0.896-2,2S428.896,46,430,46z M418,52c1.104,0,2-0.896,2-2
		s-0.896-2-2-2s-2,0.896-2,2S416.896,52,418,52z M426,52c1.104,0,2-0.896,2-2s-0.896-2-2-2s-2,0.896-2,2S424.896,52,426,52z M422,54
		c-1.104,0-2,0.896-2,2s0.896,2,2,2s2-0.896,2-2S423.104,54,422,54z M430,54c-1.104,0-2,0.896-2,2s0.896,2,2,2s2-0.896,2-2
		S431.104,54,430,54z M434,4c1.104,0,2-0.896,2-2s-0.896-2-2-2s-2,0.896-2,2S432.896,4,434,4z M442,4c1.104,0,2-0.896,2-2
		s-0.896-2-2-2s-2,0.896-2,2S440.896,4,442,4z M438,10c1.104,0,2-0.896,2-2s-0.896-2-2-2s-2,0.896-2,2S436.896,10,438,10z M446,10
		c1.104,0,2-0.896,2-2s-0.896-2-2-2s-2,0.896-2,2S444.896,10,446,10z M434,12c-1.104,0-2,0.896-2,2s0.896,2,2,2s2-0.896,2-2
		S435.104,12,434,12z M442,12c-1.104,0-2,0.896-2,2s0.896,2,2,2s2-0.896,2-2S443.104,12,442,12z M438,18c-1.104,0-2,0.896-2,2
		s0.896,2,2,2s2-0.896,2-2S439.104,18,438,18z M446,18c-1.104,0-2,0.896-2,2s0.896,2,2,2s2-0.896,2-2S447.104,18,446,18z M434,28
		c1.104,0,2-0.896,2-2s-0.896-2-2-2s-2,0.896-2,2S432.896,28,434,28z M442,28c1.104,0,2-0.896,2-2s-0.896-2-2-2s-2,0.896-2,2
		S440.896,28,442,28z M438,30c-1.104,0-2,0.896-2,2s0.896,2,2,2s2-0.896,2-2S439.104,30,438,30z M446,30c-1.104,0-2,0.896-2,2
		s0.896,2,2,2s2-0.896,2-2S447.104,30,446,30z M434,36c-1.104,0-2,0.896-2,2s0.896,2,2,2s2-0.896,2-2S435.104,36,434,36z M442,36
		c-1.104,0-2,0.896-2,2s0.896,2,2,2s2-0.896,2-2S443.104,36,442,36z M438,46c1.104,0,2-0.896,2-2s-0.896-2-2-2s-2,0.896-2,2
		S436.896,46,438,46z M446,46c1.104,0,2-0.896,2-2s-0.896-2-2-2s-2,0.896-2,2S444.896,46,446,46z M434,52c1.104,0,2-0.896,2-2
		s-0.896-2-2-2s-2,0.896-2,2S432.896,52,434,52z M442,52c1.104,0,2-0.896,2-2s-0.896-2-2-2s-2,0.896-2,2S440.896,52,442,52z M438,54
		c-1.104,0-2,0.896-2,2s0.896,2,2,2s2-0.896,2-2S439.104,54,438,54z M446,54c-1.104,0-2,0.896-2,2s0.896,2,2,2s2-0.896,2-2
		S447.104,54,446,54z M386,60c-1.104,0-2,0.896-2,2s0.896,2,2,2s2-0.896,2-2S387.104,60,386,60z M394,60c-1.104,0-2,0.896-2,2
		s0.896,2,2,2s2-0.896,2-2S395.104,60,394,60z M402,60c-1.104,0-2,0.896-2,2s0.896,2,2,2s2-0.896,2-2S403.104,60,402,60z M410,60
		c-1.104,0-2,0.896-2,2s0.896,2,2,2s2-0.896,2-2S411.104,60,410,60z M418,60c-1.104,0-2,0.896-2,2s0.896,2,2,2s2-0.896,2-2
		S419.104,60,418,60z M426,60c-1.104,0-2,0.896-2,2s0.896,2,2,2s2-0.896,2-2S427.104,60,426,60z M434,60c-1.104,0-2,0.896-2,2
		s0.896,2,2,2s2-0.896,2-2S435.104,60,434,60z M442,60c-1.104,0-2,0.896-2,2s0.896,2,2,2s2-0.896,2-2S443.104,60,442,60z M450,4
		c1.104,0,2-0.896,2-2s-0.896-2-2-2s-2,0.896-2,2S448.896,4,450,4z M458,4c1.104,0,2-0.896,2-2s-0.896-2-2-2s-2,0.896-2,2
		S456.896,4,458,4z M454,10c1.104,0,2-0.896,2-2s-0.896-2-2-2s-2,0.896-2,2S452.896,10,454,10z M462,10c1.104,0,2-0.896,2-2
		s-0.896-2-2-2s-2,0.896-2,2S460.896,10,462,10z M450,12c-1.104,0-2,0.896-2,2s0.896,2,2,2s2-0.896,2-2S451.104,12,450,12z M458,12
		c-1.104,0-2,0.896-2,2s0.896,2,2,2s2-0.896,2-2S459.104,12,458,12z M454,18c-1.104,0-2,0.896-2,2s0.896,2,2,2s2-0.896,2-2
		S455.104,18,454,18z M462,18c-1.104,0-2,0.896-2,2s0.896,2,2,2s2-0.896,2-2S463.104,18,462,18z M450,28c1.104,0,2-0.896,2-2
		s-0.896-2-2-2s-2,0.896-2,2S448.896,28,450,28z M458,28c1.104,0,2-0.896,2-2s-0.896-2-2-2s-2,0.896-2,2S456.896,28,458,28z M454,30
		c-1.104,0-2,0.896-2,2s0.896,2,2,2s2-0.896,2-2S455.104,30,454,30z M462,30c-1.104,0-2,0.896-2,2s0.896,2,2,2s2-0.896,2-2
		S463.104,30,462,30z M450,36c-1.104,0-2,0.896-2,2s0.896,2,2,2s2-0.896,2-2S451.104,36,450,36z M458,36c-1.104,0-2,0.896-2,2
		s0.896,2,2,2s2-0.896,2-2S459.104,36,458,36z M454,46c1.104,0,2-0.896,2-2s-0.896-2-2-2s-2,0.896-2,2S452.896,46,454,46z M462,46
		c1.104,0,2-0.896,2-2s-0.896-2-2-2s-2,0.896-2,2S460.896,46,462,46z M450,52c1.104,0,2-0.896,2-2s-0.896-2-2-2s-2,0.896-2,2
		S448.896,52,450,52z M458,52c1.104,0,2-0.896,2-2s-0.896-2-2-2s-2,0.896-2,2S456.896,52,458,52z M454,54c-1.104,0-2,0.896-2,2
		s0.896,2,2,2s2-0.896,2-2S455.104,54,454,54z M462,54c-1.104,0-2,0.896-2,2s0.896,2,2,2s2-0.896,2-2S463.104,54,462,54z M466,4
		c1.104,0,2-0.896,2-2s-0.896-2-2-2s-2,0.896-2,2S464.896,4,466,4z M474,4c1.104,0,2-0.896,2-2s-0.896-2-2-2s-2,0.896-2,2
		S472.896,4,474,4z M470,10c1.104,0,2-0.896,2-2s-0.896-2-2-2s-2,0.896-2,2S468.896,10,470,10z M478,10c1.104,0,2-0.896,2-2
		s-0.896-2-2-2s-2,0.896-2,2S476.896,10,478,10z M466,12c-1.104,0-2,0.896-2,2s0.896,2,2,2s2-0.896,2-2S467.104,12,466,12z M474,12
		c-1.104,0-2,0.896-2,2s0.896,2,2,2s2-0.896,2-2S475.104,12,474,12z M470,18c-1.104,0-2,0.896-2,2s0.896,2,2,2s2-0.896,2-2
		S471.104,18,470,18z M478,18c-1.104,0-2,0.896-2,2s0.896,2,2,2s2-0.896,2-2S479.104,18,478,18z M466,28c1.104,0,2-0.896,2-2
		s-0.896-2-2-2s-2,0.896-2,2S464.896,28,466,28z M474,28c1.104,0,2-0.896,2-2s-0.896-2-2-2s-2,0.896-2,2S472.896,28,474,28z M470,30
		c-1.104,0-2,0.896-2,2s0.896,2,2,2s2-0.896,2-2S471.104,30,470,30z M478,30c-1.104,0-2,0.896-2,2s0.896,2,2,2s2-0.896,2-2
		S479.104,30,478,30z M466,36c-1.104,0-2,0.896-2,2s0.896,2,2,2s2-0.896,2-2S467.104,36,466,36z M474,36c-1.104,0-2,0.896-2,2
		s0.896,2,2,2s2-0.896,2-2S475.104,36,474,36z M470,46c1.104,0,2-0.896,2-2s-0.896-2-2-2s-2,0.896-2,2S468.896,46,470,46z M478,46
		c1.104,0,2-0.896,2-2s-0.896-2-2-2s-2,0.896-2,2S476.896,46,478,46z M466,52c1.104,0,2-0.896,2-2s-0.896-2-2-2s-2,0.896-2,2
		S464.896,52,466,52z M474,52c1.104,0,2-0.896,2-2s-0.896-2-2-2s-2,0.896-2,2S472.896,52,474,52z M470,54c-1.104,0-2,0.896-2,2
		s0.896,2,2,2s2-0.896,2-2S471.104,54,470,54z M478,54c-1.104,0-2,0.896-2,2s0.896,2,2,2s2-0.896,2-2S479.104,54,478,54z M482,4
		c1.104,0,2-0.896,2-2s-0.896-2-2-2s-2,0.896-2,2S480.896,4,482,4z M490,4c1.104,0,2-0.896,2-2s-0.896-2-2-2s-2,0.896-2,2
		S488.896,4,490,4z M486,10c1.104,0,2-0.896,2-2s-0.896-2-2-2s-2,0.896-2,2S484.896,10,486,10z M494,10c1.104,0,2-0.896,2-2
		s-0.896-2-2-2s-2,0.896-2,2S492.896,10,494,10z M482,12c-1.104,0-2,0.896-2,2s0.896,2,2,2s2-0.896,2-2S483.104,12,482,12z M490,12
		c-1.104,0-2,0.896-2,2s0.896,2,2,2s2-0.896,2-2S491.104,12,490,12z M486,18c-1.104,0-2,0.896-2,2s0.896,2,2,2s2-0.896,2-2
		S487.104,18,486,18z M494,18c-1.104,0-2,0.896-2,2s0.896,2,2,2s2-0.896,2-2S495.104,18,494,18z M482,28c1.104,0,2-0.896,2-2
		s-0.896-2-2-2s-2,0.896-2,2S480.896,28,482,28z M490,28c1.104,0,2-0.896,2-2s-0.896-2-2-2s-2,0.896-2,2S488.896,28,490,28z M486,30
		c-1.104,0-2,0.896-2,2s0.896,2,2,2s2-0.896,2-2S487.104,30,486,30z M494,30c-1.104,0-2,0.896-2,2s0.896,2,2,2s2-0.896,2-2
		S495.104,30,494,30z M482,36c-1.104,0-2,0.896-2,2s0.896,2,2,2s2-0.896,2-2S483.104,36,482,36z M490,36c-1.104,0-2,0.896-2,2
		s0.896,2,2,2s2-0.896,2-2S491.104,36,490,36z M486,46c1.104,0,2-0.896,2-2s-0.896-2-2-2s-2,0.896-2,2S484.896,46,486,46z M494,46
		c1.104,0,2-0.896,2-2s-0.896-2-2-2s-2,0.896-2,2S492.896,46,494,46z M482,52c1.104,0,2-0.896,2-2s-0.896-2-2-2s-2,0.896-2,2
		S480.896,52,482,52z M490,52c1.104,0,2-0.896,2-2s-0.896-2-2-2s-2,0.896-2,2S488.896,52,490,52z M486,54c-1.104,0-2,0.896-2,2
		s0.896,2,2,2s2-0.896,2-2S487.104,54,486,54z M494,54c-1.104,0-2,0.896-2,2s0.896,2,2,2s2-0.896,2-2S495.104,54,494,54z M498,4
		c1.104,0,2-0.896,2-2s-0.896-2-2-2s-2,0.896-2,2S496.896,4,498,4z M506,4c1.104,0,2-0.896,2-2s-0.896-2-2-2s-2,0.896-2,2
		S504.896,4,506,4z M502,10c1.104,0,2-0.896,2-2s-0.896-2-2-2s-2,0.896-2,2S500.896,10,502,10z M510,10c1.104,0,2-0.896,2-2
		s-0.896-2-2-2s-2,0.896-2,2S508.896,10,510,10z M498,12c-1.104,0-2,0.896-2,2s0.896,2,2,2s2-0.896,2-2S499.104,12,498,12z M506,12
		c-1.104,0-2,0.896-2,2s0.896,2,2,2s2-0.896,2-2S507.104,12,506,12z M502,18c-1.104,0-2,0.896-2,2s0.896,2,2,2s2-0.896,2-2
		S503.104,18,502,18z M510,18c-1.104,0-2,0.896-2,2s0.896,2,2,2s2-0.896,2-2S511.104,18,510,18z M498,28c1.104,0,2-0.896,2-2
		s-0.896-2-2-2s-2,0.896-2,2S496.896,28,498,28z M506,24c-1.104,0-2,0.896-2,2s0.896,2,2,2s2-0.896,2-2S507.104,24,506,24z M502,30
		c-1.104,0-2,0.896-2,2s0.896,2,2,2s2-0.896,2-2S503.104,30,502,30z M510,30c-1.104,0-2,0.896-2,2s0.896,2,2,2s2-0.896,2-2
		S511.104,30,510,30z M498,36c-1.104,0-2,0.896-2,2s0.896,2,2,2s2-0.896,2-2S499.104,36,498,36z M506,36c-1.104,0-2,0.896-2,2
		s0.896,2,2,2s2-0.896,2-2S507.104,36,506,36z M502,46c1.104,0,2-0.896,2-2s-0.896-2-2-2s-2,0.896-2,2S500.896,46,502,46z M510,42
		c-1.104,0-2,0.896-2,2s0.896,2,2,2s2-0.896,2-2S511.104,42,510,42z M498,52c1.104,0,2-0.896,2-2s-0.896-2-2-2s-2,0.896-2,2
		S496.896,52,498,52z M506,52c1.104,0,2-0.896,2-2s-0.896-2-2-2s-2,0.896-2,2S504.896,52,506,52z M502,54c-1.104,0-2,0.896-2,2
		s0.896,2,2,2s2-0.896,2-2S503.104,54,502,54z M510,54c-1.104,0-2,0.896-2,2s0.896,2,2,2s2-0.896,2-2S511.104,54,510,54z M450,60
		c-1.104,0-2,0.896-2,2s0.896,2,2,2s2-0.896,2-2S451.104,60,450,60z M458,60c-1.104,0-2,0.896-2,2s0.896,2,2,2s2-0.896,2-2
		S459.104,60,458,60z M466,60c-1.104,0-2,0.896-2,2s0.896,2,2,2s2-0.896,2-2S467.104,60,466,60z M474,60c-1.104,0-2,0.896-2,2
		s0.896,2,2,2s2-0.896,2-2S475.104,60,474,60z M482,60c-1.104,0-2,0.896-2,2s0.896,2,2,2s2-0.896,2-2S483.104,60,482,60z M490,60
		c-1.104,0-2,0.896-2,2s0.896,2,2,2s2-0.896,2-2S491.104,60,490,60z M498,60c-1.104,0-2,0.896-2,2s0.896,2,2,2s2-0.896,2-2
		S499.104,60,498,60z M506,60c-1.104,0-2,0.896-2,2s0.896,2,2,2s2-0.896,2-2S507.104,60,506,60z"/>
	<g>
	</g>
	<g>
	</g>
	<g>
	</g>
	<g>
	</g>
	<g>
	</g>
	<g>
	</g>
</g>
</svg>
